<svg width="10" height="15" viewBox="0 0 10 15" fill="none" xmlns="http://www.w3.org/2000/svg">
<mask id="path-1-inside-1_132:82" fill="white">
<path d="M5.00487 2.92975C4.67225 2.92975 4.3471 3.02485 4.07054 3.20304C3.79398 3.38123 3.57842 3.63449 3.45114 3.9308C3.32385 4.22711 3.29054 4.55316 3.35544 4.86772C3.42033 5.18229 3.5805 5.47123 3.81569 5.69802C4.05089 5.9248 4.35055 6.07925 4.67678 6.14182C5.00301 6.20439 5.34115 6.17227 5.64845 6.04954C5.95575 5.9268 6.2184 5.71896 6.4032 5.45228C6.58799 5.18561 6.68662 4.87209 6.68662 4.55136C6.68662 4.12128 6.50944 3.70882 6.19405 3.40471C5.87866 3.1006 5.4509 2.92975 5.00487 2.92975ZM5.00487 5.40541C4.7655 5.40541 4.53594 5.31372 4.36668 5.15052C4.19742 4.98731 4.10233 4.76596 4.10233 4.53515C4.10233 4.30434 4.19742 4.08298 4.36668 3.91978C4.53594 3.75657 4.7655 3.66488 5.00487 3.66488C5.24424 3.66488 5.4738 3.75657 5.64306 3.91978C5.81232 4.08298 5.90741 4.30434 5.90741 4.53515C5.90741 4.76596 5.81232 4.98731 5.64306 5.15052C5.4738 5.31372 5.24424 5.40541 5.00487 5.40541Z"/>
</mask>
<path d="M5.00487 2.92975C4.67225 2.92975 4.3471 3.02485 4.07054 3.20304C3.79398 3.38123 3.57842 3.63449 3.45114 3.9308C3.32385 4.22711 3.29054 4.55316 3.35544 4.86772C3.42033 5.18229 3.5805 5.47123 3.81569 5.69802C4.05089 5.9248 4.35055 6.07925 4.67678 6.14182C5.00301 6.20439 5.34115 6.17227 5.64845 6.04954C5.95575 5.9268 6.2184 5.71896 6.4032 5.45228C6.58799 5.18561 6.68662 4.87209 6.68662 4.55136C6.68662 4.12128 6.50944 3.70882 6.19405 3.40471C5.87866 3.1006 5.4509 2.92975 5.00487 2.92975ZM5.00487 5.40541C4.7655 5.40541 4.53594 5.31372 4.36668 5.15052C4.19742 4.98731 4.10233 4.76596 4.10233 4.53515C4.10233 4.30434 4.19742 4.08298 4.36668 3.91978C4.53594 3.75657 4.7655 3.66488 5.00487 3.66488C5.24424 3.66488 5.4738 3.75657 5.64306 3.91978C5.81232 4.08298 5.90741 4.30434 5.90741 4.53515C5.90741 4.76596 5.81232 4.98731 5.64306 5.15052C5.4738 5.31372 5.24424 5.40541 5.00487 5.40541Z" fill="white"/>
<path d="M6.68662 4.55136H7.68662H6.68662ZM5.00487 3.66488V2.66488V3.66488ZM5.90741 4.53515H6.90741H5.90741ZM5.00487 1.92975C4.4824 1.92975 3.96886 2.07897 3.52893 2.36241L4.61215 4.04367C4.72535 3.97074 4.8621 3.92975 5.00487 3.92975V1.92975ZM3.52893 2.36241C3.08865 2.64608 2.73984 3.05304 2.53233 3.5361L4.36995 4.3255C4.41701 4.21594 4.49931 4.11637 4.61215 4.04367L3.52893 2.36241ZM2.53233 3.5361C2.32462 4.01962 2.26964 4.5539 2.37606 5.06976L4.33481 4.66569C4.31145 4.55242 4.32308 4.4346 4.36995 4.3255L2.53233 3.5361ZM2.37606 5.06976C2.48241 5.58534 2.74395 6.05375 3.12158 6.41788L4.50981 4.97816C4.41705 4.88871 4.35824 4.77924 4.33481 4.66569L2.37606 5.06976ZM3.12158 6.41788C3.49881 6.78163 3.97511 7.02547 4.48841 7.12392L4.86514 5.15972C4.72599 5.13303 4.60297 5.06798 4.50981 4.97816L3.12158 6.41788ZM4.48841 7.12392C5.00158 7.22234 5.53385 7.17212 6.01936 6.97821L5.27754 5.12087C5.14845 5.17243 5.00444 5.18644 4.86514 5.15972L4.48841 7.12392ZM6.01936 6.97821C6.50514 6.78419 6.92617 6.45329 7.22514 6.02185L5.58125 4.88271C5.51063 4.98462 5.40636 5.06942 5.27754 5.12087L6.01936 6.97821ZM7.22514 6.02185C7.52443 5.58995 7.68662 5.07815 7.68662 4.55136H5.68662C5.68662 4.66602 5.65155 4.78127 5.58125 4.88271L7.22514 6.02185ZM7.68662 4.55136C7.68662 3.84408 7.3949 3.17346 6.88817 2.68485L5.49993 4.12457C5.62398 4.24418 5.68662 4.39849 5.68662 4.55136H7.68662ZM6.88817 2.68485C6.38268 2.19743 5.70461 1.92975 5.00487 1.92975V3.92975C5.1972 3.92975 5.37464 4.00376 5.49993 4.12457L6.88817 2.68485ZM5.00487 4.40541C5.01921 4.40541 5.03996 4.41056 5.0608 4.43066L3.67256 5.87038C4.03192 6.21689 4.5118 6.40541 5.00487 6.40541V4.40541ZM5.0608 4.43066C5.08288 4.45195 5.10233 4.48875 5.10233 4.53515H3.10233C3.10233 5.04316 3.31196 5.52268 3.67256 5.87038L5.0608 4.43066ZM5.10233 4.53515C5.10233 4.58155 5.08288 4.61835 5.0608 4.63964L3.67256 3.19991C3.31196 3.54762 3.10233 4.02713 3.10233 4.53515H5.10233ZM5.0608 4.63964C5.03996 4.65973 5.01921 4.66488 5.00487 4.66488V2.66488C4.5118 2.66488 4.03192 2.85341 3.67256 3.19991L5.0608 4.63964ZM5.00487 4.66488C4.99054 4.66488 4.96978 4.65973 4.94895 4.63964L6.33718 3.19991C5.97783 2.85341 5.49795 2.66488 5.00487 2.66488V4.66488ZM4.94895 4.63964C4.92687 4.61835 4.90741 4.58155 4.90741 4.53515H6.90741C6.90741 4.02713 6.69778 3.54762 6.33718 3.19991L4.94895 4.63964ZM4.90741 4.53515C4.90741 4.48875 4.92687 4.45195 4.94895 4.43066L6.33718 5.87038C6.69778 5.52268 6.90741 5.04317 6.90741 4.53515H4.90741ZM4.94895 4.43066C4.96979 4.41056 4.99054 4.40541 5.00487 4.40541V6.40541C5.49794 6.40541 5.97782 6.21689 6.33718 5.87038L4.94895 4.43066Z" fill="#219653" mask="url(#path-1-inside-1_132:82)"/>
<path d="M5.00025 1.00009C4.32145 0.997716 3.65162 1.14954 3.04501 1.44326C2.43839 1.73699 1.91206 2.16435 1.50863 2.69074C1.1052 3.21713 0.836029 3.82774 0.722911 4.47311C0.609793 5.11849 0.655912 5.78048 0.857532 6.40547C0.857532 6.44871 0.857532 6.50277 0.896772 6.5352C1.30039 7.72438 4.59102 13.5892 4.71995 13.8379C4.74767 13.8864 4.7882 13.9269 4.83743 13.9554C4.88666 13.9839 4.94284 13.9993 5.00025 14C5.05849 13.9997 5.1156 13.9845 5.1658 13.956C5.216 13.9275 5.25752 13.8868 5.28614 13.8379C5.42629 13.5892 8.7001 7.72979 9.10933 6.51358L9.14296 6.40006C9.26505 6.00537 9.32736 5.59573 9.32795 5.18385C9.32869 4.63514 9.21733 4.09167 9.00025 3.58445C8.78316 3.07724 8.46458 2.61622 8.06272 2.22772C7.66085 1.83922 7.18357 1.53085 6.65811 1.32021C6.13265 1.10958 5.5693 1.0008 5.00025 1.00009ZM8.51511 6.21628V6.32979C8.18436 7.29736 5.84112 11.5568 5.01706 13.0379C4.18179 11.5514 1.82174 7.27033 1.5022 6.32439C1.49939 6.29743 1.49939 6.27027 1.5022 6.24331C1.33483 5.75275 1.28026 5.23293 1.34227 4.71998C1.40428 4.20703 1.58139 3.71325 1.86129 3.27297C2.1412 2.83268 2.51718 2.45645 2.9631 2.17043C3.40903 1.8844 3.9142 1.69544 4.44351 1.61667C4.97282 1.53791 5.51356 1.57123 6.02817 1.71432C6.54277 1.85742 7.01889 2.10685 7.42343 2.44528C7.82796 2.78372 8.15122 3.20304 8.37072 3.6741C8.59022 4.14515 8.7007 4.65665 8.69449 5.17304C8.68724 5.52731 8.62681 5.87871 8.51511 6.21628Z" fill="#219653"/>
</svg>
