<?xml version="1.0" encoding="utf-8"?>
<!-- Generator: Adobe Illustrator 24.0.1, SVG Export Plug-In . SVG Version: 6.00 Build 0)  -->
<svg version="1.1" id="Camada_1" xmlns="http://www.w3.org/2000/svg" xmlns:xlink="http://www.w3.org/1999/xlink" x="0px" y="0px"
	 viewBox="0 0 659.5 112.5" style="enable-background:new 0 0 659.5 112.5;" xml:space="preserve">
<style type="text/css">
	.st0{fill:none;stroke:#FFFFFF;stroke-width:0.5;stroke-miterlimit:10;}
	.st1{fill:#FFFFFF;}
</style>
<title>logotipo-laboratorio-sailvano-sarmento</title>
<line class="st0" x1="101.9" y1="2.5" x2="101.9" y2="112.4"/>
<path class="st1" d="M167.8,59c0.2,0,0.4,0,0.6,0.2c0.2,0.1,0.3,0.4,0.3,1v3.3c0,2.9-1.4,4.3-4.3,4.3h-26.9c-0.9,0-1.8,0.1-2.7,0.4
	c-0.6,0.2-1.2,0.5-1.6,0.9c-0.5,0.6-1,1.4-1.2,2.2c-0.4,1.3-0.6,2.7-0.4,4c0,1.3,0.7,2.5,1.7,3.2c1.2,0.7,2.5,1.2,3.8,1.4l19.4,4
	c4.9,1.1,8.5,2.6,10.8,4.6s3.4,4.9,3.4,8.7c0.1,3.8-1.3,7.4-4.1,10c-2.7,2.6-7.1,3.8-13.3,3.8h-29.6c-0.2,0-0.5,0-0.7-0.2
	c-0.2-0.1-0.3-0.4-0.3-0.9v-2.7c0-3.1,1.4-4.7,4.3-4.7h29c0.9,0,1.9-0.1,2.8-0.4c0.6-0.2,1.1-0.5,1.6-0.9c0.4-0.5,0.8-1,1.1-1.5
	c0.4-0.9,0.6-1.9,0.5-2.9c0-1.3-0.8-2.4-1.9-3c-1.3-0.7-2.6-1.3-4.1-1.6l-20-4c-9.4-2.1-14.2-6.8-14.2-14.2
	c-0.1-2.1,0.3-4.3,1.2-6.3c0.8-1.8,2-3.5,3.6-4.8c1.7-1.4,3.6-2.4,5.7-3.1c2.4-0.7,4.9-1.1,7.4-1H167.8z"/>
<path class="st1" d="M174,64.4c0-3.1,1.5-4.7,4.6-4.7c3,0,4.6,1.6,4.5,4.7c0,3-1.5,4.5-4.5,4.5S174,67.5,174,64.4z M175.4,111
	c-0.4,0.1-0.7-0.2-0.8-0.6c0-0.1,0-0.1,0-0.2V79.2c0-2.3,1.2-3.4,3.5-3.4h3.4c0.4-0.1,0.7,0.2,0.8,0.6c0,0.1,0,0.1,0,0.2v33.7
	c0.1,0.4-0.2,0.7-0.6,0.8c-0.1,0-0.1,0-0.2,0L175.4,111z"/>
<path class="st1" d="M193.5,110.9h-6.8c-0.6,0-0.8-0.3-0.8-1V63.3c0-2.7,1.2-4.1,3.7-4.1h3.9c0.6,0,0.9,0.3,0.9,1V110
	C194.4,110.6,194.1,110.9,193.5,110.9z"/>
<path class="st1" d="M225,76c0.1-0.5,0.3-1,0.7-1.3c0.5-0.3,1.1-0.4,1.7-0.4h5.1c0.6,0,0.9,0.3,0.9,0.8c0,0.1,0,0.3-0.1,0.4
	c-0.1,0.2-0.2,0.5-0.3,0.7l-13,33.9c-0.2,0.6-0.8,1-1.5,1h-7.8c-0.4,0-0.7-0.1-1-0.3c-0.2-0.2-0.4-0.5-0.6-0.9l-12.5-33.7
	c-0.1-0.4-0.2-0.7-0.2-1.1c0-0.5,0.3-0.8,0.9-0.8h5.5c1.5,0,2.4,0.6,2.8,1.7l9.4,27.6h0.1L225,76z"/>
<path class="st1" d="M243.3,109.9c-1.8-0.5-3.5-1.3-4.9-2.5c-1.1-0.9-1.9-2.1-2.3-3.5c-0.4-1.3-0.5-2.5-0.5-3.8c0-3.1,1-5.4,3.1-6.9
	s5.1-2.6,9.1-3.4l4.6-0.8c1.3-0.2,2.4-0.4,3.3-0.6s1.6-0.3,2.1-0.5c0.5-0.1,0.9-0.3,1.4-0.4c0.3-0.1,0.6-0.3,0.8-0.5
	c0.2-0.3,0.2-0.7,0.2-1c0.1-1.5-0.5-3-1.8-3.8c-1.2-0.7-3.3-1.1-6.3-1.1c-3-0.1-6,0.1-9,0.5c-1.3,0.2-2.7,0.4-4,0.5
	c-0.4,0-0.6-0.3-0.6-0.8l-0.1-3.2c-0.1-0.7,0.1-1.5,0.6-2c0.5-0.4,1.2-0.7,1.9-0.8c1.1-0.1,2.6-0.3,4.5-0.4s4.3-0.2,7.1-0.2
	c5.4,0,9.4,1,11.9,3c2.5,2,3.7,5.3,3.7,10v19.3c0.1,1.5-1.1,2.9-2.6,3c0,0-0.1,0-0.1,0c-2.1,0.4-4.3,0.6-6.4,0.8
	c-2.3,0.1-4.7,0.2-7,0.2C248.9,111,246.1,110.7,243.3,109.9z M260.1,93.6l-13,2.5c-2.5,0.5-3.8,1.8-3.8,4c-0.1,1.6,0.9,3.1,2.4,3.6
	c2.1,0.7,4.3,1,6.5,0.9c1.5,0,3-0.1,4.5-0.2c1.1-0.1,2.2-0.2,3.3-0.4L260.1,93.6z"/>
<path class="st1" d="M304.4,87.2v23.2c0.1,0.4-0.2,0.8-0.6,0.9c-0.1,0-0.1,0-0.2,0h-6.2c-0.4,0.1-0.8-0.2-0.9-0.7c0-0.1,0-0.1,0-0.2
	V88.5c0-2.8-0.6-4.7-1.7-5.7c-1.1-0.9-3.3-1.4-6.5-1.4c-2.5,0-4.3,0-5.6,0.1c-1,0-1.9,0.2-2.9,0.4c-0.6,0.1-1,0.6-1,1.2v27.3
	c0.1,0.4-0.2,0.8-0.6,0.9c-0.1,0-0.1,0-0.2,0h-6.1c-0.7,0-1-0.3-1-0.9V78.9c-0.2-1.6,1-3,2.6-3.1c0,0,0.1,0,0.1,0
	c2.1-0.5,4.3-0.8,6.5-1c2.3-0.2,5.1-0.3,8.6-0.3c5.6,0,9.6,1,12,3S304.4,82.7,304.4,87.2z"/>
<path class="st1" d="M306.5,92.1c0-6.8,1.8-11.5,5.3-14c3.8-2.6,8.4-3.9,13-3.8c4.6-0.1,9.2,1.2,13.1,3.8c3.6,2.5,5.4,7.2,5.4,14
	c0,2.5-0.2,5.1-0.8,7.5c-0.5,2.2-1.5,4.3-2.9,6c-1.5,1.8-3.5,3.1-5.7,3.9c-5.9,1.9-12.4,1.9-18.3,0c-2.2-0.8-4.1-2.2-5.6-3.9
	c-1.4-1.8-2.3-3.8-2.8-6C306.7,97.2,306.4,94.6,306.5,92.1z M335.2,92.1c0-3.8-0.7-6.6-2.1-8.4c-1.4-1.7-4.2-2.6-8.3-2.6
	s-6.9,0.9-8.3,2.6s-2.1,4.5-2.1,8.4c0,4.9,0.8,8.1,2.4,9.7s4.3,2.4,8,2.4c3.7,0,6.4-0.8,8-2.4S335.2,97,335.2,92.1z"/>
<path class="st1" d="M410.7,59c0.2,0,0.4,0,0.6,0.2c0.2,0.1,0.3,0.4,0.3,1v3.3c0,2.9-1.4,4.3-4.3,4.3h-26.9c-0.9,0-1.8,0.1-2.7,0.4
	c-0.6,0.2-1.1,0.4-1.6,0.8c-0.5,0.6-1,1.4-1.2,2.2c-0.4,1.3-0.6,2.7-0.4,4c0,1.3,0.7,2.5,1.7,3.2c1.2,0.7,2.5,1.2,3.8,1.6l19.4,4
	c4.9,1.1,8.5,2.6,10.8,4.6c2.3,2,3.4,4.9,3.4,8.7c0.1,3.8-1.3,7.4-4.1,10c-2.7,2.6-7.1,3.8-13.3,3.8h-29.6c-0.2,0-0.5,0-0.7-0.2
	c-0.2-0.1-0.3-0.4-0.3-0.9v-2.7c0-3.1,1.4-4.7,4.3-4.7h29c0.9,0,1.9-0.1,2.8-0.4c0.6-0.2,1.1-0.5,1.6-0.9c0.4-0.5,0.8-1,1.1-1.5
	c0.4-0.9,0.6-1.9,0.5-2.9c0-1.3-0.7-2.5-1.9-3.1c-1.3-0.7-2.6-1.3-4.1-1.6l-20.1-4c-9.5-2.1-14.2-6.8-14.2-14.2
	c0-2.2,0.4-4.3,1.3-6.3c0.8-1.8,2-3.5,3.6-4.8c1.6-1.4,3.6-2.5,5.6-3.1c2.4-0.7,4.9-1.1,7.4-1H410.7z"/>
<path class="st1" d="M424.3,109.9c-1.8-0.5-3.5-1.3-4.9-2.5c-1.1-0.9-1.9-2.1-2.3-3.5c-0.4-1.3-0.5-2.5-0.5-3.8c0-3.1,1-5.4,3.1-6.9
	c2.1-1.5,5.1-2.6,9.1-3.4l4.6-0.8c1.3-0.2,2.4-0.4,3.3-0.6s1.6-0.3,2.1-0.5c0.5-0.1,0.9-0.3,1.4-0.4c0.3-0.1,0.5-0.3,0.8-0.5
	c0.2-0.3,0.3-0.7,0.2-1c0.1-1.5-0.5-3-1.8-3.8c-1.2-0.8-3.3-1.1-6.4-1.1c-3-0.1-6,0.1-9,0.5c-1.3,0.2-2.7,0.4-4,0.5
	c-0.4,0-0.6-0.3-0.6-0.8l-0.1-3.2c-0.1-0.7,0.1-1.5,0.6-2c0.5-0.4,1.2-0.7,1.9-0.8c1.1-0.1,2.6-0.3,4.5-0.4s4.3-0.2,7.1-0.2
	c5.4,0,9.4,1,11.9,3s3.7,5.3,3.7,10v19.3c0.1,1.5-1.1,2.9-2.6,3c0,0-0.1,0-0.1,0c-2.1,0.4-4.3,0.6-6.4,0.8c-2.3,0.1-4.7,0.2-7,0.2
	C429.9,111,427,110.7,424.3,109.9z M441.1,93.6l-13,2.5c-2.5,0.5-3.8,1.8-3.8,4c-0.1,1.6,0.9,3.1,2.4,3.6c2.1,0.7,4.3,1,6.5,0.9
	c1.5,0,3-0.1,4.5-0.2c1.1-0.1,2.2-0.2,3.3-0.4L441.1,93.6z"/>
<path class="st1" d="M459.3,110.9h-6.1c-0.5,0-0.8-0.3-0.8-0.9V87.6c0-4.5,1.2-7.8,3.5-9.8c2.3-2,5.8-3,10.4-3c1.1,0,2.2,0,3.3,0.1
	s2.1,0.2,2.9,0.3c1.2,0,2.2,1.1,2.2,2.3c0,0,0,0,0,0.1l-0.1,3.3c0,0.5-0.3,0.8-0.8,0.8s-1.7,0-3.2,0s-3,0-4.5,0
	c-1.5-0.1-3.1,0.3-4.4,1.1c-1.1,1-1.6,2.4-1.5,3.8V110c0,0.5-0.3,0.9-0.7,0.9C459.4,110.9,459.4,110.9,459.3,110.9z"/>
<path class="st1" d="M526.6,87.1v23.2c0,0.5-0.3,0.8-1,0.8h-6c-0.7,0-1-0.3-1-0.8v-22c0-2.6-0.5-4.4-1.5-5.4c-1-1-2.7-1.5-5.1-1.5
	c-1.8,0-3.7,0.2-5.4,0.6c-0.5,0.1-0.8,0.5-0.8,1.2v27.1c0,0.5-0.3,0.8-1,0.8h-6.3c-0.4,0.1-0.7-0.2-0.8-0.6c0-0.1,0-0.1,0-0.2V87.5
	c0-2.2-0.4-3.8-1.3-4.7c-0.8-0.9-2.8-1.4-5.8-1.4c-1.8-0.1-3.5,0.1-5.3,0.6c-0.7,0-1,0.4-1,1.2v27.1c0,0.5-0.3,0.8-1,0.8h-6
	c-0.6,0-1-0.3-1-0.8V78.9c-0.1-1.6,1.1-3,2.7-3.1c1.9-0.4,4-0.7,6-1c2.3-0.3,4.7-0.4,7-0.4c1.7,0,3.4,0.1,5.1,0.5
	c1.4,0.2,2.7,0.7,3.9,1.3c1.3-0.4,2.9-0.8,4.7-1.2c1.9-0.4,3.9-0.6,5.9-0.6C521.6,74.4,526.6,78.6,526.6,87.1z"/>
<path class="st1" d="M539.9,102.9c1.6,0.8,4.2,1.2,7.6,1.2c1.2,0,2.3,0,3.6-0.1s2.5-0.1,3.6-0.2l2.9-0.2c0.8-0.1,1.3-0.1,1.6-0.1
	c0.6,0,0.8,0.3,0.8,0.9l0.1,3.2c0.1,0.7-0.1,1.5-0.6,2.1c-0.6,0.5-1.3,0.8-2,0.8c-1.2,0.1-2.8,0.3-4.6,0.3s-4.1,0.1-6.5,0.1
	c-3,0.1-6-0.4-8.9-1.3c-2.1-0.8-4-2-5.5-3.7c-1.4-1.7-2.4-3.7-2.8-5.9c-0.6-2.6-0.8-5.2-0.8-7.8c-0.1-3,0.3-5.9,1.2-8.7
	c0.7-2.1,1.8-4.1,3.5-5.6c1.6-1.4,3.4-2.4,5.5-2.9c2.5-0.6,5-0.9,7.5-0.8c2.7,0,5.5,0.3,8.1,1c1.8,0.5,3.6,1.3,5.1,2.5
	c1.1,0.9,2,2,2.5,3.4c0.5,1.2,0.7,2.5,0.7,3.8c0,1.4-0.2,2.9-0.7,4.2c-0.4,1.2-1.2,2.2-2.1,3c-1.1,0.9-2.4,1.6-3.7,2
	c-1.7,0.6-3.5,1.1-5.3,1.4l-13.9,2.5C537.2,100.4,538.3,102.1,539.9,102.9z M547.5,90c1.3-0.2,2.5-0.5,3.8-0.9
	c0.8-0.2,1.5-0.6,2.1-1.1c0.4-0.3,0.8-0.8,0.9-1.3c0.1-0.6,0.2-1.2,0.2-1.8c0.1-1.4-0.6-2.6-1.8-3.3c-1.2-0.7-3.2-1-6.1-1
	c-1.7,0-3.4,0.1-5.1,0.5c-2.4,0.5-4.3,2.4-4.7,4.8c-0.3,1.6-0.4,3.2-0.4,4.8V92L547.5,90z"/>
<path class="st1" d="M598,87.2v23.2c0.1,0.4-0.2,0.8-0.7,0.9c-0.1,0-0.1,0-0.2,0h-6.2c-0.4,0.1-0.8-0.2-0.9-0.6c0-0.1,0-0.1,0-0.2
	V88.5c0-2.8-0.6-4.7-1.7-5.7c-1.1-0.9-3.3-1.4-6.5-1.4c-2.4,0-4.3,0-5.6,0.1c-1,0-1.9,0.2-2.9,0.4c-0.6,0.1-1,0.6-1,1.2v27.3
	c0.1,0.4-0.2,0.8-0.6,0.9c-0.1,0-0.1,0-0.2,0h-6.1c-0.7,0-1-0.3-1-0.9V78.9c-0.2-1.6,1-3,2.6-3.1c0,0,0.1,0,0.1,0
	c2.1-0.5,4.3-0.8,6.5-1c2.3-0.2,5.1-0.3,8.6-0.3c5.6,0,9.6,1,12,3C596.7,79.5,598,82.7,598,87.2z"/>
<path class="st1" d="M608.3,99.3c-0.1,1.4,0.2,2.8,1,3.9c0.7,0.8,2.3,1.2,4.9,1.2c0.9,0,1.9,0,3-0.1s2.1-0.1,2.8-0.1
	c0.5,0,0.7,0.3,0.7,0.8v3.5c0.1,0.6-0.1,1.2-0.5,1.7c-0.5,0.4-1.1,0.7-1.7,0.8c-0.9,0.1-1.7,0.2-2.6,0.2h-3c-4.7,0-8-1-9.9-2.9
	c-1.9-1.9-2.9-4.9-2.9-9V67.7c-0.1-1,0.3-2,1-2.8c0.7-0.7,1.6-1,2.5-1h3.7c0.6,0,0.8,0.3,0.8,0.9v9.7h10.3c0.4-0.1,0.8,0.2,0.9,0.6
	c0,0.1,0,0.2,0,0.2V80c0,0.6-0.3,0.8-0.9,0.8h-9.4c-0.6,0-0.9,0.3-0.9,1L608.3,99.3z"/>
<path class="st1" d="M622.7,92.1c0-6.8,1.8-11.5,5.3-14c3.8-2.6,8.4-3.9,13-3.8c4.6-0.1,9.2,1.2,13.1,3.8c3.6,2.5,5.4,7.2,5.4,14
	c0,2.5-0.2,5.1-0.8,7.5c-0.5,2.2-1.5,4.3-2.9,6c-1.5,1.8-3.5,3.1-5.7,3.9c-5.9,1.9-12.4,1.9-18.3,0c-2.2-0.8-4.1-2.2-5.6-3.9
	c-1.4-1.8-2.3-3.8-2.8-6C622.9,97.2,622.6,94.6,622.7,92.1z M651.4,92.1c0-3.8-0.7-6.6-2.1-8.4s-4.2-2.6-8.3-2.6s-6.9,0.9-8.3,2.6
	s-2.1,4.5-2.1,8.4c0,4.9,0.8,8.1,2.4,9.7c1.6,1.6,4.3,2.4,8,2.4c3.7,0,6.4-0.8,8-2.4C650.6,100.2,651.4,97,651.4,92.1z"/>
<path class="st1" d="M146.7,40.8c0,0.6-0.3,0.9-0.8,0.9h-22.1c-0.6,0.1-1.3-0.1-1.7-0.6c-0.2-0.4-0.3-0.9-0.2-1.3l-0.1-36.3
	c0-0.4,0.2-0.7,0.6-0.8c0.1,0,0.1,0,0.2,0h4.2c1.6,0,2.4,0.7,2.4,2.2v30.8h15c1.7,0,2.5,1,2.5,2.9L146.7,40.8z"/>
<path class="st1" d="M155.2,40.8c-1.4-0.4-2.6-1-3.7-1.9c-0.8-0.7-1.4-1.6-1.7-2.6c-0.3-0.9-0.4-1.9-0.4-2.9c-0.1-2,0.7-4,2.3-5.2
	c2.1-1.3,4.5-2.2,6.9-2.6l3.5-0.6c1-0.2,1.8-0.3,2.5-0.5s1.2-0.3,1.6-0.4c0.3-0.1,0.7-0.2,1-0.3c0.2-0.1,0.4-0.2,0.6-0.4
	c0.1-0.2,0.2-0.5,0.2-0.8c0.1-1.1-0.4-2.2-1.4-2.9c-0.9-0.6-2.5-0.9-4.8-0.9c-2.3,0-4.5,0.1-6.8,0.4c-1,0.2-2,0.3-3,0.4
	c-0.3,0-0.5-0.2-0.5-0.6l-0.1-2.4c-0.1-0.5,0.1-1.1,0.4-1.5c0.4-0.3,0.9-0.5,1.4-0.6c0.8-0.1,2-0.2,3.4-0.3c1.4-0.1,3.2-0.2,5.4-0.2
	c4.1,0,7.1,0.8,9,2.3c1.9,1.5,2.8,4,2.8,7.6v14.6c0.1,1.2-0.8,2.2-2,2.3c0,0-0.1,0-0.1,0c-1.6,0.3-3.2,0.5-4.9,0.6
	c-1.8,0.1-3.5,0.2-5.3,0.2C159.5,41.6,157.3,41.3,155.2,40.8z M167.9,28.4l-9.8,1.9c-1.9,0.4-2.9,1.4-2.9,3
	c-0.1,1.2,0.7,2.4,1.8,2.7c1.6,0.5,3.3,0.7,4.9,0.7c1.1,0,2.3,0,3.4-0.2c0.8-0.1,1.7-0.2,2.5-0.3V28.4z"/>
<path class="st1" d="M197.8,16.6c2.8,2.2,4.2,5.8,4.2,10.8c0,4.9-0.9,8.3-2.6,10.4c-2,2.5-5.8,3.7-11.4,3.7c-1.5,0-3-0.1-4.6-0.2
	c-1.8-0.1-3.5-0.4-5.2-0.7c-1.2-0.1-2.1-1.1-2-2.2V5.2c0-1.9,0.9-2.8,2.6-2.8h2.6c0.4,0,0.7,0.2,0.7,0.6c0,0.1,0,0.1,0,0.2v11.2
	c0.8-0.1,1.6-0.2,2.4-0.3c1-0.1,2.2-0.1,3.7-0.1C192.8,14,195.9,14.9,197.8,16.6z M182.1,20.7V36c0.8,0.1,1.6,0.2,2.4,0.3
	c0.9,0.1,1.9,0.1,3,0.1c3.5,0,5.7-0.5,6.7-1.5c1.2-1.1,1.8-3.6,1.9-7.5c0-2.8-0.5-4.9-1.5-6.1c-1.1-1.5-3.4-2.3-6.7-2.3
	c-2.6,0-4.3,0.2-5,0.6C182.4,19.7,182,20.2,182.1,20.7z"/>
<path class="st1" d="M203.7,27.3c0-5.2,1.3-8.7,4-10.6c2.9-2,6.4-3,9.9-2.9c3.5-0.1,7,0.9,9.9,2.9c2.7,1.9,4.1,5.4,4.1,10.6
	c0,1.9-0.2,3.8-0.5,5.7c-0.4,1.7-1.1,3.2-2.2,4.5c-1.2,1.3-2.6,2.4-4.3,3c-4.5,1.5-9.4,1.5-13.9,0c-1.6-0.6-3.1-1.7-4.2-3
	c-1.1-1.3-1.8-2.9-2.2-4.5C203.8,31.1,203.7,29.2,203.7,27.3z M225.4,27.3c0-2.9-0.5-5-1.6-6.3c-1.1-1.3-3.2-2-6.3-2
	c-3.1,0-5.2,0.7-6.3,2s-1.6,3.4-1.6,6.3c0,3.7,0.6,6.2,1.8,7.4s3.2,1.8,6.1,1.8s4.8-0.6,6-1.8S225.4,31,225.4,27.3z"/>
<path class="st1" d="M238.9,41.5h-4.6c-0.4,0-0.6-0.2-0.6-0.7V23.9c0-3.4,0.9-5.9,2.7-7.4s4.4-2.3,7.9-2.3c0.8,0,1.6,0,2.5,0.1
	s1.6,0.1,2.2,0.2c0.9,0,1.7,0.8,1.6,1.7c0,0,0,0,0,0.1l-0.1,2.5c0,0.4-0.2,0.6-0.6,0.6h-2.4H244c-1.2-0.1-2.3,0.2-3.3,0.8
	c-0.8,0.7-1.2,1.8-1.1,2.9v17.7c0,0.3-0.2,0.7-0.5,0.7C239,41.5,239,41.5,238.9,41.5z"/>
<path class="st1" d="M257.8,40.8c-1.4-0.4-2.7-1-3.8-1.9c-0.8-0.7-1.4-1.6-1.7-2.6c-0.3-0.9-0.4-1.9-0.4-2.9c-0.1-2,0.7-4,2.4-5.2
	c2.1-1.3,4.5-2.2,6.9-2.6l3.5-0.6c1-0.2,1.8-0.3,2.5-0.5c0.7-0.1,1.2-0.3,1.6-0.4c0.3-0.1,0.7-0.2,1-0.3c0.2-0.1,0.4-0.2,0.6-0.4
	c0.1-0.2,0.2-0.5,0.2-0.8c0.1-1.1-0.4-2.2-1.4-2.9c-0.9-0.6-2.5-0.9-4.8-0.9c-2.3,0-4.5,0.1-6.8,0.4c-1,0.2-2,0.3-3,0.4
	c-0.3,0-0.5-0.2-0.5-0.6l-0.1-2.4c-0.1-0.5,0.1-1.1,0.4-1.5c0.4-0.3,0.9-0.5,1.4-0.6c0.8-0.1,2-0.2,3.4-0.3c1.5-0.1,3.2-0.2,5.4-0.2
	c4.1,0,7.1,0.8,9,2.3s2.8,4,2.8,7.6v14.6c0.1,1.2-0.8,2.2-2,2.3c0,0-0.1,0-0.1,0c-1.6,0.3-3.2,0.5-4.9,0.6c-1.8,0.1-3.5,0.2-5.3,0.2
	C262,41.6,259.8,41.3,257.8,40.8z M270.5,28.4l-9.8,1.9c-1.9,0.4-2.9,1.4-2.9,3c-0.1,1.2,0.7,2.4,1.8,2.7c1.6,0.5,3.3,0.7,4.9,0.7
	c1.1,0,2.3,0,3.4-0.2c0.8-0.1,1.7-0.2,2.5-0.3L270.5,28.4z"/>
<path class="st1" d="M284.6,32.8c-0.1,1.1,0.2,2.1,0.8,3c0.5,0.6,1.8,0.9,3.7,0.9c0.6,0,1.4,0,2.3-0.1s1.6-0.1,2.1-0.1
	c0.4,0,0.5,0.2,0.5,0.6v2.6c0,0.4-0.1,0.9-0.4,1.3c-0.4,0.3-0.8,0.5-1.3,0.6c-0.7,0.1-1.3,0.2-2,0.2h-2.3c-3.5,0-6-0.7-7.5-2.2
	c-1.5-1.5-2.2-3.7-2.2-6.8V8.8c-0.1-0.8,0.2-1.5,0.7-2.1c0.5-0.5,1.2-0.8,1.9-0.7h2.8c0.4,0,0.6,0.2,0.6,0.7V14h7.8
	c0.3,0,0.6,0.2,0.6,0.5c0,0.1,0,0.1,0,0.2v3.5c0,0.4-0.2,0.6-0.6,0.6h-7.1c-0.4,0-0.7,0.2-0.7,0.7L284.6,32.8z"/>
<path class="st1" d="M295.5,27.3c0-5.2,1.3-8.7,4-10.6c2.9-2,6.4-3,9.9-2.9c3.5-0.1,7,0.9,9.9,2.9c2.7,1.9,4.1,5.4,4.1,10.6
	c0,1.9-0.2,3.8-0.6,5.7c-0.4,1.7-1.1,3.2-2.2,4.5c-1.2,1.3-2.6,2.4-4.3,3c-4.5,1.5-9.4,1.5-13.9,0c-1.6-0.6-3.1-1.7-4.2-3
	c-1-1.3-1.8-2.9-2.1-4.5C295.7,31.1,295.5,29.2,295.5,27.3z M317.3,27.3c0-2.9-0.5-5-1.6-6.3c-1.1-1.3-3.2-2-6.3-2
	c-3.1,0-5.2,0.7-6.3,2s-1.6,3.4-1.6,6.3c0,3.7,0.6,6.2,1.8,7.4c1.2,1.2,3.2,1.8,6.1,1.8c2.8,0,4.8-0.6,6-1.8S317.3,31,317.3,27.3z
	 M317.5,5.8c-0.7,0.9-1.5,1.6-2.5,2.2l-2.1,1.3c-1.7,0.9-3.5,1.5-5.4,1.7c-0.9-0.4-1.8-0.9-2.5-1.7L315.9,0c0.8,0.3,1.5,0.7,2.1,1.3
	c0.2,0.6,0.3,1.3,0.3,1.9C318.3,4.2,318,5,317.5,5.8L317.5,5.8z"/>
<path class="st1" d="M330.8,41.5h-4.6c-0.4,0-0.6-0.2-0.6-0.7V23.9c0-3.4,0.9-5.9,2.7-7.4s4.4-2.3,7.9-2.3c0.8,0,1.6,0,2.5,0.1
	s1.6,0.1,2.2,0.2c0.9,0,1.7,0.8,1.6,1.7c0,0,0,0,0,0.1l-0.1,2.5c0,0.4-0.2,0.6-0.6,0.6h-2.4h-3.4c-1.2-0.1-2.3,0.2-3.3,0.8
	c-0.8,0.7-1.2,1.8-1.1,2.9v17.7c0,0.3-0.2,0.7-0.5,0.7C330.9,41.5,330.8,41.5,330.8,41.5z"/>
<path class="st1" d="M344,6.3c0-2.4,1.2-3.6,3.5-3.6s3.4,1.2,3.4,3.6s-1.1,3.4-3.4,3.4S344,8.6,344,6.3z M345.1,41.6
	c-0.3,0-0.6-0.2-0.6-0.4c0-0.1,0-0.1,0-0.2V17.5c-0.2-1.3,0.7-2.4,2-2.6c0.2,0,0.4,0,0.6,0h2.6c0.3,0,0.6,0.1,0.6,0.4
	c0,0.1,0,0.1,0,0.2V41c0,0.3-0.2,0.6-0.4,0.6c-0.1,0-0.1,0-0.2,0L345.1,41.6z"/>
<path class="st1" d="M353,27.3c0-5.2,1.3-8.7,4-10.6c2.9-2,6.4-3,9.9-2.9c3.5-0.1,7,0.9,9.9,2.9c2.7,1.9,4.1,5.4,4.1,10.6
	c0,1.9-0.2,3.8-0.6,5.7c-0.4,1.7-1.1,3.2-2.2,4.5c-1.2,1.3-2.6,2.4-4.3,3c-4.5,1.5-9.4,1.5-13.9,0c-1.6-0.6-3.1-1.7-4.2-3
	c-1-1.3-1.7-2.9-2.1-4.5C353.2,31.1,353,29.2,353,27.3z M374.8,27.3c0-2.9-0.5-5-1.6-6.3c-1.1-1.3-3.2-2-6.3-2c-3.1,0-5.2,0.7-6.3,2
	s-1.6,3.4-1.6,6.3c0,3.7,0.6,6.2,1.8,7.4c1.2,1.2,3.2,1.8,6.1,1.8s4.8-0.6,6-1.8S374.8,31,374.8,27.3L374.8,27.3z"/>
<path class="st1" d="M56.1,82h0.1c0.4,0,0.8-0.1,1.1-0.2c1-0.4,1.9-1.2,2.2-2.2c0.1-0.4,0.2-0.7,0.2-1.1c0,0,0-0.1,0-0.1
	c0-2-1.6-3.7-3.6-3.7s-3.7,1.6-3.7,3.6S54.1,82,56.1,82C56.1,82,56.1,82,56.1,82z"/>
<polygon class="st1" points="23,18.1 23,16.9 23,15.9 22.3,15.9 21.7,15.9 21.7,16.1 21.7,24.9 23,24.9 "/>
<rect x="21.7" y="27.3" class="st1" width="1.3" height="1.7"/>
<path class="st1" d="M73.3,100c0-1.8-1.4-3.2-3.2-3.2h-6.9v-3.2l7.3-7.3c12.2-12.2,14.9-30.9,6.8-46.1c-0.2-0.3-0.6-0.4-0.9-0.3
	c0,0,0,0,0,0l0,0c-0.3,0.2-0.4,0.5-0.3,0.9c0,0,0,0,0,0c7.9,14.7,5.2,32.8-6.6,44.5l-6.4,6.4V78.2c0-0.4,0-0.9-0.1-1.3
	c10-11.1,9.1-28.3-2.1-38.3c-5-4.5-11.4-6.9-18.1-6.9h-3.6v-1c2.5-0.3,4.4-2.1,4.4-4.3s-1.9-4-4.4-4.3v-1H43
	c12.8,0,24.6,6.4,31.6,17.1c0.2,0.3,0.6,0.4,0.9,0.2c0,0,0,0,0,0c0.3-0.2,0.4-0.6,0.2-0.9c0,0,0,0,0,0c-7.2-11-19.5-17.7-32.7-17.7
	h-3.6v-4.6c-0.1-1.3-1.3-2.3-2.6-2.2H34l-1.5-6.6C32.4,6,32,5.7,31.7,5.8l-1.1,0.2l-0.7-3.2c-0.1-0.3-0.4-0.6-0.7-0.5c0,0,0,0,0,0
	L21.9,4c-0.3,0.1-0.6,0.4-0.5,0.7c0,0,0,0,0,0L22.1,8l-1.6,0.4c-0.3,0.1-0.6,0.4-0.5,0.7c0,0,0,0,0,0L21,13c-2,0.3-3.5,2-3.5,4v11.9
	c0,2.2,1.8,4,4,4h0h3.9v1.8h-12c-0.4,0-0.6,0.3-0.6,0.6v3.3c0,0.4,0.3,0.6,0.6,0.6V41c0,0.4,0.3,0.6,0.6,0.6h1v3.5
	c0,0.4,0.3,0.6,0.6,0.6h0.5v1.9h9.9v-1.9h0.5c0.4,0,0.6-0.3,0.6-0.6v-3.5h1.9v3.5c0,0.4,0.3,0.6,0.6,0.6h0.5v1.9H35v-1.9h0.5
	c0.4,0,0.6-0.3,0.6-0.6v-3.5h0.7c0.4,0,0.6-0.3,0.6-0.6v-1.8c0.3,0,0.6-0.3,0.6-0.6v-3.3c0-0.4-0.3-0.6-0.6-0.6h-0.6v-1.9H38
	c0.1,0.1,0.2,0.1,0.4,0.1H43c14.2,0,25.8,11.6,25.8,25.8c0,6.1-2.1,12-6.1,16.6C61.6,72.7,59,71,56.1,71h-0.3
	c-2.3,0.1-4.5,1.4-5.6,3.5H39.8v-2.8c0-0.3-0.3-0.6-0.6-0.6c0,0,0,0,0,0H11.7c-0.4,0-0.6,0.3-0.6,0.6v2.8h-0.7
	c-1.4,0-2.5,1.1-2.5,2.6c0,1.4,1.1,2.5,2.5,2.5h3.3v2.6c0,0.3,0.3,0.6,0.6,0.6c0,0,0,0,0,0H36c0,0.2,0.1,0.3,0.2,0.4l6.9,6.4
	l-3.4,7.2h-2.4v-2.6c0-0.3-0.3-0.6-0.6-0.6c0,0,0,0,0,0H33v-6c0-0.4-0.3-0.6-0.6-0.6H18.5c-0.4,0-0.6,0.3-0.6,0.6v6h-3.7
	c-0.4,0-0.6,0.3-0.6,0.6v2.6H3.2C1.4,96.8,0,98.2,0,100v9.3c0,1.8,1.4,3.2,3.2,3.2h67c1.8,0,3.2-1.4,3.2-3.2v-1.3c0-0.1,0-0.1,0-0.2
	L73.3,100z M36.2,40.4H14.7v-1.2h21.5V40.4z M34.8,44.5h-4.2v-2.8h1.1l3.1,2.4V44.5z M26.1,44.5h-9.7v-2.8h2.9l6.8,2.7V44.5z
	 M36.8,36v2H14.1v-2H36.8z M1.3,100c0-1,0.9-1.9,1.9-1.9h67c1,0,1.9,0.9,1.9,1.9v7.7H1.3V100z M14.8,94.8H36v2H14.8L14.8,94.8z
	 M19.1,88.2h12.6v5.3H19.1V88.2z M9.1,77c0-0.7,0.6-1.3,1.3-1.3h28.8l0,0h0.6l0,0h9.7l0,0l-0.3,0.6L48.9,77l-0.6,1.2h-38
	C9.7,78.3,9.1,77.7,9.1,77C9.1,77,9.1,77,9.1,77z M12.3,72.3h26.2v2.2H12.3V72.3z M51.2,75.1c0.9-1.7,2.7-2.8,4.6-2.9h0.3
	c2.6,0,4.9,1.7,5.6,4.2c0.1,0.2,0.1,0.5,0.2,0.8c0,0.3,0.1,0.6,0.1,0.8c0,0,0,0.1,0,0.1v18.7h-3.6l-0.1-0.1l-7.5-7.5v-0.2l-0.1,0.1
	l-0.5-0.4l-0.1-0.1l-0.3-0.3L49.6,88l-3-3l2.5-5.4l0.3-0.6l0.2-0.4l0.1-0.2l0.2-0.4l0.3-0.7l0.3-0.7l0.2-0.4l0,0l0.2-0.4
	C51.1,75.5,51.2,75.3,51.2,75.1z M14.9,79.6H36v2H14.9V79.6z M37.3,82.2v-2.6h10.5l-4.1,8.8l-6.4-5.9L37.3,82.2z M38.1,19.7v2.7
	c0,0.2,0.1,0.3,0.2,0.4c0.1,0.1,0.3,0.2,0.4,0.1H39c1.9,0,3.4,1.4,3.6,3.3c-0.2,1.9-1.7,3.3-3.6,3.3h-0.2c-0.2,0-0.3,0.1-0.4,0.2
	c-0.1,0.1-0.2,0.2-0.2,0.4v1.6H37V14c0.6,0,1.1,0.5,1.2,1.1L38.1,19.7z M18.8,16.9c0-1.4,1.1-2.6,2.5-2.7h11.6v17.3H21.5
	c-1.5,0-2.7-1.2-2.7-2.7l0,0L18.8,16.9z M22.8,5.1l3.7-0.8V7l-3.1,0.7L22.8,5.1z M23,9.1l0.6-0.1l2.8-0.6l2.9-0.7h0.2l0.6-0.1
	l0.6-0.1l0.5-0.1l1.3,5.7H22.3l-0.8-3.6l1-0.2L23,9.1z"/>
<rect x="6.6" y="104.1" class="st1" width="27.4" height="1.3"/>
<rect x="36.8" y="104.1" class="st1" width="5.2" height="1.3"/>
<path class="st1" d="M26.5,64.3v-3.4c0-0.4-0.3-0.6-0.6-0.6s-0.6,0.3-0.6,0.6v3.4c0,0.4,0.3,0.6,0.6,0.6S26.5,64.6,26.5,64.3z"/>
<path class="st1" d="M23.3,66.1c0.4,0,0.6-0.3,0.6-0.7c0-0.1-0.1-0.3-0.2-0.4l-1.9-1.9c-0.2-0.2-0.6-0.3-0.9,0c0,0,0,0,0,0
	c-0.2,0.2-0.2,0.6,0,0.9l1.9,1.8C23,66,23.1,66.1,23.3,66.1z"/>
<path class="st1" d="M28.9,65.9l1.8-1.9c0.3-0.3,0.3-0.7,0-0.9s-0.7-0.3-0.9,0L28,65c-0.2,0.3-0.2,0.7,0,0.9
	C28.3,66.1,28.7,66.1,28.9,65.9L28.9,65.9z"/>
</svg>
