<svg width="279" height="48" viewBox="0 0 279 48" fill="none" xmlns="http://www.w3.org/2000/svg">
<g id="logotipo" clip-path="url(#clip0_524_50)">
<path id="Vector" d="M43.1154 1.0498V47.9573" stroke="#00743F" stroke-width="0.5" stroke-miterlimit="10"/>
<path id="Vector_2" d="M70.979 25.1778C71.0734 25.1735 71.1671 25.1956 71.2498 25.2418C71.3217 25.2802 71.3598 25.421 71.3598 25.6685V27.0938C71.3598 28.3228 70.7506 28.9374 69.5321 28.9374H58.1557C57.7646 28.924 57.3741 28.9774 57.0007 29.0953C56.7465 29.1783 56.5129 29.315 56.3153 29.4964C56.0838 29.773 55.9098 30.0937 55.8034 30.4395C55.6152 30.9874 55.5629 31.5735 55.6511 32.1465C55.66 32.4181 55.7307 32.684 55.8576 32.9237C55.9845 33.1634 56.1642 33.3705 56.383 33.5291C56.8867 33.8199 57.434 34.026 58.0034 34.1393L66.2152 35.8463C68.3052 36.3072 69.8269 36.963 70.7802 37.8136C71.7335 38.6642 72.2102 39.9061 72.2102 41.5391C72.2405 42.3326 72.1031 43.1235 71.8069 43.8593C71.5107 44.5951 71.0627 45.2589 70.4925 45.8065C69.3474 46.9018 67.4703 47.4494 64.8614 47.4494H52.3426C52.2459 47.4506 52.1502 47.4287 52.0634 47.3854C51.9788 47.347 51.9323 47.219 51.9323 47.0014V45.8534C51.9323 44.522 52.5415 43.8605 53.7599 43.8605H66.0291C66.426 43.8733 66.8222 43.8185 67.201 43.6984C67.4539 43.6182 67.6854 43.481 67.8779 43.2972C68.0595 43.1052 68.2133 42.8883 68.3348 42.6529C68.5108 42.2584 68.5808 41.8243 68.5379 41.394C68.5319 41.1249 68.4519 40.8628 68.307 40.6368C68.1621 40.4107 67.9579 40.2297 67.7171 40.1137C67.1837 39.7955 66.6041 39.5637 65.9995 39.4267L57.538 37.724C53.5414 36.8307 51.543 34.8051 51.543 31.6472C51.5186 30.73 51.6873 29.818 52.038 28.9715C52.3831 28.1821 52.9009 27.4818 53.5526 26.9231C54.2586 26.3265 55.0756 25.8782 55.9557 25.6045C56.965 25.2983 58.0158 25.1543 59.0695 25.1778H70.979Z" fill="#00743F"/>
<path id="Vector_3" d="M73.6147 27.5036C73.6147 26.1636 74.2592 25.4937 75.5482 25.4937C76.8372 25.4937 77.476 26.1636 77.4647 27.5036C77.4647 28.7924 76.8259 29.4368 75.5482 29.4368C74.2705 29.4368 73.626 28.7924 73.6147 27.5036ZM74.207 47.3898C74.1617 47.3962 74.1155 47.3919 74.072 47.3772C74.0286 47.3625 73.9891 47.3379 73.9567 47.3052C73.9243 47.2725 73.8999 47.2327 73.8853 47.1889C73.8708 47.1451 73.8665 47.0985 73.8728 47.0527V33.7938C73.8728 32.8123 74.3608 32.3215 75.3367 32.3215H76.7963C76.8416 32.3151 76.8879 32.3195 76.9313 32.3342C76.9747 32.3488 77.0142 32.3735 77.0466 32.4062C77.079 32.4388 77.1034 32.4786 77.118 32.5225C77.1325 32.5663 77.1368 32.6129 77.1305 32.6587V47.0527C77.1368 47.0985 77.1325 47.1451 77.118 47.1889C77.1034 47.2327 77.079 47.2725 77.0466 47.3052C77.0142 47.3379 76.9747 47.3625 76.9313 47.3772C76.8879 47.3919 76.8416 47.3962 76.7963 47.3898H74.207Z" fill="#00743F"/>
<path id="Vector_4" d="M81.8689 47.3428H78.9793C78.7466 47.3428 78.6282 47.2063 78.6282 46.9161V27.0128C78.6282 25.8492 79.1514 25.266 80.1978 25.2632H81.8689C82.1312 25.2632 82.2624 25.404 82.2624 25.6899V46.9417C82.2624 47.2063 82.1312 47.3428 81.8689 47.3428Z" fill="#00743F"/>
<path id="Vector_5" d="M95.1915 32.4325C95.2312 32.2193 95.338 32.0247 95.4962 31.8777C95.7169 31.7465 95.9729 31.6883 96.2281 31.7113H98.4027C98.6565 31.7113 98.7834 31.8222 98.7834 32.0484C98.7827 32.1101 98.7756 32.1716 98.7623 32.2319C98.7304 32.331 98.6923 32.4279 98.6481 32.5221L93.1481 46.9929C93.1001 47.1205 93.0142 47.23 92.9021 47.3064C92.79 47.3828 92.6572 47.4224 92.522 47.4197H89.2093C89.1326 47.4264 89.0555 47.417 88.9826 47.392C88.9098 47.3671 88.8429 47.3271 88.7862 47.2746C88.6811 47.1683 88.6003 47.0401 88.5493 46.8991L83.2524 32.505C83.1952 32.3537 83.1651 32.1933 83.1636 32.0313C83.1636 31.8052 83.2863 31.6942 83.5443 31.6942H85.8543C86.4932 31.6942 86.8866 31.9332 87.0389 32.4154L91.0243 44.1978H91.0708L95.1915 32.4325Z" fill="#00743F"/>
<path id="Vector_6" d="M102.934 46.9118C102.17 46.7102 101.459 46.3416 100.852 45.8322C100.399 45.4406 100.066 44.927 99.8918 44.3514C99.7426 43.8166 99.6657 43.2639 99.6634 42.7084C99.6634 41.3898 100.086 40.4125 100.975 39.7767C101.863 39.1408 103.133 38.6586 104.838 38.3215L106.805 37.9972C107.359 37.9075 107.82 37.8222 108.184 37.7454C108.548 37.6686 108.844 37.6003 109.073 37.5405C109.266 37.4894 109.457 37.4267 109.644 37.3528C109.766 37.3124 109.876 37.242 109.965 37.1479C110.036 37.0177 110.067 36.8692 110.054 36.7212C110.084 36.4053 110.029 36.0871 109.897 35.7992C109.765 35.5113 109.559 35.264 109.301 35.0825C108.799 34.7639 107.905 34.6031 106.619 34.6003C105.346 34.5742 104.073 34.6441 102.811 34.8094C102.252 34.9156 101.687 34.9841 101.119 35.0142C100.937 35.0142 100.844 34.9075 100.844 34.6942L100.797 33.3457C100.769 33.1936 100.776 33.0369 100.82 32.8885C100.863 32.74 100.941 32.6042 101.047 32.4922C101.279 32.3086 101.555 32.1895 101.846 32.1465C102.312 32.0868 102.951 32.0228 103.755 31.963C104.558 31.9033 105.561 31.8691 106.746 31.8691C109.039 31.8691 110.711 32.2959 111.763 33.1494C112.815 34.0029 113.343 35.4253 113.346 37.4168V45.6401C113.356 45.8014 113.335 45.9633 113.282 46.116C113.229 46.2687 113.147 46.4091 113.039 46.5287C112.931 46.6483 112.8 46.7446 112.654 46.8119C112.509 46.8792 112.351 46.9161 112.191 46.9203C111.293 47.0847 110.386 47.193 109.474 47.2447C108.489 47.3044 107.499 47.3343 106.513 47.3343C105.306 47.3654 104.101 47.2231 102.934 46.9118V46.9118ZM110.054 39.9474L104.554 41.0057C103.491 41.2219 102.959 41.7909 102.959 42.7127C102.935 43.0484 103.022 43.3828 103.208 43.6626C103.393 43.9425 103.666 44.1519 103.983 44.2575C104.874 44.5483 105.809 44.6797 106.746 44.6458C107.363 44.6458 108.015 44.6159 108.654 44.5562C109.12 44.5186 109.585 44.4574 110.046 44.3727L110.054 39.9474Z" fill="#00743F"/>
<path id="Vector_7" d="M128.779 37.2162V47.0996C128.786 47.1494 128.782 47.2003 128.766 47.2481C128.75 47.2958 128.724 47.3393 128.688 47.3749C128.653 47.4105 128.61 47.4373 128.563 47.4532C128.515 47.4691 128.465 47.4737 128.415 47.4666H125.784C125.734 47.4736 125.684 47.4689 125.636 47.453C125.589 47.4371 125.546 47.4103 125.51 47.3748C125.474 47.3393 125.447 47.296 125.431 47.2483C125.415 47.2006 125.41 47.1497 125.416 47.0996V37.7539C125.416 36.5448 125.178 35.7411 124.701 35.3428C124.224 34.9445 123.308 34.7454 121.951 34.7454C120.914 34.7454 120.127 34.7454 119.59 34.8009C119.178 34.817 118.768 34.8756 118.367 34.9758C118.25 34.9923 118.143 35.0511 118.065 35.1413C117.987 35.2315 117.944 35.347 117.944 35.4666V47.0996C117.952 47.1484 117.948 47.1983 117.933 47.2454C117.919 47.2925 117.893 47.3355 117.859 47.3711C117.825 47.4066 117.783 47.4337 117.737 47.4503C117.691 47.4669 117.642 47.4724 117.593 47.4666H115.025C114.742 47.4666 114.602 47.3428 114.602 47.0996V33.6572C114.586 33.4931 114.604 33.3275 114.653 33.1704C114.703 33.0133 114.784 32.868 114.89 32.7432C114.997 32.6184 115.128 32.5166 115.275 32.4442C115.421 32.3717 115.581 32.33 115.744 32.3215C116.649 32.1185 117.567 31.976 118.49 31.8948C119.446 31.8151 120.661 31.7738 122.133 31.771C124.485 31.771 126.177 32.1977 127.21 33.0512C128.242 33.9047 128.765 35.293 128.779 37.2162Z" fill="#00743F"/>
<path id="Vector_8" d="M129.659 39.303C129.659 36.3983 130.408 34.4069 131.906 33.3286C133.527 32.2257 135.451 31.6658 137.406 31.7284C139.372 31.6684 141.308 32.2277 142.944 33.3286C144.464 34.4012 145.224 36.3927 145.224 39.303C145.231 40.3829 145.122 41.4604 144.898 42.5164C144.704 43.4584 144.282 44.3377 143.672 45.0769C143.023 45.8327 142.197 46.4123 141.268 46.7625C138.752 47.5819 136.043 47.5819 133.526 46.7625C132.607 46.4159 131.792 45.8352 131.161 45.0769C130.573 44.3285 130.168 43.4516 129.977 42.5164C129.754 41.4604 129.647 40.3827 129.659 39.303V39.303ZM141.814 39.303C141.814 37.6672 141.515 36.478 140.917 35.7355C140.317 34.9929 139.153 34.6217 137.418 34.6217C135.684 34.6217 134.504 34.9929 133.907 35.7355C133.31 36.478 133.006 37.6686 133.006 39.303C133.006 41.3912 133.346 42.7767 134.025 43.4595C134.705 44.1423 135.833 44.4851 137.41 44.488C138.984 44.488 140.112 44.1451 140.795 43.4595C141.477 42.7739 141.817 41.3884 141.814 39.303V39.303Z" fill="#00743F"/>
<path id="Vector_9" d="M173.744 25.1778C173.838 25.1735 173.932 25.1957 174.014 25.2418C174.086 25.2802 174.124 25.421 174.124 25.6686V27.0939C174.124 28.3229 173.515 28.9374 172.297 28.9374H160.92C160.529 28.924 160.139 28.9774 159.765 29.0953C159.514 29.1625 159.279 29.2817 159.076 29.4452C158.844 29.7219 158.67 30.0426 158.564 30.3883C158.376 30.9362 158.323 31.5223 158.411 32.0953C158.42 32.3669 158.491 32.6328 158.618 32.8725C158.745 33.1122 158.925 33.3194 159.143 33.4779C159.645 33.7871 160.194 34.0106 160.768 34.1394L168.98 35.8464C171.07 36.3072 172.591 36.963 173.545 37.8136C174.498 38.6643 174.975 39.9061 174.975 41.5391C175.005 42.3326 174.868 43.1236 174.571 43.8594C174.275 44.5952 173.827 45.2589 173.257 45.8065C172.112 46.9018 170.235 47.4495 167.626 47.4495H155.107C155.01 47.4507 154.915 47.4287 154.828 47.3855C154.739 47.3471 154.697 47.2191 154.697 47.0014V45.8535C154.697 44.522 155.306 43.8606 156.524 43.8606H168.794C169.19 43.873 169.587 43.8182 169.966 43.6984C170.218 43.6172 170.449 43.4801 170.642 43.2973C170.824 43.1052 170.978 42.8883 171.099 42.6529C171.269 42.2701 171.339 41.85 171.302 41.4324C171.305 41.1586 171.231 40.8896 171.089 40.6563C170.947 40.4231 170.742 40.235 170.499 40.1138C169.964 39.803 169.384 39.5784 168.781 39.4481L160.294 37.7411C156.295 36.8478 154.296 34.8222 154.299 31.6643C154.287 30.7444 154.468 29.8323 154.832 28.9886C155.177 28.1993 155.695 27.499 156.347 26.9402C157.043 26.341 157.849 25.887 158.72 25.6045C159.728 25.2988 160.778 25.1548 161.83 25.1778H173.744Z" fill="#00743F"/>
<path id="Vector_10" d="M179.506 46.9118C178.742 46.7102 178.031 46.3416 177.424 45.8322C176.971 45.4406 176.638 44.927 176.464 44.3514C176.312 43.8171 176.236 43.2641 176.235 42.7084C176.235 41.3883 176.673 40.4111 177.547 39.7767C178.421 39.1423 179.709 38.6572 181.41 38.3215L183.377 37.9972C183.931 37.9075 184.388 37.8222 184.756 37.7454C185.124 37.6686 185.416 37.6003 185.645 37.5405C185.839 37.4894 186.029 37.4267 186.216 37.3528C186.337 37.3136 186.447 37.243 186.533 37.1479C186.608 37.019 186.64 36.8698 186.626 36.7212C186.655 36.4054 186.6 36.0875 186.468 35.7997C186.336 35.512 186.131 35.2646 185.873 35.0825C185.37 34.7625 184.477 34.6003 183.187 34.6003C181.914 34.5745 180.641 34.6444 179.379 34.8094C178.82 34.9158 178.255 34.9843 177.687 35.0142C177.505 35.0142 177.416 34.9075 177.416 34.6942L177.369 33.3457C177.34 33.1936 177.347 33.0366 177.39 32.888C177.434 32.7394 177.512 32.6036 177.619 32.4922C177.851 32.3086 178.127 32.1895 178.419 32.1465C178.884 32.0868 179.523 32.0228 180.327 31.963C181.13 31.9033 182.129 31.8691 183.318 31.8691C185.608 31.8691 187.281 32.2959 188.335 33.1494C189.39 34.0029 189.918 35.4253 189.918 37.4168V45.6401C189.929 45.8014 189.907 45.9633 189.854 46.116C189.802 46.2687 189.719 46.4091 189.611 46.5287C189.503 46.6483 189.372 46.7446 189.226 46.8119C189.081 46.8792 188.923 46.9161 188.763 46.9203C187.865 47.0847 186.958 47.193 186.047 47.2447C185.057 47.3044 184.069 47.3343 183.085 47.3343C181.878 47.3659 180.673 47.2236 179.506 46.9118V46.9118ZM186.626 39.9474L181.126 41.0057C180.06 41.2233 179.531 41.7909 179.531 42.7127C179.506 43.0485 179.593 43.3832 179.779 43.6633C179.964 43.9433 180.238 44.1525 180.555 44.2575C181.446 44.5483 182.381 44.6797 183.318 44.6458C183.935 44.6458 184.587 44.6159 185.226 44.5562C185.693 44.5186 186.157 44.4574 186.618 44.3727L186.626 39.9474Z" fill="#00743F"/>
<path id="Vector_11" d="M194.322 47.3257H191.75C191.517 47.3257 191.403 47.1934 191.403 46.9288V37.3997C191.403 35.4793 191.896 34.0867 192.883 33.2219C193.871 32.357 195.339 31.9302 197.288 31.9416C197.745 31.9416 198.201 31.9416 198.667 31.9843C199.132 32.027 199.538 32.0568 199.902 32.1081C200.028 32.1113 200.151 32.1399 200.266 32.1922C200.38 32.2445 200.483 32.3194 200.568 32.4125C200.654 32.5056 200.719 32.615 200.762 32.7343C200.804 32.8535 200.823 32.9801 200.816 33.1066L200.769 34.532C200.769 34.7496 200.655 34.8563 200.423 34.8563C200.19 34.8563 199.708 34.8563 199.073 34.8563C198.438 34.8563 197.804 34.8563 197.182 34.8563C196.531 34.8092 195.883 34.9754 195.333 35.33C195.111 35.5334 194.94 35.7865 194.834 36.069C194.727 36.3515 194.688 36.6553 194.72 36.9559V46.9416C194.725 46.9948 194.717 47.0484 194.699 47.0985C194.681 47.1485 194.651 47.1937 194.613 47.2307C194.575 47.2676 194.529 47.2954 194.478 47.3118C194.428 47.3283 194.374 47.333 194.322 47.3257V47.3257Z" fill="#00743F"/>
<path id="Vector_12" d="M222.782 37.1565V47.0526C222.782 47.2788 222.647 47.3897 222.359 47.3897H219.82C219.545 47.3897 219.397 47.2788 219.397 47.0526V37.6643C219.397 36.5576 219.191 35.7952 218.78 35.3769C218.368 34.9587 217.646 34.7439 216.614 34.7326C215.84 34.7204 215.068 34.8079 214.316 34.9929C214.092 35.0441 213.982 35.2063 213.982 35.4836V47.0526C213.982 47.2788 213.842 47.3897 213.559 47.3897H210.902C210.857 47.3961 210.81 47.3918 210.767 47.3771C210.724 47.3624 210.684 47.3378 210.652 47.3051C210.619 47.2724 210.595 47.2326 210.58 47.1888C210.566 47.145 210.562 47.0984 210.568 47.0526V37.3229C210.568 36.3727 210.39 35.7027 210.035 35.3129C209.679 34.9232 208.869 34.7297 207.602 34.7326C206.853 34.7 206.103 34.7879 205.381 34.9929C205.098 34.9929 204.958 35.155 204.958 35.4836V47.0526C204.958 47.2788 204.823 47.3897 204.535 47.3897H201.996C201.721 47.3897 201.573 47.2788 201.573 47.0526V33.6572C201.558 33.3272 201.669 33.004 201.885 32.7551C202.1 32.5062 202.402 32.3508 202.728 32.3215C203.549 32.1593 204.421 32.0228 205.267 31.8947C206.25 31.7782 207.239 31.7226 208.228 31.7283C208.951 31.7235 209.673 31.7921 210.382 31.9331C210.954 32.0393 211.509 32.223 212.032 32.4794C212.582 32.3129 213.237 32.1465 214.012 31.9801C214.827 31.8061 215.658 31.7217 216.491 31.7283C220.685 31.7368 222.782 33.5462 222.782 37.1565Z" fill="#00743F"/>
<path id="Vector_13" d="M228.417 43.9203C229.111 44.2703 230.179 44.4452 231.62 44.4452C232.107 44.4452 232.614 44.4452 233.147 44.4025C233.68 44.3599 234.188 44.3471 234.67 44.3044L235.91 44.2062C236.253 44.1806 236.481 44.1678 236.591 44.1678C236.828 44.1678 236.942 44.3001 236.942 44.5647L236.989 45.9474C237.016 46.1047 237.007 46.2662 236.962 46.4194C236.917 46.5725 236.838 46.7133 236.731 46.8307C236.491 47.0332 236.196 47.1582 235.885 47.1892C235.377 47.2489 234.721 47.2959 233.921 47.3215C233.122 47.3471 232.204 47.3599 231.167 47.3599C229.89 47.3971 228.617 47.2049 227.406 46.7923C226.502 46.4716 225.695 45.922 225.062 45.1963C224.47 44.4714 224.058 43.6139 223.861 42.6956C223.621 41.6029 223.506 40.4861 223.518 39.367C223.487 38.1074 223.657 36.8508 224.022 35.6458C224.299 34.7382 224.801 33.917 225.481 33.2603C226.139 32.6542 226.935 32.2229 227.8 32.0057C228.841 31.7495 229.91 31.6276 230.981 31.6429C232.143 31.6223 233.302 31.7659 234.425 32.0697C235.202 32.2754 235.931 32.6336 236.57 33.1237C237.054 33.4953 237.427 33.9944 237.649 34.5661C237.845 35.0841 237.946 35.6334 237.949 36.1878C237.961 36.803 237.865 37.4155 237.666 37.9971C237.482 38.4949 237.172 38.936 236.769 39.2774C236.303 39.6539 235.775 39.943 235.208 40.1309C234.47 40.385 233.713 40.579 232.944 40.7112L227.055 41.7738C227.271 42.862 227.724 43.5747 228.417 43.9203ZM231.62 38.4068C232.157 38.3261 232.688 38.2034 233.207 38.0398C233.525 37.9437 233.824 37.792 234.091 37.5917C234.276 37.4502 234.41 37.2506 234.472 37.0242C234.531 36.7741 234.56 36.5175 234.556 36.2603C234.574 35.9764 234.512 35.6932 234.377 35.4434C234.242 35.1935 234.04 34.987 233.795 34.8478C233.287 34.5491 232.432 34.421 231.222 34.421C230.497 34.4034 229.772 34.478 229.065 34.6429C228.568 34.7467 228.114 34.998 227.76 35.3646C227.406 35.7312 227.17 36.1963 227.08 36.6998C226.951 37.3717 226.891 38.0553 226.903 38.7397V39.2603L231.62 38.4068Z" fill="#00743F"/>
<path id="Vector_14" d="M252.998 37.2162V47.0996C253.004 47.1497 252.999 47.2006 252.983 47.2483C252.966 47.296 252.939 47.3393 252.904 47.3748C252.868 47.4103 252.825 47.4371 252.777 47.453C252.73 47.4689 252.679 47.4736 252.63 47.4666H249.998C249.949 47.4737 249.899 47.4691 249.851 47.4532C249.804 47.4373 249.761 47.4105 249.725 47.3749C249.69 47.3393 249.664 47.2958 249.648 47.2481C249.632 47.2003 249.627 47.1494 249.635 47.0996V37.7539C249.635 36.5448 249.396 35.7411 248.92 35.3428C248.443 34.9445 247.525 34.7454 246.165 34.7454C245.133 34.7454 244.346 34.7454 243.809 34.8009C243.396 34.8166 242.987 34.8753 242.586 34.9758C242.469 34.9923 242.361 35.0511 242.283 35.1413C242.206 35.2315 242.163 35.347 242.163 35.4666V47.0996C242.171 47.1484 242.167 47.1983 242.152 47.2454C242.137 47.2925 242.112 47.3355 242.078 47.3711C242.044 47.4066 242.002 47.4337 241.956 47.4503C241.91 47.4669 241.86 47.4724 241.812 47.4666H239.24C238.956 47.4666 238.816 47.3428 238.816 47.0996V33.6572C238.801 33.4935 238.818 33.3282 238.867 33.1714C238.917 33.0146 238.997 32.8694 239.103 32.7446C239.21 32.6199 239.34 32.5181 239.486 32.4454C239.632 32.3727 239.792 32.3305 239.955 32.3215C240.86 32.1191 241.777 31.9766 242.7 31.8948C243.659 31.8151 244.875 31.7738 246.347 31.771C248.7 31.771 250.392 32.1977 251.424 33.0512C252.456 33.9047 252.981 35.293 252.998 37.2162Z" fill="#00743F"/>
<path id="Vector_15" d="M257.356 42.3883C257.301 42.9811 257.451 43.5746 257.779 44.0697C258.061 44.3997 258.754 44.5647 259.86 44.5647C260.228 44.5647 260.655 44.5647 261.129 44.522C261.603 44.4794 262.018 44.4751 262.322 44.4751C262.525 44.4751 262.627 44.5818 262.627 44.7951V46.2845C262.654 46.5357 262.584 46.7877 262.432 46.9886C262.229 47.157 261.988 47.2727 261.73 47.3257C261.364 47.3875 260.993 47.4189 260.622 47.4196H259.352C257.378 47.4196 255.979 47.0128 255.156 46.1991C254.335 45.3883 253.924 44.1038 253.924 42.3584V28.9032C253.913 28.6884 253.945 28.4734 254.018 28.2711C254.09 28.0688 254.202 27.8832 254.347 27.7254C254.488 27.5844 254.655 27.4738 254.839 27.4004C255.023 27.3271 255.22 27.2924 255.418 27.2987H257C257.237 27.2987 257.351 27.4224 257.351 27.67V31.8264H261.701C261.75 31.8186 261.801 31.8226 261.849 31.8382C261.897 31.8537 261.941 31.8805 261.976 31.9162C262.012 31.9519 262.039 31.9956 262.055 32.0437C262.071 32.0919 262.076 32.1432 262.069 32.1934V34.1436C262.069 34.3784 261.946 34.4936 261.701 34.4936H257.715C257.474 34.4936 257.351 34.6344 257.351 34.9203L257.356 42.3883Z" fill="#00743F"/>
<path id="Vector_16" d="M263.427 39.303C263.427 36.3983 264.174 34.4069 265.669 33.3286C267.29 32.2257 269.214 31.6658 271.169 31.7284C273.135 31.6684 275.071 32.2277 276.707 33.3286C278.224 34.4012 278.985 36.3927 278.987 39.303C278.995 40.3829 278.885 41.4604 278.662 42.5164C278.467 43.4584 278.045 44.3377 277.435 45.0769C276.786 45.8327 275.96 46.4123 275.032 46.7625C272.515 47.5819 269.806 47.5819 267.289 46.7625C266.37 46.4159 265.555 45.8352 264.924 45.0769C264.336 44.3285 263.931 43.4516 263.74 42.5164C263.518 41.4602 263.413 40.3825 263.427 39.303ZM275.577 39.303C275.577 37.6686 275.281 36.478 274.68 35.7355C274.08 34.9929 272.916 34.6217 271.182 34.6217C269.447 34.6217 268.267 34.9929 267.67 35.7355C267.074 36.478 266.773 37.6686 266.773 39.303C266.773 41.3912 267.112 42.7767 267.789 43.4595C268.465 44.1423 269.594 44.4851 271.173 44.488C272.747 44.488 273.875 44.1451 274.558 43.4595C275.24 42.7739 275.58 41.3884 275.577 39.303Z" fill="#00743F"/>
<path id="Vector_17" d="M62.0649 17.3941C62.0649 17.6458 61.9506 17.7696 61.718 17.7696H52.3638C52.2318 17.7884 52.0973 17.7737 51.9725 17.7267C51.8476 17.6798 51.7363 17.6021 51.6488 17.5007C51.5577 17.3297 51.5222 17.1342 51.5473 16.9417L51.5219 1.42962C51.5162 1.3853 51.5208 1.34026 51.5352 1.29802C51.5497 1.25577 51.5736 1.21746 51.6051 1.18607C51.6367 1.15468 51.6749 1.13106 51.717 1.11705C51.7591 1.10304 51.8038 1.09902 51.8477 1.1053H53.6415C54.3269 1.1053 54.6695 1.41255 54.6695 2.03133V15.175H61.0156C61.7222 15.175 62.0776 15.6017 62.0776 16.4211L62.0649 17.3941Z" fill="#00743F"/>
<path id="Vector_18" d="M65.661 17.4068C65.0809 17.2528 64.541 16.9732 64.0787 16.5875C63.7358 16.2912 63.4846 15.9016 63.3553 15.4652C63.2412 15.0612 63.1828 14.6434 63.1818 14.2233C63.1514 13.7997 63.2259 13.375 63.3988 12.9876C63.5716 12.6002 63.8372 12.2623 64.1718 12.0043C65.0602 11.4332 66.0576 11.0567 67.0995 10.899L68.5929 10.6558C69.016 10.5875 69.3587 10.5235 69.6337 10.4637C69.9087 10.404 70.1329 10.3528 70.3064 10.3058C70.4499 10.2687 70.5912 10.2231 70.7294 10.1693C70.8226 10.1373 70.9068 10.0831 70.9748 10.0114C71.0305 9.91001 71.0542 9.79385 71.0425 9.67853C71.0642 9.43975 71.0228 9.19943 70.9224 8.98204C70.8221 8.76466 70.6665 8.57797 70.4714 8.44098C70.0906 8.19773 69.4137 8.07825 68.4406 8.07825C67.4792 8.05856 66.5177 8.1099 65.5637 8.23187C65.1448 8.31408 64.7207 8.36683 64.2945 8.38977C64.1591 8.38977 64.0872 8.30869 64.0872 8.14653L64.0533 7.12234C64.0319 7.0074 64.038 6.88896 64.0711 6.77687C64.1042 6.66478 64.1634 6.5623 64.2437 6.47796C64.4192 6.33908 64.6279 6.24929 64.8487 6.21765C65.2041 6.17213 65.6864 6.12519 66.2956 6.07682C66.9048 6.02988 67.6622 6.00854 68.5591 6.00854C70.2937 6.00854 71.5629 6.3286 72.3667 6.96872C73.1621 7.60456 73.564 8.67569 73.564 10.2034V16.4339C73.572 16.5562 73.5555 16.679 73.5155 16.7948C73.4754 16.9106 73.4127 17.0171 73.3309 17.1079C73.2492 17.1987 73.1502 17.272 73.0398 17.3233C72.9293 17.3747 72.8098 17.4031 72.6883 17.4068C72.0083 17.529 71.3217 17.6102 70.6321 17.6501C69.8833 17.697 69.1344 17.7226 68.3898 17.7226C67.4699 17.7498 66.5509 17.6434 65.661 17.4068ZM71.051 12.1323L66.8922 12.9346C66.0841 13.0967 65.6822 13.5277 65.6822 14.2148C65.6632 14.4695 65.7297 14.7233 65.8708 14.9353C66.012 15.1473 66.2197 15.3054 66.4606 15.3841C67.135 15.6043 67.8423 15.7039 68.5506 15.6785C69.0202 15.6785 69.5025 15.6785 69.9975 15.6103C70.351 15.583 70.7027 15.536 71.051 15.4694V12.1323Z" fill="#00743F"/>
<path id="Vector_19" d="M83.667 7.07539C84.8629 8.03129 85.4608 9.56899 85.4608 11.6885C85.4608 13.7596 85.0928 15.2432 84.3566 16.1394C83.5105 17.2034 81.9084 17.734 79.5505 17.7311C78.9201 17.7311 78.2813 17.7055 77.5832 17.6501C76.8403 17.5893 76.1015 17.4853 75.3705 17.3385C75.1337 17.3221 74.9127 17.2129 74.7546 17.0343C74.5965 16.8557 74.5139 16.6218 74.5244 16.3826V2.23186C74.5244 1.43385 74.8925 1.03272 75.6286 1.03272H76.7328C76.7763 1.02756 76.8204 1.03263 76.8616 1.04753C76.9028 1.06242 76.94 1.08673 76.9703 1.11856C77.0006 1.15039 77.0232 1.18887 77.0364 1.23098C77.0495 1.2731 77.0527 1.31771 77.0459 1.36131V6.12375C77.3842 6.06005 77.7262 6.01871 78.0697 6C78.4928 5.97439 79.0174 5.96159 79.6478 5.96159C81.5488 5.97013 82.8885 6.34139 83.667 7.07539ZM77.0417 8.83357V15.3627C77.3805 15.4211 77.7223 15.4595 78.0655 15.4779C78.4322 15.5036 78.8553 15.5164 79.3347 15.5164C80.8099 15.5164 81.7589 15.3073 82.182 14.889C82.701 14.4054 82.9619 13.3428 82.9647 11.7013C82.9647 10.4893 82.7532 9.61024 82.3301 9.07681C81.8534 8.43101 80.9043 8.10811 79.4828 8.10811C78.3772 8.10811 77.6721 8.18919 77.3674 8.35135C77.2626 8.37498 77.1706 8.43797 77.1101 8.52752C77.0496 8.61708 77.0251 8.72649 77.0417 8.83357V8.83357Z" fill="#00743F"/>
<path id="Vector_20" d="M86.1674 11.6458C86.1674 9.44377 86.7315 7.93879 87.8597 7.13083C89.0895 6.29105 90.5511 5.86533 92.0354 5.91461C93.5258 5.86923 94.9931 6.29442 96.2323 7.13083C97.3831 7.93879 97.9585 9.44377 97.9585 11.6458C97.9709 12.464 97.8943 13.2811 97.73 14.0825C97.5781 14.7941 97.2588 15.4586 96.7992 16.0199C96.3066 16.5913 95.6817 17.031 94.98 17.3001C93.0738 17.9204 91.0224 17.9204 89.1162 17.3001C88.4201 17.0363 87.8036 16.5953 87.3266 16.0199C86.8765 15.4547 86.5636 14.7913 86.4128 14.0825C86.2428 13.2817 86.1605 12.4646 86.1674 11.6458V11.6458ZM95.3692 11.6458C95.3692 10.4025 95.1436 9.50067 94.6923 8.94021C94.2411 8.37976 93.3568 8.09526 92.0397 8.08673C90.7197 8.08673 89.8326 8.37122 89.3785 8.94021C88.9244 9.5092 88.6988 10.4111 88.7016 11.6458C88.7016 13.2247 88.9554 14.2745 89.4716 14.7951C89.9877 15.3157 90.8424 15.5718 92.0397 15.5718C93.237 15.5718 94.0831 15.3115 94.5781 14.7951C95.0731 14.2788 95.3692 13.229 95.3692 11.6458Z" fill="#00743F"/>
<path id="Vector_21" d="M101.085 17.7226H99.1388C98.9611 17.7226 98.8723 17.6201 98.8723 17.4196V10.2034C98.8723 8.74816 99.2488 7.68984 99.9976 7.03693C100.746 6.38401 101.855 6.05542 103.331 6.05542C103.678 6.05542 104.025 6.05542 104.376 6.08956C104.728 6.1237 105.036 6.14504 105.311 6.18344C105.407 6.18559 105.5 6.20701 105.587 6.24643C105.674 6.28585 105.752 6.34247 105.817 6.41293C105.882 6.48338 105.932 6.56623 105.964 6.65657C105.996 6.7469 106.01 6.84287 106.005 6.93878L105.971 8.01844C105.971 8.1806 105.883 8.26168 105.705 8.26168H104.685H103.251C102.758 8.22646 102.267 8.35214 101.851 8.62014C101.683 8.77481 101.554 8.96691 101.473 9.18107C101.392 9.39522 101.362 9.62549 101.385 9.85343V17.4196C101.391 17.4607 101.387 17.5026 101.374 17.5419C101.361 17.5812 101.339 17.617 101.31 17.6463C101.281 17.6757 101.245 17.6978 101.206 17.7111C101.167 17.7243 101.126 17.7282 101.085 17.7226V17.7226Z" fill="#00743F"/>
<path id="Vector_22" d="M109.047 17.4068C108.465 17.2549 107.923 16.9751 107.461 16.5875C107.117 16.2914 106.864 15.9019 106.733 15.4652C106.619 15.0612 106.56 14.6434 106.56 14.2233C106.53 13.7993 106.605 13.3744 106.778 12.987C106.952 12.5995 107.218 12.2618 107.554 12.0043C108.441 11.4332 109.437 11.0567 110.477 10.899L111.971 10.6558C112.391 10.5875 112.738 10.5235 113.011 10.4637C113.291 10.4083 113.515 10.3528 113.688 10.3058C113.831 10.2674 113.973 10.2219 114.111 10.1693C114.203 10.1364 114.285 10.0823 114.353 10.0114C114.408 9.91001 114.432 9.79385 114.42 9.67853C114.442 9.43975 114.4 9.19943 114.3 8.98204C114.2 8.76466 114.044 8.57797 113.849 8.44098C113.473 8.19773 112.791 8.07825 111.818 8.07825C110.857 8.05856 109.895 8.1099 108.941 8.23187C108.522 8.31397 108.098 8.36673 107.672 8.38977C107.533 8.38977 107.465 8.30869 107.465 8.14653L107.431 7.12234C107.408 7.00743 107.413 6.88849 107.446 6.77608C107.479 6.66367 107.54 6.56127 107.621 6.47796C107.796 6.33976 108.003 6.25001 108.222 6.21765C108.578 6.17213 109.06 6.12519 109.669 6.07682C110.283 6.02988 111.036 6.00854 111.933 6.00854C113.671 6.00854 114.936 6.3286 115.74 6.96872C116.544 7.60883 116.938 8.67569 116.938 10.2034V16.4339C116.946 16.5562 116.929 16.679 116.889 16.7948C116.849 16.9106 116.786 17.0171 116.704 17.1079C116.623 17.1987 116.524 17.272 116.413 17.3233C116.303 17.3747 116.183 17.4031 116.062 17.4068C115.382 17.529 114.695 17.6102 114.006 17.6501C113.257 17.697 112.512 17.7226 111.763 17.7226C110.848 17.7483 109.933 17.6419 109.047 17.4068V17.4068ZM114.437 12.1323L110.278 12.9346C109.47 13.0967 109.068 13.5277 109.068 14.2148C109.05 14.4694 109.117 14.7228 109.258 14.9347C109.399 15.1465 109.606 15.3047 109.847 15.3841C110.521 15.6039 111.228 15.7036 111.937 15.6785C112.406 15.6785 112.889 15.6785 113.384 15.6103C113.737 15.583 114.089 15.536 114.437 15.4694V12.1323Z" fill="#00743F"/>
<path id="Vector_23" d="M120.428 13.98C120.386 14.4314 120.499 14.8835 120.749 15.2603C120.965 15.512 121.494 15.6401 122.332 15.6401C122.607 15.6401 122.932 15.6401 123.305 15.6017C123.677 15.5633 123.977 15.5675 124.206 15.5675C124.362 15.5675 124.439 15.6486 124.439 15.815V16.9416C124.458 17.1326 124.403 17.3238 124.286 17.4751C124.134 17.6032 123.952 17.6911 123.757 17.7311C123.478 17.7765 123.195 17.7994 122.911 17.7994H121.955C120.457 17.7994 119.398 17.4921 118.778 16.8776C118.156 16.2588 117.843 15.2901 117.843 13.963V3.76383C117.832 3.60281 117.853 3.4412 117.905 3.28868C117.958 3.13616 118.04 2.99586 118.147 2.8762C118.255 2.76984 118.383 2.68691 118.523 2.63258C118.664 2.57825 118.814 2.55369 118.964 2.56041H120.153C120.326 2.56041 120.415 2.6543 120.415 2.83779V5.98715H123.711C123.748 5.98135 123.787 5.98452 123.823 5.99641C123.859 6.00829 123.891 6.02856 123.918 6.05557C123.945 6.08259 123.965 6.11558 123.977 6.15188C123.989 6.18819 123.992 6.22678 123.986 6.26454V7.74107C123.986 7.9203 123.897 8.00991 123.711 8.00991H120.694C120.508 8.00991 120.415 8.11233 120.415 8.32144L120.428 13.98Z" fill="#00743F"/>
<path id="Vector_24" d="M125.027 11.6458C125.027 9.44381 125.591 7.93883 126.719 7.13087C127.949 6.2911 129.41 5.86537 130.895 5.91465C132.385 5.86927 133.852 6.29446 135.092 7.13087C136.242 7.93883 136.818 9.44381 136.818 11.6458C136.824 12.4632 136.742 13.2789 136.572 14.0782C136.422 14.7905 136.103 15.4554 135.642 16.0156C135.149 16.587 134.524 17.0268 133.822 17.2959C131.916 17.9162 129.865 17.9162 127.959 17.2959C127.262 17.0321 126.646 16.5911 126.169 16.0156C125.725 15.4501 125.418 14.7883 125.272 14.0825C125.102 13.2818 125.02 12.4647 125.027 11.6458V11.6458ZM134.228 11.6458C134.228 10.4026 134.003 9.50071 133.552 8.94026C133.1 8.3798 132.216 8.09531 130.899 8.08677C129.579 8.08677 128.692 8.37127 128.238 8.94026C127.784 9.50925 127.558 10.4111 127.561 11.6458C127.561 13.2248 127.818 14.2745 128.331 14.7952C128.844 15.3158 129.7 15.5747 130.899 15.5718C132.092 15.5718 132.942 15.3115 133.458 14.7952C133.975 14.2788 134.228 13.229 134.228 11.6458ZM134.317 2.45377C134.041 2.83587 133.682 3.14961 133.268 3.37127L132.392 3.9175C131.681 4.29495 130.909 4.54203 130.112 4.64723C129.715 4.49276 129.36 4.24562 129.075 3.92603L133.653 0C133.992 0.107891 134.297 0.303598 134.537 0.567568C134.635 0.831871 134.675 1.11413 134.656 1.39545C134.65 1.77438 134.532 2.14296 134.317 2.45377V2.45377Z" fill="#00743F"/>
<path id="Vector_25" d="M139.944 17.7226H137.998C137.82 17.7226 137.732 17.6201 137.732 17.4196V10.2034C137.732 8.74816 138.108 7.68984 138.857 7.03693C139.606 6.38401 140.714 6.05542 142.191 6.05542C142.538 6.05542 142.885 6.05542 143.232 6.08956C143.578 6.1237 143.896 6.14504 144.171 6.18344C144.266 6.18559 144.36 6.20701 144.447 6.24643C144.533 6.28585 144.612 6.34247 144.676 6.41293C144.741 6.48338 144.791 6.56623 144.823 6.65657C144.856 6.7469 144.87 6.84287 144.865 6.93878L144.831 8.01844C144.831 8.1806 144.742 8.26168 144.564 8.26168H143.545H142.11C141.618 8.22646 141.127 8.35214 140.71 8.62014C140.542 8.77481 140.413 8.96691 140.332 9.18107C140.251 9.39522 140.221 9.62549 140.245 9.85343V17.4196C140.25 17.4607 140.246 17.5026 140.233 17.5419C140.22 17.5812 140.198 17.617 140.169 17.6463C140.14 17.6757 140.105 17.6978 140.066 17.7111C140.027 17.7243 139.985 17.7282 139.944 17.7226V17.7226Z" fill="#00743F"/>
<path id="Vector_26" d="M145.537 2.7056C145.537 1.69423 146.028 1.1864 147.001 1.1864C147.974 1.1864 148.456 1.70703 148.456 2.7056C148.456 3.70418 147.974 4.1736 147.005 4.1736C146.037 4.1736 145.537 3.68285 145.537 2.7056ZM145.99 17.7696C145.955 17.7746 145.92 17.7714 145.887 17.7603C145.854 17.7492 145.824 17.7305 145.8 17.7057C145.775 17.6808 145.756 17.6505 145.745 17.6172C145.734 17.5838 145.731 17.5484 145.736 17.5136V7.47232C145.715 7.32107 145.729 7.16694 145.777 7.02208C145.825 6.87722 145.906 6.74559 146.013 6.63758C146.12 6.52958 146.25 6.44815 146.394 6.39972C146.538 6.35129 146.69 6.33719 146.84 6.35852H147.949C147.983 6.35274 148.018 6.35523 148.051 6.36577C148.084 6.37631 148.115 6.39461 148.139 6.41916C148.164 6.44372 148.183 6.47384 148.194 6.50706C148.205 6.54028 148.208 6.57566 148.203 6.6103V17.4965C148.208 17.5313 148.204 17.5668 148.193 17.6001C148.182 17.6335 148.164 17.6638 148.139 17.6886C148.115 17.7135 148.085 17.7322 148.051 17.7433C148.018 17.7544 147.983 17.7575 147.949 17.7525L145.99 17.7696Z" fill="#00743F"/>
<path id="Vector_27" d="M149.345 11.6458C149.345 9.44382 149.909 7.93884 151.037 7.13088C152.266 6.29003 153.729 5.8642 155.213 5.91466C156.702 5.86989 158.168 6.29507 159.406 7.13088C160.556 7.93884 161.132 9.44382 161.132 11.6458C161.138 12.4632 161.056 13.2789 160.886 14.0782C160.738 14.7902 160.42 15.4551 159.96 16.0157C159.465 16.5862 158.839 17.0257 158.136 17.2959C156.23 17.9162 154.179 17.9162 152.273 17.2959C151.576 17.0321 150.96 16.5911 150.483 16.0157C150.046 15.4485 149.744 14.7868 149.603 14.0825C149.429 13.2823 149.342 12.4651 149.345 11.6458V11.6458ZM158.551 11.6458C158.551 10.4026 158.324 9.50072 157.87 8.94027C157.416 8.37981 156.533 8.09532 155.221 8.08678C153.897 8.08678 153.013 8.36843 152.56 8.94027C152.108 9.5121 151.883 10.404 151.883 11.6458C151.883 13.2248 152.14 14.2745 152.653 14.7952C153.169 15.3115 154.024 15.5718 155.226 15.5718C156.427 15.5718 157.269 15.3115 157.764 14.7952C158.259 14.2788 158.564 13.229 158.564 11.6458H158.551Z" fill="#00743F"/>
<path id="Vector_28" d="M23.7386 34.9929H23.7852C23.9453 34.9909 24.104 34.9621 24.2548 34.9076C24.4721 34.8314 24.6695 34.7067 24.8322 34.5426C24.9948 34.3785 25.1185 34.1794 25.194 33.9602C25.2481 33.8081 25.2767 33.648 25.2786 33.4865C25.2807 33.4709 25.2807 33.4551 25.2786 33.4396C25.2795 33.1311 25.1895 32.8294 25.0201 32.5726C24.8508 32.3158 24.6096 32.1155 24.3273 31.9971C24.045 31.8786 23.7341 31.8474 23.4342 31.9074C23.1342 31.9674 22.8587 32.1158 22.6425 32.3339C22.4263 32.552 22.2791 32.8299 22.2197 33.1325C22.1602 33.435 22.1911 33.7485 22.3085 34.0333C22.4259 34.3181 22.6245 34.5613 22.8791 34.7322C23.1337 34.903 23.4329 34.9937 23.7386 34.9929Z" fill="#00743F"/>
<path id="Vector_29" d="M9.73068 7.72828V7.21192V6.80225H9.45145H9.18915V6.87053V10.6429H9.73068V7.72828Z" fill="#00743F"/>
<path id="Vector_30" d="M9.73068 11.6543H9.18915V12.3883H9.73068V11.6543Z" fill="#00743F"/>
<path id="Vector_31" d="M31.0324 42.6743C31.0313 42.3125 30.8883 41.9658 30.6347 41.7099C30.381 41.4541 30.0373 41.3098 29.6786 41.3087H26.7763V39.9645L29.8648 36.8493C32.3761 34.3197 34.012 31.0408 34.5295 27.4992C35.047 23.9576 34.4185 20.342 32.7374 17.1892C32.7206 17.1575 32.6976 17.1294 32.67 17.1066C32.6423 17.0839 32.6105 17.0668 32.5763 17.0565C32.5421 17.0462 32.5062 17.0428 32.4707 17.0465C32.4351 17.0503 32.4007 17.0611 32.3693 17.0783V17.0783C32.3384 17.0952 32.311 17.1182 32.2889 17.1459C32.2668 17.1736 32.2504 17.2054 32.2406 17.2395C32.2307 17.2736 32.2277 17.3094 32.2316 17.3447C32.2356 17.38 32.2464 17.4142 32.2636 17.4453C33.8891 20.4939 34.4969 23.9899 33.997 27.4145C33.4971 30.8392 31.9159 34.01 29.4882 36.4566L26.7805 39.1878V33.35C26.7817 33.1608 26.7633 32.972 26.7255 32.7867C28.2041 31.1243 29.1736 29.0655 29.5168 26.8592C29.8601 24.6529 29.5624 22.3935 28.6598 20.3542C27.7573 18.3149 26.2884 16.5829 24.4307 15.3677C22.5731 14.1525 20.4063 13.506 18.1922 13.5064H16.6733V13.0797C17.731 12.9474 18.5518 12.1665 18.5518 11.2404C18.5518 10.3144 17.731 9.53346 16.6733 9.40544V8.96163H18.1922C20.8481 8.95963 23.4626 9.62684 25.798 10.9027C28.1335 12.1785 30.116 14.0226 31.5655 16.2675C31.5844 16.2977 31.6091 16.3239 31.6382 16.3444C31.6673 16.3649 31.7001 16.3794 31.7348 16.3869C31.7694 16.3945 31.8053 16.395 31.8401 16.3884C31.875 16.3818 31.9082 16.3682 31.9378 16.3485C31.968 16.3291 31.994 16.3037 32.0144 16.2741C32.0348 16.2444 32.0491 16.2109 32.0566 16.1756C32.0641 16.1402 32.0645 16.1038 32.0579 16.0683C32.0513 16.0328 32.0378 15.9989 32.0182 15.9687C30.5191 13.648 28.4695 11.7414 26.0552 10.4216C23.6409 9.10191 20.9382 8.41086 18.1922 8.41113H16.6733V6.45665C16.6475 6.18368 16.5164 5.93185 16.3083 5.75544C16.1002 5.57904 15.8317 5.49216 15.5606 5.51355H14.3845L13.733 2.68851C13.7168 2.6186 13.674 2.55791 13.6138 2.51957C13.5537 2.48124 13.481 2.46834 13.4114 2.48368L12.946 2.5861L12.6414 1.21625C12.6339 1.18135 12.6196 1.1483 12.5993 1.11904C12.5791 1.08977 12.5532 1.06488 12.5233 1.04581C12.4933 1.02674 12.4599 1.01388 12.425 1.00797C12.3901 1.00207 12.3544 1.00324 12.3199 1.01142L9.27377 1.70701C9.23879 1.71407 9.20557 1.72815 9.17608 1.74841C9.14659 1.76867 9.12143 1.79469 9.1021 1.82494C9.08277 1.85518 9.06965 1.88903 9.06353 1.92449C9.05741 1.95994 9.05841 1.99627 9.06646 2.03133L9.37108 3.40117L8.70262 3.55053C8.66802 3.55809 8.63525 3.57252 8.60624 3.59298C8.57723 3.61345 8.55255 3.63954 8.53365 3.66973C8.51474 3.69993 8.50199 3.73362 8.49613 3.76884C8.49028 3.80405 8.49144 3.8401 8.49955 3.87486L8.88454 5.54769C8.47561 5.60281 8.10073 5.80671 7.83039 6.12106C7.56004 6.4354 7.41284 6.83853 7.41648 7.25466V12.3329C7.41648 12.7856 7.59477 13.2198 7.91214 13.5399C8.22951 13.86 8.65995 14.0399 9.10877 14.0399H10.7545V14.808H5.67765C5.64209 14.808 5.60688 14.8151 5.57403 14.8288C5.54118 14.8425 5.51133 14.8626 5.48618 14.888C5.46104 14.9134 5.4411 14.9435 5.42749 14.9766C5.41388 15.0097 5.40688 15.0452 5.40688 15.0811V16.468C5.40688 16.5039 5.41388 16.5394 5.42749 16.5725C5.4411 16.6057 5.46104 16.6358 5.48618 16.6612C5.51133 16.6865 5.54118 16.7066 5.57403 16.7204C5.60688 16.7341 5.64209 16.7411 5.67765 16.7411V17.5178C5.67765 17.5902 5.70617 17.6597 5.75695 17.7109C5.80773 17.7622 5.8766 17.7909 5.94841 17.7909H6.37149V19.276C6.37149 19.3484 6.40001 19.4179 6.45079 19.4691C6.50157 19.5203 6.57044 19.5491 6.64225 19.5491H6.87494V20.3429H11.0591V19.5491H11.2876C11.3594 19.5491 11.4283 19.5203 11.4791 19.4691C11.5298 19.4179 11.5584 19.3484 11.5584 19.276V17.7909H12.3791V19.276C12.3791 19.3484 12.4077 19.4179 12.4584 19.4691C12.5092 19.5203 12.5781 19.5491 12.6499 19.5491H12.8445V20.3429H14.8076V19.5491H15.0064C15.0782 19.5491 15.1471 19.5203 15.1979 19.4691C15.2487 19.4179 15.2772 19.3484 15.2772 19.276V17.7909H15.5818C15.6536 17.7909 15.7225 17.7622 15.7733 17.7109C15.824 17.6597 15.8526 17.5902 15.8526 17.5178V16.7411C15.9236 16.74 15.9914 16.7108 16.0413 16.6597C16.0912 16.6086 16.1191 16.5397 16.1191 16.468V15.0811C16.1191 15.0087 16.0906 14.9392 16.0398 14.888C15.989 14.8368 15.9201 14.808 15.8483 14.808H15.5903V14.0015H16.0768C16.122 14.0353 16.177 14.0533 16.2333 14.0527H18.1922C21.0864 14.0572 23.8608 15.2192 25.907 17.2839C27.9532 19.3486 29.1041 22.1475 29.1075 25.0669C29.1172 27.6656 28.2065 30.1823 26.5394 32.1636C26.3061 31.6103 25.9165 31.1384 25.4193 30.8068C24.922 30.4752 24.339 30.2985 23.7429 30.2988H23.6033C23.1158 30.3257 22.6428 30.4749 22.2269 30.7327C21.811 30.9905 21.4654 31.3488 21.2214 31.7753H16.8341V30.5804C16.8347 30.5444 16.8281 30.5086 16.8146 30.4752C16.8012 30.4418 16.7813 30.4115 16.7561 30.386C16.7308 30.3605 16.7007 30.3404 16.6676 30.3269C16.6345 30.3134 16.599 30.3067 16.5633 30.3073H4.94573C4.87392 30.3073 4.80505 30.3361 4.75427 30.3873C4.70349 30.4385 4.67496 30.508 4.67496 30.5804V31.7753H4.36189C4.07576 31.7753 3.80136 31.8899 3.59903 32.094C3.39671 32.2981 3.28305 32.5749 3.28305 32.8635C3.28305 33.1521 3.39671 33.4289 3.59903 33.6329C3.80136 33.837 4.07576 33.9517 4.36189 33.9517H5.74957V35.0612C5.749 35.0972 5.75561 35.133 5.76901 35.1664C5.78242 35.1998 5.80234 35.2301 5.8276 35.2556C5.85286 35.2811 5.88294 35.3012 5.91604 35.3147C5.94915 35.3282 5.98462 35.3349 6.02033 35.3343H15.2306C15.2384 35.4006 15.2682 35.4623 15.3153 35.5093L18.2218 38.2362L16.7918 41.3215H15.7849V40.212C15.7854 40.176 15.7788 40.1402 15.7654 40.1068C15.752 40.0734 15.7321 40.0431 15.7068 40.0176C15.6816 39.9921 15.6515 39.972 15.6184 39.9585C15.5853 39.945 15.5498 39.9383 15.5141 39.9389H13.9614V37.3784C13.9614 37.306 13.9329 37.2365 13.8821 37.1853C13.8313 37.1341 13.7625 37.1053 13.6907 37.1053H7.83109C7.79553 37.1053 7.76032 37.1124 7.72747 37.1261C7.69462 37.1398 7.66477 37.1599 7.63963 37.1853C7.61448 37.2107 7.59454 37.2408 7.58093 37.2739C7.56733 37.307 7.56032 37.3425 7.56032 37.3784V39.9389H5.99495C5.95939 39.9389 5.92418 39.9459 5.89133 39.9597C5.85848 39.9734 5.82863 39.9935 5.80349 40.0189C5.77835 40.0442 5.7584 40.0743 5.74479 40.1075C5.73119 40.1406 5.72418 40.1761 5.72418 40.212V41.3215H1.3496C0.993466 41.3226 0.652104 41.4652 0.399485 41.7184C0.146865 41.9717 0.00333712 42.3151 0 42.6743L0 46.6259C0 46.9881 0.142636 47.3354 0.396529 47.5915C0.650422 47.8476 0.994776 47.9915 1.35384 47.9915H29.6998C30.0588 47.9915 30.4032 47.8476 30.6571 47.5915C30.911 47.3354 31.0536 46.9881 31.0536 46.6259V46.0541C31.0556 46.0314 31.0556 46.0085 31.0536 45.9858L31.0324 42.6743ZM15.2941 17.2447H6.21918V16.7411H15.2941V17.2447ZM14.7187 19.0029H12.9334V17.7909H13.403L14.7187 18.8279V19.0029ZM11.0295 19.0029H6.92571V17.7909H8.1357L11.0295 18.9346V19.0029ZM15.5606 15.3628V16.2163H5.94841V15.3628H15.5606ZM0.541534 42.6743C0.543752 42.4592 0.629733 42.2536 0.780917 42.1019C0.932101 41.9502 1.13636 41.8646 1.3496 41.8635H29.6955C29.9066 41.8679 30.1076 41.955 30.2561 42.1064C30.4045 42.2577 30.4887 42.4614 30.4909 42.6743V45.9687H0.541534V42.6743ZM6.26572 40.4723H15.2306V41.3258H6.26572V40.4723ZM8.10186 37.6515H13.4114V39.9261H8.10186V37.6515ZM3.82881 32.8592C3.82881 32.7162 3.88484 32.579 3.98469 32.4775C4.08454 32.376 4.22012 32.3184 4.36189 32.3172H16.5633H16.8341H20.9548L20.8279 32.5904L20.701 32.8635L20.4598 33.3841H4.38304C4.31247 33.3864 4.24215 33.3746 4.1761 33.3495C4.11004 33.3243 4.04955 33.2863 3.99808 33.2375C3.94661 33.1888 3.90516 33.1303 3.87612 33.0654C3.84708 33.0004 3.831 32.9304 3.82881 32.8592V32.8592ZM5.2165 30.8493H16.2926V31.771H5.2165V30.8493ZM21.6783 32.0655C21.8749 31.7123 22.1568 31.4148 22.4977 31.2007C22.8386 30.9866 23.2276 30.8628 23.6287 30.8407H23.7429C24.2781 30.8413 24.799 31.0155 25.2286 31.3374C25.6582 31.6594 25.9739 32.1121 26.129 32.6288C26.1619 32.7332 26.186 32.8403 26.2009 32.9488C26.2216 33.0671 26.2316 33.1871 26.2306 33.3073C26.2326 33.3214 26.2326 33.3358 26.2306 33.35V41.3172H24.7244L24.699 41.2916L21.5429 38.1081V38.0356L21.5091 38.074L21.3187 37.882L21.2721 37.835L21.1241 37.6857L21.0014 37.5534L19.7321 36.2731L20.8068 33.9517L20.9337 33.6786L21.0141 33.5079L21.0606 33.4054L21.1494 33.2134L21.2848 32.9232L21.4202 32.6288L21.5048 32.4538L21.5852 32.2788C21.6126 32.2062 21.6437 32.135 21.6783 32.0655V32.0655ZM6.2911 33.9474H15.2306V34.8009H6.2911V33.9474ZM15.7637 35.0569V33.9474H20.1975L18.4545 37.7113L15.7637 35.185V35.0569ZM16.1318 8.42393V9.59321C16.1321 9.62567 16.1399 9.65761 16.1546 9.6865C16.1693 9.71538 16.1905 9.74043 16.2164 9.75964C16.267 9.80311 16.3319 9.82594 16.3983 9.82365H16.4999C16.8804 9.82096 17.248 9.96241 17.53 10.22C17.8121 10.4776 17.988 10.8327 18.0229 11.2148C17.9899 11.5981 17.8147 11.9548 17.5324 12.2135C17.25 12.4722 16.8813 12.6139 16.4999 12.6103H16.411C16.344 12.6092 16.2791 12.6335 16.2291 12.6786C16.2035 12.6971 16.1825 12.7214 16.1678 12.7496C16.1531 12.7777 16.1451 12.8089 16.1445 12.8407V13.5363H15.6537V5.97443C15.7784 5.98125 15.8964 6.03344 15.9859 6.12132C16.0754 6.20921 16.1302 6.32683 16.1403 6.45238L16.1318 8.42393ZM7.95801 7.22052C7.95697 6.9312 8.06387 6.65208 8.25748 6.43861C8.45108 6.22515 8.71722 6.09296 9.003 6.06831H13.9276V13.4552H9.10454C8.80046 13.4552 8.50884 13.3334 8.29382 13.1165C8.07881 12.8996 7.95801 12.6055 7.95801 12.2988V7.22052ZM9.6503 2.16789L11.2072 1.81796V2.98723L9.89569 3.28169L9.6503 2.16789ZM9.75184 3.87486L10.0141 3.81511L11.2072 3.55053L12.4511 3.26888H12.5357L12.798 3.20914L13.0645 3.1494L13.2591 3.10672L13.826 5.54769H9.43454L9.08762 4.01142L9.48954 3.9218L9.75184 3.87486Z" fill="#00743F"/>
<path id="Vector_32" d="M14.3718 44.4282H2.78381V44.9745H14.3718V44.4282Z" fill="#00743F"/>
<path id="Vector_33" d="M17.7564 44.4282H15.5733V44.9745H17.7564V44.4282Z" fill="#00743F"/>
<path id="Vector_34" d="M11.2115 27.4353V25.9759C11.2115 25.9034 11.1829 25.834 11.1321 25.7828C11.0814 25.7315 11.0125 25.7028 10.9407 25.7028C10.8689 25.7028 10.8 25.7315 10.7492 25.7828C10.6984 25.834 10.6699 25.9034 10.6699 25.9759V27.4353C10.6699 27.5078 10.6984 27.5772 10.7492 27.6285C10.8 27.6797 10.8689 27.7084 10.9407 27.7084C11.0125 27.7084 11.0814 27.6797 11.1321 27.6285C11.1829 27.5772 11.2115 27.5078 11.2115 27.4353Z" fill="#00743F"/>
<path id="Vector_35" d="M9.8576 28.1907C9.90837 28.1881 9.95739 28.1711 9.99906 28.1418C10.0407 28.1124 10.0734 28.0718 10.0932 28.0246C10.1131 27.9774 10.1194 27.9255 10.1114 27.8749C10.1034 27.8243 10.0814 27.7769 10.048 27.7383L9.2653 26.936C9.24048 26.9105 9.21086 26.8902 9.17817 26.8763C9.14548 26.8625 9.11038 26.8553 9.07492 26.8553C9.03946 26.8553 9.00435 26.8625 8.97166 26.8763C8.93897 26.8902 8.90935 26.9105 8.88453 26.936C8.83786 26.9872 8.81195 27.0543 8.81195 27.1238C8.81195 27.1934 8.83786 27.2604 8.88453 27.3116L9.66722 28.101C9.69128 28.1282 9.72056 28.1502 9.75329 28.1656C9.78602 28.181 9.82151 28.1895 9.8576 28.1907V28.1907Z" fill="#00743F"/>
<path id="Vector_36" d="M12.2141 28.1138L12.9968 27.3115C13.0479 27.26 13.0766 27.1902 13.0766 27.1174C13.0766 27.0445 13.0479 26.9747 12.9968 26.9232C12.9458 26.8717 12.8765 26.8428 12.8043 26.8428C12.7321 26.8428 12.6629 26.8717 12.6118 26.9232L11.8461 27.7383C11.7957 27.7901 11.7675 27.8598 11.7675 27.9324C11.7675 28.0051 11.7957 28.0748 11.8461 28.1266C11.8985 28.1755 11.9672 28.2027 12.0386 28.2027C12.1099 28.2027 12.1787 28.1755 12.2311 28.1266L12.2141 28.1138Z" fill="#00743F"/>
</g>
<defs>
<clipPath id="clip0_524_50">
<rect width="279" height="48" fill="white"/>
</clipPath>
</defs>
</svg>
