<svg width="31" height="41" viewBox="0 0 31 41" fill="none" xmlns="http://www.w3.org/2000/svg">
<g id="logo">
<path id="Vector" d="M20.9568 29.5495H20.9979C21.1392 29.5478 21.2793 29.5229 21.4124 29.4757C21.6043 29.4098 21.7786 29.3018 21.9222 29.1598C22.0658 29.0177 22.175 28.8454 22.2416 28.6557C22.2893 28.524 22.3146 28.3855 22.3163 28.2457C22.3181 28.2322 22.3181 28.2185 22.3163 28.205C22.317 27.9381 22.2376 27.6769 22.0881 27.4546C21.9386 27.2324 21.7257 27.059 21.4765 26.9565C21.2272 26.854 20.9528 26.827 20.688 26.8789C20.4232 26.9308 20.18 27.0593 19.9891 27.248C19.7982 27.4368 19.6683 27.6774 19.6158 27.9392C19.5633 28.2011 19.5906 28.4725 19.6943 28.719C19.7979 28.9655 19.9732 29.176 20.198 29.3239C20.4227 29.4717 20.6868 29.5503 20.9568 29.5495Z" fill="#00743F"/>
<path id="Vector_2" d="M8.59038 5.95058V5.50364V5.14905H8.34387H8.1123V5.20815V8.47337H8.59038V5.95058Z" fill="#00743F"/>
<path id="Vector_3" d="M8.59038 9.34875H8.1123V9.98407H8.59038V9.34875Z" fill="#00743F"/>
<path id="Vector_4" d="M27.3958 36.1982C27.3948 35.885 27.2686 35.5849 27.0446 35.3635C26.8207 35.142 26.5173 35.0172 26.2006 35.0162H23.6384V33.8527L26.3649 31.1563C28.582 28.9669 30.0262 26.1288 30.483 23.0633C30.9398 19.9978 30.3851 16.8684 28.901 14.1395C28.8861 14.112 28.8658 14.0877 28.8414 14.068C28.817 14.0483 28.7889 14.0335 28.7587 14.0246C28.7285 14.0157 28.6968 14.0127 28.6655 14.016C28.6341 14.0192 28.6037 14.0285 28.576 14.0434V14.0434C28.5487 14.0581 28.5246 14.078 28.505 14.102C28.4855 14.1259 28.471 14.1535 28.4623 14.183C28.4536 14.2125 28.451 14.2435 28.4545 14.2741C28.4579 14.3046 28.4675 14.3342 28.4827 14.3611C29.9177 16.9999 30.4543 20.0258 30.0129 22.99C29.5716 25.9543 28.1757 28.6988 26.0325 30.8165L23.6422 33.1805V28.1275C23.6432 27.9637 23.6269 27.8003 23.5936 27.6399C24.8989 26.201 25.7548 24.419 26.0578 22.5093C26.3608 20.5997 26.0981 18.6441 25.3012 16.8789C24.5044 15.1138 23.2077 13.6147 21.5677 12.5628C19.9278 11.511 18.0149 10.9514 16.0602 10.9518H14.7194V10.5824C15.6531 10.4679 16.3777 9.79199 16.3777 8.99046C16.3777 8.18893 15.6531 7.51298 14.7194 7.40217V7.01803H16.0602C18.405 7.01629 20.713 7.59381 22.7748 8.69813C24.8365 9.80245 26.5867 11.3986 27.8664 13.3416C27.8831 13.3678 27.9049 13.3905 27.9306 13.4082C27.9562 13.426 27.9852 13.4385 28.0158 13.445C28.0464 13.4516 28.078 13.452 28.1088 13.4463C28.1396 13.4406 28.1689 13.4289 28.1951 13.4118C28.2217 13.395 28.2447 13.373 28.2627 13.3473C28.2807 13.3216 28.2933 13.2927 28.2999 13.2621C28.3065 13.2315 28.3069 13.1999 28.3011 13.1692C28.2953 13.1385 28.2834 13.1092 28.266 13.0831C26.9426 11.0743 25.1332 9.42403 23.0018 8.28174C20.8705 7.13945 18.4845 6.54131 16.0602 6.54154H14.7194V4.84983C14.6966 4.61355 14.5809 4.39559 14.3972 4.2429C14.2134 4.09021 13.9764 4.01501 13.7371 4.03352H12.6988L12.1236 1.5883C12.1094 1.52778 12.0716 1.47525 12.0185 1.44207C11.9653 1.40889 11.9011 1.39773 11.8398 1.411L11.4289 1.49965L11.16 0.313973C11.1534 0.283763 11.1408 0.255158 11.1228 0.229829C11.1049 0.2045 11.0821 0.182954 11.0557 0.166448C11.0292 0.149943 10.9998 0.138809 10.9689 0.133698C10.9381 0.128586 10.9066 0.129598 10.8761 0.136676L8.18699 0.738748C8.1561 0.744865 8.12678 0.757052 8.10075 0.774586C8.07471 0.79212 8.0525 0.814644 8.03544 0.840823C8.01837 0.867002 8.00679 0.896304 8.00139 0.92699C7.99598 0.957677 7.99686 0.989124 8.00398 1.01947L8.27289 2.20514L7.68277 2.33442C7.65222 2.34096 7.6233 2.35345 7.59769 2.37117C7.57208 2.38888 7.55029 2.41147 7.5336 2.4376C7.51691 2.46373 7.50565 2.49289 7.50048 2.52338C7.49531 2.55386 7.49634 2.58506 7.50349 2.61514L7.84337 4.06307C7.48237 4.11078 7.15142 4.28727 6.91275 4.55935C6.67408 4.83144 6.54414 5.18037 6.54735 5.54055V9.93604C6.54735 10.3279 6.70475 10.7037 6.98492 10.9808C7.2651 11.2579 7.6451 11.4135 8.04133 11.4135H9.49422V12.0784H5.01229C4.9809 12.0784 4.94981 12.0845 4.92081 12.0964C4.89181 12.1083 4.86546 12.1257 4.84327 12.1476C4.82107 12.1696 4.80346 12.1956 4.79145 12.2243C4.77944 12.253 4.77325 12.2837 4.77325 12.3148V13.5152C4.77325 13.5463 4.77944 13.577 4.79145 13.6057C4.80346 13.6344 4.82107 13.6604 4.84327 13.6824C4.86546 13.7043 4.89181 13.7218 4.92081 13.7336C4.94981 13.7455 4.9809 13.7516 5.01229 13.7516V14.4239C5.01229 14.4866 5.03747 14.5467 5.0823 14.591C5.12713 14.6354 5.18793 14.6603 5.25133 14.6603H5.62482V15.9457C5.62482 16.0084 5.65 16.0685 5.69483 16.1128C5.73966 16.1572 5.80046 16.1821 5.86386 16.1821H6.06928V16.8691H9.76313V16.1821H9.96482C10.0282 16.1821 10.089 16.1572 10.1338 16.1128C10.1787 16.0685 10.2039 16.0084 10.2039 15.9457V14.6603H10.9284V15.9457C10.9284 16.0084 10.9536 16.0685 10.9984 16.1128C11.0433 16.1572 11.1041 16.1821 11.1675 16.1821H11.3393V16.8691H13.0723V16.1821H13.2478C13.3112 16.1821 13.372 16.1572 13.4169 16.1128C13.4617 16.0685 13.4869 16.0084 13.4869 15.9457V14.6603H13.7558C13.8192 14.6603 13.88 14.6354 13.9248 14.591C13.9696 14.5467 13.9948 14.4866 13.9948 14.4239V13.7516C14.0576 13.7507 14.1174 13.7253 14.1614 13.6811C14.2055 13.6369 14.2301 13.5773 14.2301 13.5152V12.3148C14.2301 12.2521 14.2049 12.192 14.1601 12.1476C14.1153 12.1033 14.0545 12.0784 13.9911 12.0784H13.7633V11.3803H14.1928C14.2327 11.4096 14.2812 11.4251 14.331 11.4246H16.0602C18.6153 11.4285 21.0646 12.4343 22.871 14.2214C24.6774 16.0085 25.6934 18.4311 25.6964 20.958C25.705 23.2073 24.901 25.3857 23.4293 27.1006C23.2233 26.6217 22.8794 26.2133 22.4404 25.9263C22.0014 25.6392 21.4867 25.4863 20.9605 25.4865H20.8372C20.4069 25.5099 19.9893 25.639 19.6222 25.8621C19.255 26.0853 18.9499 26.3954 18.7345 26.7645H14.8613V25.7303C14.8618 25.6991 14.856 25.6681 14.8442 25.6392C14.8323 25.6103 14.8147 25.5841 14.7924 25.562C14.7701 25.54 14.7436 25.5226 14.7144 25.5109C14.6851 25.4992 14.6538 25.4934 14.6223 25.4939H4.36614C4.30275 25.4939 4.24195 25.5188 4.19712 25.5631C4.15229 25.6075 4.12711 25.6676 4.12711 25.7303V26.7645H3.85072C3.59813 26.7645 3.35588 26.8637 3.17727 27.0404C2.99866 27.217 2.89831 27.4566 2.89831 27.7064C2.89831 27.9562 2.99866 28.1958 3.17727 28.3724C3.35588 28.5491 3.59813 28.6483 3.85072 28.6483H5.07578V29.6087C5.07528 29.6398 5.08112 29.6708 5.09295 29.6997C5.10478 29.7286 5.12237 29.7549 5.14467 29.7769C5.16697 29.799 5.19352 29.8164 5.22275 29.8281C5.25198 29.8398 5.28329 29.8456 5.31482 29.8451H13.4458C13.4526 29.9024 13.4789 29.9558 13.5205 29.9965L16.0864 32.3568L14.824 35.0273H13.9351V34.0669C13.9356 34.0358 13.9297 34.0048 13.9179 33.9759C13.9061 33.947 13.8885 33.9207 13.8662 33.8987C13.8439 33.8766 13.8173 33.8592 13.7881 33.8475C13.7589 33.8358 13.7276 33.83 13.696 33.8305H12.3253V31.6143C12.3253 31.5516 12.3001 31.4915 12.2553 31.4472C12.2105 31.4028 12.1497 31.3779 12.0863 31.3779H6.91337C6.88198 31.3779 6.8509 31.3841 6.8219 31.3959C6.7929 31.4078 6.76655 31.4252 6.74435 31.4472C6.72215 31.4691 6.70455 31.4952 6.69253 31.5239C6.68052 31.5525 6.67434 31.5833 6.67434 31.6143V33.8305H5.29241C5.26102 33.8305 5.22994 33.8367 5.20093 33.8485C5.17193 33.8604 5.14558 33.8778 5.12339 33.8998C5.10119 33.9217 5.08358 33.9478 5.07157 33.9765C5.05956 34.0052 5.05337 34.0359 5.05337 34.0669V35.0273H1.19145C0.877043 35.0283 0.575685 35.1517 0.35267 35.3709C0.129654 35.59 0.00294605 35.8873 0 36.1982L0 39.6186C0 39.932 0.12592 40.2327 0.35006 40.4544C0.5742 40.676 0.878199 40.8005 1.19518 40.8005H26.2193C26.5363 40.8005 26.8403 40.676 27.0644 40.4544C27.2885 40.2327 27.4145 39.932 27.4145 39.6186V39.1236C27.4163 39.104 27.4163 39.0842 27.4145 39.0645L27.3958 36.1982ZM13.5018 14.1875H5.49036V13.7516H13.5018V14.1875ZM12.9939 15.7093H11.4177V14.6603H11.8323L12.9939 15.5578V15.7093ZM9.73699 15.7093H6.1141V14.6603H7.18229L9.73699 15.6502V15.7093ZM13.7371 12.5586V13.2973H5.25133V12.5586H13.7371ZM0.478072 36.1982C0.480031 36.012 0.555936 35.8341 0.689402 35.7028C0.822869 35.5715 1.00319 35.4974 1.19145 35.4964H26.2155C26.4018 35.5002 26.5793 35.5756 26.7104 35.7066C26.8415 35.8376 26.9158 36.0139 26.9177 36.1982V39.0497H0.478072V36.1982ZM5.53145 34.2923H13.4458V35.031H5.53145V34.2923ZM7.15241 31.8507H11.8398V33.8195H7.15241V31.8507ZM3.38012 27.7027C3.38012 27.5789 3.42958 27.4602 3.51773 27.3723C3.60588 27.2844 3.72557 27.2346 3.85072 27.2336H14.6223H14.8613H18.4992L18.3871 27.47L18.2751 27.7064L18.0622 28.157H3.8694C3.8071 28.159 3.74502 28.1488 3.6867 28.127C3.62839 28.1053 3.57499 28.0723 3.52955 28.0302C3.48411 27.988 3.44752 27.9373 3.42188 27.8811C3.39624 27.825 3.38205 27.7643 3.38012 27.7027V27.7027ZM4.60518 25.963H14.3833V26.7608H4.60518V25.963ZM19.1378 27.0157C19.3114 26.71 19.5603 26.4525 19.8612 26.2672C20.1622 26.0819 20.5056 25.9747 20.8596 25.9556H20.9605C21.433 25.9561 21.8928 26.1068 22.2721 26.3855C22.6514 26.6642 22.93 27.056 23.067 27.5033C23.096 27.5937 23.1173 27.6863 23.1305 27.7803C23.1488 27.8827 23.1575 27.9866 23.1566 28.0905C23.1585 28.1028 23.1585 28.1152 23.1566 28.1275V35.0236H21.827L21.8046 35.0014L19.0183 32.246V32.1832L18.9884 32.2164L18.8204 32.0502L18.7793 32.0096L18.6486 31.8803L18.5402 31.7658L17.4198 30.6577L18.3684 28.6483L18.4805 28.4119L18.5514 28.2642L18.5925 28.1755L18.671 28.0093L18.7905 27.7581L18.91 27.5033L18.9847 27.3518L19.0557 27.2004C19.0799 27.1375 19.1073 27.0758 19.1378 27.0157V27.0157ZM5.55386 28.6446H13.4458V29.3833H5.55386V28.6446ZM13.9164 29.605V28.6446H17.8306L16.2918 31.9024L13.9164 29.7158V29.605ZM14.2413 6.55262V7.56469C14.2416 7.59279 14.2485 7.62044 14.2615 7.64544C14.2744 7.67044 14.2931 7.69212 14.316 7.70875C14.3607 7.74638 14.418 7.76614 14.4766 7.76415H14.5663C14.9022 7.76182 15.2267 7.88426 15.4757 8.10724C15.7247 8.33022 15.88 8.63751 15.9108 8.9683C15.8817 9.30007 15.727 9.60876 15.4778 9.83267C15.2285 10.0566 14.903 10.1792 14.5663 10.1761H14.4878C14.4287 10.1752 14.3713 10.1963 14.3272 10.2352C14.3046 10.2513 14.2861 10.2723 14.2731 10.2967C14.2602 10.3211 14.2531 10.3481 14.2525 10.3756V10.9777H13.8193V4.43244C13.9294 4.43834 14.0335 4.48352 14.1125 4.55958C14.1915 4.63565 14.2399 4.73746 14.2488 4.84613L14.2413 6.55262ZM7.02542 5.511C7.0245 5.26058 7.11888 5.01899 7.28979 4.83422C7.46071 4.64945 7.69566 4.53503 7.94795 4.5137H12.2954V10.9075H8.03759C7.76915 10.9075 7.5117 10.802 7.32188 10.6143C7.13206 10.4266 7.02542 10.172 7.02542 9.9065V5.511ZM8.5194 1.13767L9.89386 0.834784V1.84686L8.73602 2.10172L8.5194 1.13767ZM8.60904 2.61514L8.8406 2.56343L9.89386 2.33442L10.9919 2.09064H11.0666L11.2982 2.03893L11.5335 1.98722L11.7053 1.95028L12.2058 4.06307H8.32892L8.02265 2.73334L8.37747 2.65577L8.60904 2.61514Z" fill="#00743F"/>
<path id="Vector_5" d="M12.6876 37.7163H2.45758V38.1891H12.6876V37.7163Z" fill="#00743F"/>
<path id="Vector_6" d="M15.6755 37.7163H13.7483V38.1891H15.6755V37.7163Z" fill="#00743F"/>
<path id="Vector_7" d="M9.89756 23.0081V21.7448C9.89756 21.6821 9.87238 21.622 9.82755 21.5777C9.78272 21.5333 9.72193 21.5084 9.65853 21.5084C9.59513 21.5084 9.53433 21.5333 9.48951 21.5777C9.44468 21.622 9.41949 21.6821 9.41949 21.7448V23.0081C9.41949 23.0708 9.44468 23.1309 9.48951 23.1752C9.53433 23.2196 9.59513 23.2445 9.65853 23.2445C9.72193 23.2445 9.78272 23.2196 9.82755 23.1752C9.87238 23.1309 9.89756 23.0708 9.89756 23.0081Z" fill="#00743F"/>
<path id="Vector_8" d="M8.70241 23.6618C8.74723 23.6595 8.7905 23.6449 8.82729 23.6195C8.86407 23.594 8.89288 23.5589 8.91041 23.5181C8.92795 23.4772 8.9335 23.4323 8.92644 23.3885C8.91938 23.3446 8.89999 23.3037 8.87048 23.2702L8.17952 22.5758C8.15761 22.5537 8.13146 22.5361 8.1026 22.5242C8.07374 22.5122 8.04275 22.506 8.01145 22.506C7.98014 22.506 7.94915 22.5122 7.92029 22.5242C7.89143 22.5361 7.86528 22.5537 7.84338 22.5758C7.80217 22.6201 7.7793 22.6781 7.7793 22.7383C7.7793 22.7986 7.80217 22.8566 7.84338 22.9009L8.53434 23.5842C8.55558 23.6077 8.58143 23.6267 8.61032 23.6401C8.63921 23.6534 8.67054 23.6608 8.70241 23.6618V23.6618Z" fill="#00743F"/>
<path id="Vector_9" d="M10.7828 23.5953L11.4737 22.9009C11.5188 22.8563 11.5441 22.7958 11.5441 22.7328C11.5441 22.6698 11.5188 22.6093 11.4737 22.5647C11.4287 22.5202 11.3675 22.4951 11.3038 22.4951C11.24 22.4951 11.1789 22.5202 11.1338 22.5647L10.4578 23.2702C10.4133 23.3151 10.3884 23.3754 10.3884 23.4383C10.3884 23.5011 10.4133 23.5615 10.4578 23.6064C10.5041 23.6487 10.5648 23.6722 10.6278 23.6722C10.6908 23.6722 10.7515 23.6487 10.7977 23.6064L10.7828 23.5953Z" fill="#00743F"/>
</g>
</svg>
