<svg id="Camada_1" data-name="Camada 1" xmlns="http://www.w3.org/2000/svg" viewBox="0 0 659.46 112.48"><defs><style>.cls-1,.cls-2{fill:#00743f;}.cls-1{stroke:#00743f;stroke-miterlimit:10;stroke-width:0.5px;}</style></defs><title>logotipo-laboratorio-sailvano-sarmento</title><line class="cls-1" x1="101.91" y1="2.46" x2="101.91" y2="112.38"/><path class="cls-2" d="M167.77,59a1.21,1.21,0,0,1,.64.15c.17.09.26.42.26,1v3.34q0,4.32-4.32,4.32H137.46a8.21,8.21,0,0,0-2.73.37,4.44,4.44,0,0,0-1.62.94,6.34,6.34,0,0,0-1.21,2.21,8.32,8.32,0,0,0-.36,4,4.16,4.16,0,0,0,1.73,3.24A12.63,12.63,0,0,0,137.1,80l19.41,4q7.41,1.62,10.79,4.61t3.38,8.73a13.11,13.11,0,0,1-4.06,10q-4.06,3.85-13.31,3.85H123.72a1.45,1.45,0,0,1-.66-.15c-.2-.09-.31-.39-.31-.9v-2.69c0-3.12,1.44-4.67,4.32-4.67h29a8.35,8.35,0,0,0,2.77-.38,4.13,4.13,0,0,0,1.6-.94,6.61,6.61,0,0,0,1.08-1.51A5.78,5.78,0,0,0,162,97a3.41,3.41,0,0,0-1.94-3A14,14,0,0,0,156,92.39L136,88.4q-14.17-3.14-14.17-14.24A15.2,15.2,0,0,1,123,67.89a13.39,13.39,0,0,1,3.58-4.8A16.34,16.34,0,0,1,132.26,60,23.74,23.74,0,0,1,139.62,59Z"/><path class="cls-2" d="M174,64.45q0-4.71,4.57-4.71t4.53,4.71q0,4.53-4.53,4.53T174,64.45Zm1.4,46.6a.7.7,0,0,1-.79-.79V79.19q0-3.45,3.46-3.45h3.45a.7.7,0,0,1,.79.79v33.73a.7.7,0,0,1-.79.79Z"/><path class="cls-2" d="M193.51,110.94h-6.83c-.55,0-.83-.32-.83-1V63.3q0-4.09,3.71-4.1h3.95c.62,0,.93.33.93,1V110C194.44,110.62,194.13,110.94,193.51,110.94Z"/><path class="cls-2" d="M225,76a2.36,2.36,0,0,1,.72-1.3,2.9,2.9,0,0,1,1.73-.39h5.14c.6,0,.9.26.9.79a2.1,2.1,0,0,1-.05.43,5.68,5.68,0,0,1-.27.68l-13,33.91a1.55,1.55,0,0,1-1.48,1h-7.83a1.31,1.31,0,0,1-1-.34,2.42,2.42,0,0,1-.56-.88L196.78,76.17a3.2,3.2,0,0,1-.21-1.11c0-.53.29-.79.9-.79h5.46c1.51,0,2.44.56,2.8,1.69l9.42,27.61h.11Z"/><path class="cls-2" d="M243.3,109.93a12.73,12.73,0,0,1-4.92-2.53,7.42,7.42,0,0,1-2.27-3.47,14.43,14.43,0,0,1-.54-3.85c0-3.09,1-5.38,3.1-6.87s5.1-2.62,9.13-3.41l4.65-.76c1.31-.21,2.4-.41,3.26-.59s1.56-.34,2.1-.48a12,12,0,0,0,1.35-.44,1.84,1.84,0,0,0,.76-.48,1.76,1.76,0,0,0,.21-1,4.2,4.2,0,0,0-1.78-3.84q-1.78-1.12-6.34-1.13a60.38,60.38,0,0,0-9,.49,30.18,30.18,0,0,1-4,.48c-.43,0-.65-.25-.65-.75l-.11-3.16a2.28,2.28,0,0,1,.59-2,4,4,0,0,1,1.89-.81c1.1-.14,2.61-.29,4.51-.43s4.27-.22,7.07-.22q8.13,0,11.86,3t3.74,10v19.27a2.81,2.81,0,0,1-2.73,3,52.42,52.42,0,0,1-6.42.76c-2.33.14-4.67.21-7,.21A30.09,30.09,0,0,1,243.3,109.93Zm16.83-16.32-13,2.48q-3.77.76-3.77,4a3.54,3.54,0,0,0,2.42,3.62,19,19,0,0,0,6.53.91c1.46,0,3-.07,4.51-.21a33,33,0,0,0,3.29-.43Z"/><path class="cls-2" d="M304.39,87.21v23.16a.76.76,0,0,1-.86.86h-6.22a.77.77,0,0,1-.87-.86V88.47q0-4.25-1.69-5.65t-6.5-1.4c-2.45,0-4.31,0-5.58.13a14.3,14.3,0,0,0-2.89.41,1.16,1.16,0,0,0-1,1.15v27.26a.75.75,0,0,1-.83.86h-6.07c-.67,0-1-.29-1-.86V78.87a2.86,2.86,0,0,1,2.7-3.13,49.84,49.84,0,0,1,6.49-1q3.39-.28,8.61-.29,8.34,0,12,3T304.39,87.21Z"/><path class="cls-2" d="M306.47,92.1q0-10.21,5.31-14a22,22,0,0,1,13-3.75,22.37,22.37,0,0,1,13.09,3.75q5.39,3.77,5.39,14a34.91,34.91,0,0,1-.77,7.53,13.76,13.76,0,0,1-2.9,6,14,14,0,0,1-5.68,3.95,29.79,29.79,0,0,1-18.3,0,13.44,13.44,0,0,1-5.59-3.95,14.31,14.31,0,0,1-2.8-6A34.27,34.27,0,0,1,306.47,92.1Zm28.73,0q0-5.75-2.12-8.36c-1.42-1.74-4.17-2.61-8.27-2.61s-6.89.87-8.3,2.61-2.13,4.53-2.13,8.36q0,7.34,2.41,9.74t8,2.41q5.58,0,8-2.41T335.2,92.1Z"/><path class="cls-2" d="M410.67,59a1.21,1.21,0,0,1,.64.15c.17.09.26.42.26,1v3.34q0,4.32-4.32,4.32H380.36a8.21,8.21,0,0,0-2.73.37A4.44,4.44,0,0,0,376,69a6.34,6.34,0,0,0-1.21,2.21,8.32,8.32,0,0,0-.36,4,4.16,4.16,0,0,0,1.73,3.24A12.63,12.63,0,0,0,380,80l19.41,4q7.41,1.62,10.79,4.61t3.38,8.73a13.11,13.11,0,0,1-4.06,10q-4.06,3.85-13.31,3.85H366.62a1.45,1.45,0,0,1-.66-.15c-.21-.09-.31-.39-.31-.9v-2.69c0-3.12,1.44-4.67,4.32-4.67h29a8.39,8.39,0,0,0,2.77-.38,4.21,4.21,0,0,0,1.6-.94,6.61,6.61,0,0,0,1.08-1.51,5.78,5.78,0,0,0,.48-2.86A3.41,3.41,0,0,0,403,94a14,14,0,0,0-4.06-1.56l-20.06-4q-14.18-3.14-14.17-14.24a15.2,15.2,0,0,1,1.26-6.27,13.39,13.39,0,0,1,3.58-4.8A16.34,16.34,0,0,1,375.16,60,23.73,23.73,0,0,1,382.51,59Z"/><path class="cls-2" d="M424.29,109.93a12.73,12.73,0,0,1-4.92-2.53,7.42,7.42,0,0,1-2.27-3.47,14,14,0,0,1-.54-3.85q0-4.64,3.1-6.87t9.13-3.41l4.65-.76c1.31-.21,2.39-.41,3.26-.59s1.56-.34,2.1-.48a12,12,0,0,0,1.35-.44,1.73,1.73,0,0,0,.75-.48,1.67,1.67,0,0,0,.22-1,4.22,4.22,0,0,0-1.78-3.84c-1.19-.75-3.3-1.13-6.35-1.13a60.57,60.57,0,0,0-9,.49,30,30,0,0,1-4,.48c-.43,0-.64-.25-.64-.75l-.11-3.16a2.25,2.25,0,0,1,.59-2,4,4,0,0,1,1.89-.81c1.1-.14,2.61-.29,4.51-.43s4.26-.22,7.07-.22q8.12,0,11.86,3t3.74,10v19.27a2.81,2.81,0,0,1-2.73,3,52.42,52.42,0,0,1-6.42.76q-3.51.21-7,.21A30,30,0,0,1,424.29,109.93Zm16.83-16.32-13,2.48c-2.52.51-3.77,1.84-3.77,4a3.53,3.53,0,0,0,2.42,3.62,19,19,0,0,0,6.53.91c1.46,0,3-.07,4.51-.21a33,33,0,0,0,3.29-.43Z"/><path class="cls-2" d="M459.31,110.9h-6.08c-.55,0-.82-.31-.82-.93V87.64q0-6.75,3.5-9.79t10.41-3c1.08,0,2.16,0,3.26.1s2.06.17,2.92.29a2.22,2.22,0,0,1,2.16,2.34l-.11,3.34c0,.51-.27.76-.82.76s-1.69,0-3.19,0-3,0-4.47,0a7.16,7.16,0,0,0-4.37,1.11,4.51,4.51,0,0,0-1.45,3.81V110A.83.83,0,0,1,459.31,110.9Z"/><path class="cls-2" d="M526.58,87.07v23.19c0,.53-.32.79-1,.79h-6c-.65,0-1-.26-1-.79v-22q0-3.89-1.46-5.36T512,81.39a21.49,21.49,0,0,0-5.43.61c-.53.12-.79.5-.79,1.15v27.11c0,.53-.33.79-1,.79H498.5a.7.7,0,0,1-.79-.79V87.46q0-3.34-1.26-4.71t-5.75-1.36a16.72,16.72,0,0,0-5.25.61c-.67,0-1,.38-1,1.15v27.11c0,.53-.32.79-1,.79h-6c-.65,0-1-.26-1-.79V78.87a3,3,0,0,1,2.73-3.13c1.94-.38,4-.7,6-1a57.19,57.19,0,0,1,7-.39,25.44,25.44,0,0,1,5.09.48,15.23,15.23,0,0,1,3.9,1.28c1.3-.39,2.85-.78,4.68-1.17a27.26,27.26,0,0,1,5.86-.59Q526.58,74.38,526.58,87.07Z"/><path class="cls-2" d="M539.9,102.92q2.46,1.23,7.57,1.23c1.15,0,2.35,0,3.61-.1s2.46-.13,3.6-.23l2.93-.23c.81-.06,1.35-.09,1.61-.09.56,0,.83.31.83.93l.11,3.24a2.44,2.44,0,0,1-.61,2.07,3.68,3.68,0,0,1-2,.84c-1.2.14-2.75.25-4.64.31s-4.06.09-6.51.09a25.47,25.47,0,0,1-8.89-1.33,13.22,13.22,0,0,1-5.54-3.74,13.79,13.79,0,0,1-2.84-5.86,34.3,34.3,0,0,1-.81-7.8,27.48,27.48,0,0,1,1.19-8.72,13.06,13.06,0,0,1,3.45-5.59A12.66,12.66,0,0,1,538.44,75a29.93,29.93,0,0,1,7.52-.85,29.41,29.41,0,0,1,8.14,1,14.44,14.44,0,0,1,5.07,2.47A7.82,7.82,0,0,1,561.72,81a10.82,10.82,0,0,1,.71,3.8,12.29,12.29,0,0,1-.67,4.24,7.2,7.2,0,0,1-2.12,3,11.77,11.77,0,0,1-3.69,2,34.51,34.51,0,0,1-5.35,1.36l-13.92,2.49C537.19,100.44,538.26,102.11,539.9,102.92ZM547.47,90a24.8,24.8,0,0,0,3.75-.86,6.73,6.73,0,0,0,2.09-1.05,2.49,2.49,0,0,0,.9-1.33,7.19,7.19,0,0,0,.2-1.79,3.54,3.54,0,0,0-1.8-3.31c-1.2-.7-3.22-1-6.08-1a20.45,20.45,0,0,0-5.1.52A6,6,0,0,0,536.74,86a23,23,0,0,0-.42,4.78V92Z"/><path class="cls-2" d="M598,87.21v23.16a.77.77,0,0,1-.87.86h-6.22a.76.76,0,0,1-.86-.86V88.47q0-4.25-1.69-5.65t-6.51-1.4c-2.44,0-4.3,0-5.57.13a14.19,14.19,0,0,0-2.89.41,1.16,1.16,0,0,0-1,1.15v27.26a.75.75,0,0,1-.83.86h-6.08c-.67,0-1-.29-1-.86V78.87a2.86,2.86,0,0,1,2.69-3.13,50.36,50.36,0,0,1,6.49-1q3.4-.28,8.62-.29,8.34,0,12,3T598,87.21Z"/><path class="cls-2" d="M608.3,99.33a6.09,6.09,0,0,0,1,3.94q1,1.16,4.92,1.16c.87,0,1.88,0,3-.1s2.1-.11,2.82-.11q.72,0,.72.75v3.49a2.31,2.31,0,0,1-.46,1.65,3.82,3.82,0,0,1-1.66.79,16.06,16.06,0,0,1-2.62.22h-3q-7,0-9.92-2.86c-1.94-1.9-2.91-4.91-2.91-9V67.73a3.77,3.77,0,0,1,1-2.76,3.43,3.43,0,0,1,2.53-1h3.74c.56,0,.83.29.83.87v9.74h10.28a.76.76,0,0,1,.87.86v4.57c0,.55-.29.82-.87.82h-9.42c-.57,0-.86.33-.86,1Z"/><path class="cls-2" d="M622.65,92.1q0-10.21,5.3-14a22,22,0,0,1,13-3.75,22.37,22.37,0,0,1,13.09,3.75q5.38,3.77,5.39,14a34.91,34.91,0,0,1-.77,7.53,13.76,13.76,0,0,1-2.9,6,14,14,0,0,1-5.68,3.95,29.79,29.79,0,0,1-18.3,0,13.44,13.44,0,0,1-5.59-3.95,14.31,14.31,0,0,1-2.8-6A34.29,34.29,0,0,1,622.65,92.1Zm28.72,0c0-3.83-.7-6.62-2.12-8.36s-4.17-2.61-8.27-2.61-6.89.87-8.3,2.61-2.12,4.53-2.12,8.36q0,7.34,2.4,9.74t8,2.41q5.58,0,8-2.41T651.37,92.1Z"/><path class="cls-2" d="M146.7,40.76c0,.59-.27.88-.82.88H123.77a1.89,1.89,0,0,1-1.69-.63,2.17,2.17,0,0,1-.24-1.31l-.06-36.35a.68.68,0,0,1,.77-.76h4.24c1.62,0,2.43.72,2.43,2.17v30.8h15c1.67,0,2.51,1,2.51,2.92Z"/><path class="cls-2" d="M155.2,40.79a9.77,9.77,0,0,1-3.74-1.92,5.56,5.56,0,0,1-1.71-2.63,10.71,10.71,0,0,1-.41-2.91,6,6,0,0,1,2.34-5.2,17.79,17.79,0,0,1,6.92-2.59l3.53-.57c1-.16,1.81-.31,2.46-.45s1.18-.26,1.59-.37a9,9,0,0,0,1-.32,1.45,1.45,0,0,0,.58-.37,1.33,1.33,0,0,0,.16-.78,3.18,3.18,0,0,0-1.35-2.9c-.9-.57-2.5-.85-4.8-.85a46.56,46.56,0,0,0-6.8.36,21.79,21.79,0,0,1-3,.37c-.32,0-.49-.19-.49-.57l-.08-2.4a1.72,1.72,0,0,1,.45-1.51,3,3,0,0,1,1.43-.61q1.26-.16,3.42-.33c1.44-.11,3.23-.16,5.35-.16q6.15,0,9,2.25c1.88,1.49,2.83,4,2.83,7.58v14.6a2.14,2.14,0,0,1-2.07,2.28,41.13,41.13,0,0,1-4.86.57c-1.77.11-3.54.17-5.3.17A22.7,22.7,0,0,1,155.2,40.79Zm12.74-12.36-9.83,1.88c-1.91.38-2.86,1.39-2.86,3a2.67,2.67,0,0,0,1.84,2.74,14.38,14.38,0,0,0,4.94.69c1.11,0,2.25,0,3.42-.16a22.6,22.6,0,0,0,2.49-.33Z"/><path class="cls-2" d="M197.76,16.58Q202,19.94,202,27.39q0,7.28-2.61,10.43-3,3.74-11.36,3.73c-1.49,0-3-.06-4.65-.19a45.72,45.72,0,0,1-5.23-.73,2.15,2.15,0,0,1-2-2.24V5.23c0-1.87.87-2.81,2.61-2.81h2.61a.67.67,0,0,1,.74.77V14.35a18.67,18.67,0,0,1,2.42-.29c1-.06,2.24-.09,3.73-.09Q195,14,197.76,16.58ZM182.1,20.7V36a21,21,0,0,0,2.42.27q1.3.09,3,.09,5.23,0,6.73-1.47,1.84-1.7,1.85-7.47c0-2.84-.5-4.9-1.5-6.15Q192.91,19,187.87,19q-3.92,0-5,.57A1,1,0,0,0,182.1,20.7Z"/><path class="cls-2" d="M203.67,27.29q0-7.74,4-10.58a16.63,16.63,0,0,1,9.87-2.85,16.92,16.92,0,0,1,9.92,2.85q4.08,2.84,4.08,10.58A26.2,26.2,0,0,1,231,33a10.65,10.65,0,0,1-2.2,4.54,10.77,10.77,0,0,1-4.3,3,22.57,22.57,0,0,1-13.86,0,10.18,10.18,0,0,1-4.23-3A10.9,10.9,0,0,1,204.25,33,26.2,26.2,0,0,1,203.67,27.29Zm21.75,0q0-4.37-1.6-6.34t-6.27-2q-4.68,0-6.29,2t-1.6,6.34c0,3.7.6,6.16,1.82,7.38s3.24,1.82,6.07,1.82,4.83-.61,6-1.82S225.42,31,225.42,27.29Z"/><path class="cls-2" d="M238.93,41.53h-4.6c-.42,0-.63-.24-.63-.71V23.91c0-3.41.89-5.89,2.66-7.42s4.39-2.3,7.88-2.3c.82,0,1.64,0,2.47.08s1.56.13,2.21.22a1.68,1.68,0,0,1,1.64,1.77l-.08,2.53q0,.57-.63.57l-2.41,0-3.39,0a5.44,5.44,0,0,0-3.31.84,3.44,3.44,0,0,0-1.1,2.89V40.82A.63.63,0,0,1,238.93,41.53Z"/><path class="cls-2" d="M257.75,40.79A9.65,9.65,0,0,1,254,38.87a5.58,5.58,0,0,1-1.72-2.63,10.71,10.71,0,0,1-.41-2.91,6,6,0,0,1,2.35-5.2,17.74,17.74,0,0,1,6.91-2.59l3.53-.57q1.49-.24,2.46-.45c.66-.13,1.19-.26,1.6-.37a10.54,10.54,0,0,0,1-.32,1.47,1.47,0,0,0,.57-.37,1.33,1.33,0,0,0,.16-.78,3.18,3.18,0,0,0-1.35-2.9c-.89-.57-2.5-.85-4.8-.85a46.56,46.56,0,0,0-6.8.36,21.87,21.87,0,0,1-3,.37c-.33,0-.49-.19-.49-.57l-.08-2.4a1.67,1.67,0,0,1,.45-1.51,3,3,0,0,1,1.42-.61q1.26-.16,3.42-.33c1.45-.11,3.23-.16,5.35-.16,4.11,0,7.1.75,9,2.25s2.83,4,2.83,7.58v14.6a2.14,2.14,0,0,1-2.07,2.28,41.13,41.13,0,0,1-4.86.57c-1.77.11-3.53.17-5.3.17A22.75,22.75,0,0,1,257.75,40.79Zm12.74-12.36-9.83,1.88c-1.91.38-2.86,1.39-2.86,3a2.68,2.68,0,0,0,1.84,2.74,14.42,14.42,0,0,0,4.94.69c1.11,0,2.25,0,3.42-.16a22.6,22.6,0,0,0,2.49-.33Z"/><path class="cls-2" d="M284.65,32.76a4.62,4.62,0,0,0,.76,3c.51.59,1.76.89,3.74.89.65,0,1.42,0,2.3-.09s1.59-.08,2.13-.08c.37,0,.55.19.55.58v2.64a1.74,1.74,0,0,1-.36,1.25,2.84,2.84,0,0,1-1.25.6,12.59,12.59,0,0,1-2,.16h-2.26q-5.31,0-7.51-2.16c-1.47-1.45-2.21-3.72-2.21-6.83V8.82a2.81,2.81,0,0,1,.72-2.08A2.59,2.59,0,0,1,281.19,6H284c.41,0,.62.22.62.65v7.38h7.79a.57.57,0,0,1,.65.65v3.46c0,.42-.21.63-.65.63h-7.13c-.44,0-.66.24-.66.73Z"/><path class="cls-2" d="M295.52,27.29q0-7.74,4-10.58a16.63,16.63,0,0,1,9.87-2.85,16.92,16.92,0,0,1,9.92,2.85q4.08,2.84,4.08,10.58a26.2,26.2,0,0,1-.58,5.7,10.54,10.54,0,0,1-2.2,4.54,10.77,10.77,0,0,1-4.3,3,22.57,22.57,0,0,1-13.86,0,10.18,10.18,0,0,1-4.23-3A10.9,10.9,0,0,1,296.1,33,26.2,26.2,0,0,1,295.52,27.29Zm21.75,0q0-4.37-1.6-6.34t-6.27-2q-4.68,0-6.29,2t-1.6,6.34q0,5.55,1.82,7.38t6.07,1.82c2.82,0,4.83-.61,6.05-1.82S317.27,31,317.27,27.29Zm.21-21.54A7.31,7.31,0,0,1,315,7.9l-2.07,1.28a16.05,16.05,0,0,1-5.39,1.71,6.37,6.37,0,0,1-2.45-1.69L315.91,0A4.8,4.8,0,0,1,318,1.33a4.64,4.64,0,0,1,.28,1.94A4.45,4.45,0,0,1,317.48,5.75Z"/><path class="cls-2" d="M330.78,41.53h-4.6c-.42,0-.63-.24-.63-.71V23.91c0-3.41.89-5.89,2.66-7.42s4.39-2.3,7.88-2.3c.82,0,1.64,0,2.46.08s1.57.13,2.22.22a1.68,1.68,0,0,1,1.64,1.77l-.08,2.53q0,.57-.63.57l-2.41,0-3.39,0a5.44,5.44,0,0,0-3.31.84,3.44,3.44,0,0,0-1.1,2.89V40.82A.63.63,0,0,1,330.78,41.53Z"/><path class="cls-2" d="M344,6.34c0-2.37,1.16-3.56,3.46-3.56S350.9,4,350.9,6.34s-1.14,3.44-3.43,3.44S344,8.63,344,6.34Zm1.07,35.3a.53.53,0,0,1-.6-.6V17.51a2.31,2.31,0,0,1,2.61-2.61h2.62a.52.52,0,0,1,.6.59V41a.53.53,0,0,1-.6.6Z"/><path class="cls-2" d="M353,27.29q0-7.74,4-10.58a16.59,16.59,0,0,1,9.87-2.85,16.91,16.91,0,0,1,9.91,2.85q4.08,2.84,4.08,10.58a26.2,26.2,0,0,1-.58,5.7,10.52,10.52,0,0,1-2.19,4.54,10.88,10.88,0,0,1-4.31,3,22.57,22.57,0,0,1-13.86,0,10.18,10.18,0,0,1-4.23-3A10.9,10.9,0,0,1,353.61,33,26.2,26.2,0,0,1,353,27.29Zm21.76,0q0-4.37-1.61-6.34t-6.26-2c-3.13,0-5.22.66-6.29,2S359,24.38,359,27.29q0,5.55,1.82,7.38c1.22,1.21,3.24,1.82,6.08,1.82s4.83-.61,6-1.82S374.79,31,374.79,27.29Z"/><path class="cls-2" d="M56.11,82h.11a3.41,3.41,0,0,0,1.11-.2,3.6,3.6,0,0,0,2.22-2.22,3.41,3.41,0,0,0,.2-1.11.41.41,0,0,0,0-.11A3.65,3.65,0,1,0,56.11,82Z"/><polygon class="cls-2" points="23 18.11 23 16.9 23 15.94 22.34 15.94 21.72 15.94 21.72 16.1 21.72 24.94 23 24.94 23 18.11"/><rect class="cls-2" x="21.72" y="27.31" width="1.28" height="1.72"/><path class="cls-2" d="M73.35,100a3.21,3.21,0,0,0-3.2-3.2H63.29V93.65l7.3-7.3a39,39,0,0,0,6.79-46.07.64.64,0,0,0-.87-.26h0a.63.63,0,0,0-.25.86,37.72,37.72,0,0,1-6.56,44.55l-6.4,6.4V78.15a6.36,6.36,0,0,0-.13-1.32A27.09,27.09,0,0,0,43,31.65H39.41v-1c2.5-.31,4.44-2.14,4.44-4.31s-1.94-4-4.44-4.3V21H43A37.69,37.69,0,0,1,74.61,38.12a.63.63,0,0,0,.88.19.64.64,0,0,0,.19-.89A39,39,0,0,0,43,19.71H39.41V15.13a2.45,2.45,0,0,0-2.63-2.21H34L32.46,6.3a.64.64,0,0,0-.76-.48l-1.1.24-.72-3.21a.63.63,0,0,0-.76-.48L21.92,4a.63.63,0,0,0-.49.76l.72,3.21-1.58.35a.63.63,0,0,0-.48.76L21,13a4,4,0,0,0-3.47,4v11.9a4,4,0,0,0,4,4h3.89V34.7h-12a.64.64,0,0,0-.64.64v3.25a.64.64,0,0,0,.64.64v1.82a.64.64,0,0,0,.64.64h1v3.48a.64.64,0,0,0,.64.64h.55v1.86h9.89V45.81h.54a.64.64,0,0,0,.64-.64V41.69h1.94v3.48a.64.64,0,0,0,.64.64h.46v1.86H35V45.81h.47a.64.64,0,0,0,.64-.64V41.69h.72a.64.64,0,0,0,.64-.64V39.23a.64.64,0,0,0,.63-.64V35.34a.64.64,0,0,0-.64-.64h-.61V32.81H38a.61.61,0,0,0,.37.12H43A25.84,25.84,0,0,1,68.8,58.74a25.55,25.55,0,0,1-6.07,16.63A7.18,7.18,0,0,0,56.12,71h-.33a6.94,6.94,0,0,0-5.63,3.46H39.79v-2.8a.63.63,0,0,0-.64-.64H11.69a.64.64,0,0,0-.64.64v2.8h-.74a2.55,2.55,0,0,0,0,5.1h3.28v2.6a.63.63,0,0,0,.64.64H36a.69.69,0,0,0,.2.41l6.87,6.39-3.38,7.23H37.31v-2.6a.63.63,0,0,0-.64-.64H33v-6a.64.64,0,0,0-.64-.64H18.51a.64.64,0,0,0-.64.64v6h-3.7a.64.64,0,0,0-.64.64v2.6H3.19A3.2,3.2,0,0,0,0,100v9.26a3.2,3.2,0,0,0,3.2,3.2h67a3.2,3.2,0,0,0,3.2-3.2v-1.34a.88.88,0,0,0,0-.16ZM36.15,40.41H14.7V39.23H36.15Zm-1.36,4.12H30.57V41.69h1.11l3.11,2.43Zm-8.72,0h-9.7V41.69h2.86l6.84,2.68ZM36.78,36v2H14.06V36H36.78ZM1.28,100A1.92,1.92,0,0,1,3.19,98.1h67A1.92,1.92,0,0,1,72.07,100v7.72H1.28V100Zm13.53-5.16H36v2H14.81Zm4.34-6.61H31.7v5.33H19.15ZM9.05,77a1.27,1.27,0,0,1,1.26-1.27H39.15v0h.64v0h9.74l0,0-.3.64-.3.64-.57,1.22h-38A1.27,1.27,0,0,1,9.05,77Zm3.28-4.71H38.51v2.16H12.33Zm38.91,2.85a5.64,5.64,0,0,1,4.61-2.87h.27a5.9,5.9,0,0,1,5.64,4.19,4.55,4.55,0,0,1,.17.75,4.61,4.61,0,0,1,.07.84.34.34,0,0,1,0,.1V96.82H58.44l-.06-.06L50.92,89.3v-.17l-.08.09-.45-.45-.11-.11-.35-.35L49.64,88l-3-3,2.54-5.44.3-.64.19-.4.11-.24.21-.45.32-.68.32-.69.2-.41h0l.19-.41A5.39,5.39,0,0,1,51.24,75.14ZM14.87,79.55H36v2H14.87Zm22.39,2.6v-2.6H47.74l-4.12,8.82-6.36-5.92Zm.87-62.41v2.74a.49.49,0,0,0,.2.39.63.63,0,0,0,.43.15H39a3.59,3.59,0,0,1,3.6,3.26A3.58,3.58,0,0,1,39,29.55h-.21a.63.63,0,0,0-.43.16.48.48,0,0,0-.2.38v1.63H37V14a1.22,1.22,0,0,1,1.15,1.12ZM18.81,16.92a2.7,2.7,0,0,1,2.47-2.7H32.92V31.53H21.52a2.71,2.71,0,0,1-2.71-2.71Zm4-11.84,3.68-.82V7l-3.1.69Zm.24,4,.62-.14,2.82-.62,2.94-.66.2,0,.62-.14.63-.14.46-.1,1.34,5.72H22.3L21.48,9.4l.95-.21Z"/><rect class="cls-2" x="6.58" y="104.11" width="27.39" height="1.28"/><rect class="cls-2" x="36.81" y="104.11" width="5.16" height="1.28"/><path class="cls-2" d="M26.5,64.29V60.87a.64.64,0,0,0-.64-.64.64.64,0,0,0-.64.64v3.42a.64.64,0,0,0,.64.64A.64.64,0,0,0,26.5,64.29Z"/><path class="cls-2" d="M23.3,66.06A.64.64,0,0,0,23.75,65L21.9,63.12a.63.63,0,0,0-.9,0A.65.65,0,0,0,21,64l1.85,1.85A.63.63,0,0,0,23.3,66.06Z"/><path class="cls-2" d="M28.87,65.88,30.72,64a.64.64,0,0,0-.91-.91L28,65a.65.65,0,0,0,0,.91.67.67,0,0,0,.91,0Z"/></svg>