<svg width="407" height="122" viewBox="0 0 407 122" fill="none" xmlns="http://www.w3.org/2000/svg">
<g clip-path="url(#clip0_144:1143)">
<path d="M182.019 16.1324V14.1485C182.26 14.1284 182.473 14.0967 182.689 14.0967C194.202 14.0967 205.716 14.0716 217.229 14.1468C222.298 14.1786 227.323 14.7101 232.135 16.4701C237.29 18.3554 241.444 21.4492 243.805 26.5103C247.445 34.3158 245.281 44.5482 235.023 49.1997C234.136 49.6026 233.218 49.9368 232.172 50.3597C232.675 50.5001 233.086 50.5954 233.482 50.7257C235.148 51.274 236.864 51.7136 238.467 52.4072C247.844 56.4654 251.545 66.7179 246.947 75.8304C243.78 82.1049 238.535 85.6132 231.741 87.0005C227.536 87.8579 223.274 88.1521 218.998 88.1705C206.898 88.2006 194.799 88.1855 182.698 88.1889H182.051V86.1832C182.698 86.1832 183.358 86.2082 184.017 86.1832C185.075 86.1314 186.154 86.1531 187.183 85.9458C190.525 85.2773 192.223 83.1846 192.53 79.4273C192.651 77.9581 192.721 76.4806 192.723 75.0064C192.736 59.128 192.736 43.2495 192.723 27.371C192.723 25.6211 192.565 23.8611 192.416 22.1245C192.034 17.6568 188.895 16.3815 185.632 16.1642C184.46 16.0673 183.285 16.1324 182.019 16.1324ZM203.298 82.8086C203.533 82.886 203.774 82.9485 204.017 82.9958C207.307 83.4303 210.586 84.0204 213.89 84.246C218.207 84.5402 222.516 84.2109 226.554 82.476C232.036 80.1226 235.666 76.1446 236.069 70.0289C236.491 63.6057 233.889 58.548 228.188 55.2737C225.469 53.7142 222.488 52.8752 219.409 52.4055C214.989 51.737 210.55 51.9292 206.111 52.1214C205.176 52.1615 204.247 52.3186 203.298 52.4256V82.8086ZM203.269 47.3528C203.438 47.4227 203.613 47.4786 203.791 47.52C209.855 48.3557 215.928 48.5596 221.983 47.52C232.348 45.7466 235.137 36.5605 233.597 30.2141C232.308 24.9024 228.805 21.3924 223.794 19.502C217.343 17.0684 210.715 17.3609 204.069 18.7248C203.407 18.8619 203.253 19.1427 203.254 19.7828C203.275 28.697 203.28 37.6113 203.269 46.5255V47.3528Z" fill="#00743F"/>
<path d="M127.397 89.8687H125.481V64.5033H127.374C127.796 66.2867 128.212 68.0684 128.648 69.8385C128.851 70.6474 129.111 71.4413 129.374 72.2336C131.845 79.6597 137.399 83.5023 144.726 85.1336C148.601 85.996 152.533 85.9693 156.273 84.465C160.763 82.6682 163.701 79.4842 164.274 74.5268C164.645 71.3344 163.483 68.5632 161.572 66.0744C160.125 64.2024 158.309 62.7182 156.268 61.5248C151.117 58.5079 145.905 55.5963 140.799 52.5092C137.855 50.7555 135.014 48.8341 132.291 46.7545C128.723 43.9933 126.15 40.4449 125.154 35.9505C123.444 28.2152 126.582 20.7205 133.42 16.0941C137.578 13.2811 142.228 12.2916 147.177 12.417C151.407 12.5206 155.361 13.7223 159.218 15.3586C160.263 15.8168 161.342 16.1978 162.444 16.4986C164.373 17 165.797 16.2445 166.543 14.426C166.629 14.2204 166.696 14.0065 166.764 13.7959C167.267 12.2348 167.267 12.2348 169.112 12.4838V37.9645H167.217C166.83 36.126 166.494 34.269 166.043 32.4489C164.11 24.6367 159.288 19.5639 151.48 17.4061C148.695 16.6356 145.837 16.4518 143.024 17.1654C138.26 18.3739 134.902 21.2002 133.67 26.0741C132.868 29.2414 133.693 32.1814 135.982 34.4763C137.741 36.2413 139.689 37.9027 141.8 39.2114C146.418 42.0746 151.19 44.692 155.908 47.4014C159.586 49.5107 163.372 51.4713 166.639 54.2024C172.076 58.7486 174.761 64.5284 173.941 71.6753C173.195 78.1788 169.559 82.8655 164.216 86.3437C160.628 88.6536 156.604 89.5879 152.387 89.8503C147.093 90.1846 142.085 88.9745 137.129 87.2897C135.33 86.6916 133.499 86.1944 131.644 85.8005C129.567 85.3442 128.388 86.118 127.808 88.1405C127.66 88.6736 127.551 89.2185 127.397 89.8687Z" fill="#00743F"/>
<path d="M334.818 86.2199V88.1204H305.565V86.2684C306.857 86.0612 308.159 85.9341 309.421 85.6316C311.591 85.1302 313.014 83.6844 313.051 81.9044C313.083 80.9307 312.941 79.9592 312.634 79.0345C311.569 76.0511 310.409 73.1027 309.238 70.1576C308.417 68.0901 307.505 66.0593 306.665 63.9985C306.478 63.5405 306.235 63.3784 305.737 63.3801C296.574 63.3951 287.409 63.3801 278.24 63.4101C277.956 63.4101 277.514 63.6274 277.415 63.8581C275.447 68.4032 273.511 72.9601 271.607 77.5286C271.244 78.4621 270.979 79.4306 270.817 80.4185C270.398 82.6682 271.347 84.4299 273.536 85.1235C275.092 85.6116 276.749 85.7837 278.362 86.0913C278.632 86.1431 278.909 86.1598 279.237 86.1999V88.1354H255.965V86.2032C256.91 85.9743 257.878 85.7369 258.847 85.5063C260.752 85.0566 262.346 84.0939 263.324 82.3924C264.833 79.7683 266.434 77.1659 267.631 74.398C276.415 54.1048 285.145 33.7843 293.821 13.4365C294.252 12.4336 294.914 12.086 295.954 12.4336C296.182 12.5088 296.373 12.8414 296.482 13.1022C298.676 18.3059 300.863 23.5123 303.043 28.7216C309.572 44.2624 316.111 59.801 322.66 75.3374C323.47 77.2511 324.505 79.0797 325.511 80.8998C327.259 84.0354 330.019 85.66 333.559 86.0478C333.97 86.0779 334.377 86.1548 334.818 86.2199ZM304.835 59.2884C300.617 49.27 296.452 39.3986 292.24 29.3818C287.901 39.4353 283.633 49.3218 279.329 59.2884H304.835Z" fill="#00743F"/>
<path d="M46.1093 30.8242C44.711 30.642 43.3931 30.4281 42.0668 30.3077C27.498 28.989 13.9368 39.2665 11.3329 53.5755C8.95202 66.6494 16.6313 79.8168 29.4681 84.6639C41.7834 89.3154 55.7403 85.0717 63.5051 74.3128C63.6828 74.0671 63.8639 73.8231 64.1103 73.4855C64.2478 73.7562 64.3618 73.9534 64.4457 74.1624C65.787 77.3715 67.1049 80.589 68.4698 83.7847C68.7179 84.3647 68.6374 84.714 68.2132 85.1603C61.5651 92.0816 53.5069 96.1917 43.9313 97.2279C24.2619 99.3423 5.7009 86.5693 1.21071 67.4199C-2.14269 53.0758 1.98869 40.6772 12.6357 30.5852C20.3385 23.2861 29.7213 19.8631 40.3582 19.848C41.2435 19.848 41.6728 20.1238 42.0048 20.9495C43.2187 23.9697 44.5198 26.9532 45.7857 29.9517C45.8997 30.2225 45.9919 30.5033 46.1093 30.8242Z" fill="#00743F"/>
<path d="M88.9187 75.0466L80.9208 79.0713C79.6432 76.0761 78.3924 73.1395 77.0409 69.9738C75.8186 73.661 74.3163 76.9938 72.1668 80.1427C72.049 79.9496 71.9415 79.7504 71.8449 79.546C70.3358 75.8087 68.8117 72.0731 67.3262 68.3224C67.176 67.9468 67.1519 67.5329 67.2574 67.1424C71.8398 53.4468 65.1213 39.5474 52.8378 33.3548C52.5894 33.2405 52.3662 33.0783 52.1811 32.8775C51.996 32.6766 51.8528 32.4412 51.7597 32.1848C50.3295 28.5929 48.8707 25.0127 47.4238 21.4275C47.3315 21.1985 47.2561 20.9645 47.1136 20.5918C50.2188 21.1334 53.0725 22.0961 56.0571 23.4182C55.8458 22.9936 55.7318 22.7362 55.5943 22.4922C52.6483 17.2156 48.1514 13.7825 42.5965 11.6063C37.9923 9.80116 33.1987 9.03565 28.2658 8.97715C26.5891 8.95709 24.9124 8.99553 23.2357 8.95375C22.9524 8.95375 22.5248 8.72811 22.4225 8.49411C21.2941 5.89506 20.1975 3.27428 19.0993 0.65851C19.0723 0.552131 19.0543 0.443657 19.0457 0.334256C19.6962 0.279099 20.3233 0.208899 20.9521 0.167114C28.5458 -0.275811 36.091 0.0768574 43.5154 1.8168C48.0575 2.88317 51.8586 5.3836 55.2841 8.4423C61.9019 14.3141 67.051 21.6467 70.3207 29.8548C76.2915 44.6619 82.4785 59.382 88.5733 74.1473C88.6973 74.4181 88.7896 74.7123 88.9187 75.0466Z" fill="#00743F"/>
<path d="M405.473 69.77L406.982 70.7327C406.992 70.8531 407.02 70.9182 406.998 70.9567C404.27 75.8038 400.947 80.1796 396.496 83.611C391.979 87.0959 386.813 88.9879 381.179 89.6013C374.853 90.2899 368.615 89.8337 362.613 87.5739C353.492 84.1408 347.4 77.5621 343.468 68.854C340.953 63.2732 340.055 57.3564 340.189 51.2691C340.387 42.1816 343.009 33.8863 348.572 26.6341C354.635 18.7383 362.734 14.2104 372.576 12.7613C380.015 11.6715 387.086 12.8883 393.796 16.2596C394.562 16.6572 395.355 17.0018 396.169 17.2908C397.644 17.7923 398.996 17.4446 399.933 16.2312C400.596 15.343 401.12 14.3596 401.487 13.3145C401.755 12.5791 402.057 12.2515 402.829 12.3786C403.123 12.3995 403.418 12.3995 403.712 12.3786C404.277 20.7691 404.838 29.1206 405.397 37.4331C403.766 37.7356 403.769 37.7339 403.337 36.3885C402.119 32.6077 400.555 28.9891 398.216 25.7482C394.227 20.2208 388.744 17.2407 382.021 16.4752C377.413 15.9504 372.945 16.5304 368.659 18.3739C362.816 20.8811 359.062 25.3772 356.515 31.0349C354.54 35.4257 353.52 40.0605 353.037 44.8141C352.574 49.3954 352.486 53.9868 353.007 58.5748C353.488 62.8052 354.494 66.8951 356.347 70.7511C359.137 76.5643 363.512 80.7478 369.546 83.0377C376.89 85.8239 384.283 85.8975 391.58 82.7936C395.372 81.1807 398.261 78.3761 400.92 75.3358C402.471 73.5741 403.917 71.6904 405.473 69.77Z" fill="#00743F"/>
<path d="M8.32984 109.874C7.81677 108.37 7.08405 106.66 5.22794 106.66C4.07941 106.66 3.12704 107.609 3.12704 109.021C3.12704 110.434 3.98216 111.164 5.86844 112.236C8.21582 113.503 9.87407 114.841 9.87407 117.25C9.87407 119.904 7.72455 121.998 4.30408 121.998C3.56198 121.994 2.82336 121.897 2.10593 121.708C1.46543 121.512 1.02614 121.345 0.658942 121.198C0.439295 120.539 0.16767 118.714 0 117.3L0.838349 117.033C1.30279 118.518 2.52511 121.044 4.74673 121.044C6.11492 121.044 6.99518 120.041 6.99518 118.585C6.99518 117.196 6.06629 116.245 4.33259 115.242C2.14953 114.014 0.367197 112.653 0.367197 110.313C0.367197 107.781 2.2233 105.735 5.59346 105.735C6.65338 105.758 7.70222 105.955 8.69703 106.32C8.76913 107.246 8.94015 108.293 9.1598 109.73L8.32984 109.874Z" fill="#00743F"/>
<path d="M22.5952 116.083C22.5952 120.028 20.0801 121.977 17.3974 121.977C13.8562 121.977 12.146 119.175 12.146 116.546C12.146 112.535 14.9964 110.629 17.4712 110.629C20.6418 110.629 22.5952 113.185 22.5952 116.083ZM15.439 115.694C15.439 118.737 16.2204 121.042 17.6187 121.042C18.4571 121.042 19.2954 120.36 19.2954 116.782C19.2954 113.518 18.5141 111.545 17.1711 111.545C16.2438 111.554 15.439 112.869 15.439 115.694Z" fill="#00743F"/>
<path d="M33.5155 119.468C32.4893 120.929 31.096 121.975 29.6071 121.975C26.48 121.975 24.7212 119.468 24.7212 116.794C24.7212 115.04 25.5763 113.31 27.139 112.094C28.4586 111.091 29.8502 110.633 30.8512 110.633C31.6577 110.633 32.3904 110.9 32.7811 111.216C33.1718 111.532 33.2707 111.801 33.2455 112.094C33.2455 112.872 32.5614 113.457 32.2194 113.457C32.0735 113.457 31.9276 113.384 31.7063 113.165C30.8277 112.287 30.1688 111.849 29.5082 111.849C28.4586 111.849 27.6521 113.165 27.6521 115.552C27.6521 118.863 29.6071 119.837 30.6316 119.837C31.5856 119.837 32.2194 119.568 33.051 118.886L33.5155 119.468Z" fill="#00743F"/>
<path d="M34.7849 121.679V120.923C36.0558 120.778 36.1782 120.681 36.1782 119.025V114.01C36.1782 112.506 36.0558 112.451 34.9073 112.209V111.55C36.3446 111.345 37.7651 111.036 39.1577 110.626V119.026C39.1577 120.658 39.3053 120.78 40.5997 120.925V121.679H34.7849ZM35.8815 107.584C35.8779 107.146 36.0479 106.725 36.3544 106.412C36.6609 106.099 37.0791 105.92 37.5179 105.912C37.7365 105.912 37.9529 105.955 38.1544 106.039C38.356 106.123 38.5385 106.247 38.6911 106.403C38.8437 106.559 38.9634 106.744 39.043 106.947C39.1226 107.149 39.1604 107.366 39.1544 107.584C39.1589 107.804 39.1191 108.022 39.0375 108.227C38.9559 108.431 38.8341 108.617 38.6793 108.774C38.5244 108.931 38.3396 109.055 38.1359 109.139C37.9321 109.224 37.7134 109.267 37.4928 109.265C37.0578 109.248 36.6464 109.064 36.3457 108.75C36.045 108.436 35.8785 108.018 35.8815 107.584Z" fill="#00743F"/>
<path d="M51.0051 119.444C49.6856 121.44 47.9267 121.977 46.9257 121.977C43.8473 121.977 42.1136 119.541 42.1136 116.795C42.0918 115.146 42.7037 113.551 43.8238 112.338C44.751 111.365 46.022 110.634 47.365 110.634C49.5648 110.634 51.1275 112.582 51.1024 114.554C51.1024 115.09 51.0051 115.358 50.4434 115.455C50.1081 115.528 47.2191 115.747 44.9724 115.844C45.0445 118.45 46.4378 119.839 48.0491 119.839C49.0551 119.839 49.7845 119.521 50.5642 118.836L51.0051 119.444ZM45.0931 114.719C46.0471 114.719 46.8771 114.696 47.7758 114.647C48.1665 114.647 48.2889 114.525 48.2889 114.086C48.2889 112.869 47.801 111.554 46.9475 111.554C46.0941 111.554 45.2155 112.869 45.0931 114.719Z" fill="#00743F"/>
<path d="M64.6115 121.051C63.9274 121.148 61.8517 121.44 60.1163 121.977V120.686L58.9191 121.522C58.3574 121.911 57.9667 121.985 57.6247 121.985C55.6462 121.985 53.0574 120.255 53.0574 116.677C53.0574 113.364 55.6713 110.638 59.1891 110.638C59.5009 110.653 59.811 110.693 60.1163 110.758V107.973C60.1163 106.636 60.0442 106.511 58.6508 106.341V105.634C60.1599 105.486 62.0462 105.147 63.0974 104.806V118.759C63.0974 120.001 63.2433 120.123 63.976 120.22L64.6115 120.292V121.051ZM60.1163 112.892C59.7809 112.017 59.2125 111.627 58.6274 111.627C58.0891 111.627 56.3789 112.212 56.4041 115.986C56.4041 118.933 57.9433 120.175 59.018 120.175C59.4097 120.196 59.7971 120.084 60.1163 119.857V112.892Z" fill="#00743F"/>
<path d="M73.503 121.977C72.9976 121.99 72.5069 121.806 72.1349 121.465C71.8846 121.234 71.6922 120.948 71.5732 120.63C70.817 121.166 69.7422 121.967 69.1554 121.967C68.3364 121.974 67.5478 121.658 66.9618 121.088C66.3759 120.518 66.0403 119.739 66.0283 118.923C66.0283 117.681 66.5665 116.974 67.7637 116.511C68.8871 116.073 70.8656 115.416 71.4273 114.905V113.902C71.4273 112.49 70.7918 111.759 70.1077 111.759C69.7422 111.759 69.4974 111.881 69.2291 112.222C68.9609 112.563 68.7882 113.075 68.6171 113.854C68.4713 114.439 68.1778 114.634 67.7386 114.634C67.1031 114.634 66.1993 114.146 66.1993 113.464C66.1993 113.075 66.4676 112.734 67.0058 112.344C67.9582 111.687 69.4723 110.84 70.9142 110.616C71.7787 110.604 72.619 110.9 73.2834 111.452C74.1134 112.157 74.3347 113.123 74.3347 114.276V118.636C74.3347 119.707 74.67 120.048 75.0909 120.048C75.3505 120.047 75.6076 119.997 75.8487 119.901L76.0684 120.656L73.503 121.977ZM71.4273 115.888C70.988 116.132 70.5722 116.399 70.1329 116.668C69.4488 117.081 69.1067 117.472 69.1067 118.3C69.1067 119.493 69.9367 120.126 70.5722 120.126C70.73 120.131 70.8872 120.104 71.0342 120.047C71.1812 119.989 71.315 119.903 71.4273 119.792V115.888Z" fill="#00743F"/>
<path d="M88.7477 121.051C88.0636 121.148 85.9862 121.44 84.2525 121.977V120.686L83.0553 121.522C82.4936 121.911 82.1029 121.985 81.7609 121.985C79.7824 121.985 77.1919 120.255 77.1919 116.677C77.1919 113.364 79.8059 110.638 83.3236 110.638C83.636 110.653 83.9466 110.693 84.2525 110.758V107.973C84.2525 106.636 84.1787 106.511 82.787 106.341V105.634C84.2961 105.486 86.1824 105.147 87.232 104.806V118.759C87.232 120.001 87.3795 120.123 88.1122 120.22L88.7477 120.292V121.051ZM84.2525 112.892C83.9171 112.017 83.3487 111.627 82.7619 111.627C82.2253 111.627 80.5151 112.212 80.5386 115.986C80.5386 118.933 82.0778 120.175 83.1526 120.175C83.5447 120.196 83.9326 120.084 84.2525 119.857V112.892Z" fill="#00743F"/>
<path d="M99.0794 119.444C97.7615 121.44 96.0026 121.977 95 121.977C91.9232 121.977 90.1878 119.541 90.1878 116.795C90.166 115.146 90.7779 113.551 91.8981 112.338C92.827 111.365 94.0962 110.634 95.4409 110.634C97.6391 110.634 99.2018 112.582 99.1783 114.554C99.1783 115.09 99.0794 115.358 98.5177 115.455C98.1823 115.528 95.2934 115.747 93.0466 115.844C93.1204 118.45 94.512 119.839 96.1233 119.839C97.1294 119.839 97.8587 119.521 98.6384 118.836L99.0794 119.444ZM93.169 114.719C94.1214 114.719 94.9513 114.696 95.8517 114.647C96.2424 114.647 96.3648 114.525 96.3648 114.086C96.3648 112.869 95.8769 111.554 95.0234 111.554C94.17 111.554 93.2914 112.869 93.169 114.719Z" fill="#00743F"/>
<path d="M114.47 113.233C117.01 113.568 118.794 114.768 118.794 117.009C118.794 118.714 117.914 119.906 116.668 120.636C115.422 121.367 113.663 121.679 111.782 121.679H106.115V120.875C107.874 120.73 108.045 120.511 108.045 118.513V109.187C108.045 107.215 107.899 106.996 106.237 106.847V106.045H112.776C114.584 106.045 115.707 106.287 116.611 106.897C117.036 107.2 117.381 107.602 117.615 108.068C117.849 108.534 117.964 109.05 117.952 109.571C117.952 111.788 116.121 112.811 114.46 113.126L114.47 113.233ZM111.668 112.943C113.792 112.943 114.696 112.042 114.696 109.996C114.686 107.806 113.469 106.971 112.272 106.971C111.759 106.971 111.49 107.093 111.343 107.24C111.195 107.387 111.098 107.75 111.098 108.36V112.938L111.668 112.943ZM111.105 118.518C111.105 120.19 111.497 120.71 112.669 120.71C113.938 120.686 115.352 119.707 115.352 117.228C115.352 114.987 114.034 113.867 111.591 113.867H111.098L111.105 118.518Z" fill="#00743F"/>
<path d="M124.949 113.136C125.732 111.652 126.562 110.629 127.515 110.629C127.711 110.629 127.905 110.668 128.086 110.744C128.266 110.821 128.43 110.932 128.567 111.072C128.703 111.213 128.81 111.379 128.881 111.561C128.952 111.743 128.986 111.938 128.98 112.133C128.973 112.507 128.858 112.871 128.65 113.181C128.442 113.492 128.15 113.737 127.806 113.887C127.489 114.009 127.268 113.96 127.097 113.813C126.732 113.497 126.463 113.327 126.091 113.327C125.675 113.327 125.285 113.472 124.894 114.398V119.219C124.894 120.705 125.016 120.801 126.653 120.923V121.679H120.528V120.923C121.774 120.801 121.921 120.656 121.921 119.219V113.87C121.921 112.58 121.774 112.458 120.724 112.199V111.542C122.145 111.382 123.545 111.072 124.901 110.616V113.148L124.949 113.136Z" fill="#00743F"/>
<path d="M137.897 121.977C137.391 121.99 136.9 121.807 136.528 121.465C136.278 121.235 136.085 120.948 135.967 120.629C135.209 121.166 134.134 121.967 133.549 121.967C132.73 121.974 131.941 121.658 131.355 121.088C130.769 120.518 130.434 119.739 130.422 118.923C130.422 117.681 130.958 116.974 132.156 116.511C133.279 116.073 135.259 115.416 135.821 114.905V113.902C135.821 112.49 135.185 111.759 134.501 111.759C134.134 111.759 133.891 111.881 133.621 112.222C133.378 112.54 133.182 113.075 133.011 113.853C132.865 114.438 132.571 114.634 132.132 114.634C131.497 114.634 130.593 114.146 130.593 113.464C130.593 113.075 130.861 112.734 131.399 112.344C132.352 111.687 133.866 110.84 135.308 110.616C136.172 110.604 137.012 110.9 137.677 111.452C138.515 112.157 138.727 113.123 138.727 114.276V118.635C138.727 119.707 139.062 120.048 139.484 120.048C139.744 120.046 140.001 119.996 140.242 119.901L140.462 120.656L137.897 121.977ZM135.821 115.888C135.38 116.132 134.966 116.399 134.525 116.668C133.842 117.081 133.5 117.472 133.5 118.299C133.5 119.493 134.33 120.126 134.966 120.126C135.123 120.131 135.281 120.103 135.427 120.046C135.574 119.989 135.708 119.902 135.821 119.792V115.888Z" fill="#00743F"/>
<path d="M147.962 113.991C147.301 112.359 146.594 111.507 145.614 111.507C144.905 111.507 144.369 112.189 144.369 112.894C144.369 113.675 144.905 114.231 146.005 114.769C147.838 115.67 149.181 116.548 149.181 118.423C149.181 120.833 147.001 121.978 145.053 121.978C143.758 121.978 142.561 121.515 142.097 121.143C141.951 120.681 141.761 119 141.729 118.099L142.439 117.953C143 119.488 144.027 121.071 145.395 121.071C146.151 121.071 146.664 120.437 146.664 119.682C146.664 118.926 146.25 118.269 144.955 117.587C143.758 116.931 141.999 116.005 141.999 114.057C141.999 112.207 143.391 110.624 145.931 110.624C146.696 110.607 147.454 110.756 148.155 111.062C148.351 111.622 148.619 113.35 148.668 113.716L147.962 113.991Z" fill="#00743F"/>
<path d="M150.796 121.679V120.924C152.065 120.778 152.187 120.681 152.187 119.025V114.011C152.187 112.506 152.065 112.451 150.918 112.209V111.55C152.355 111.344 153.776 111.035 155.168 110.626V119.027C155.168 120.658 155.314 120.78 156.609 120.925V121.679H150.796ZM151.894 107.579C151.89 107.142 152.06 106.72 152.367 106.407C152.673 106.094 153.092 105.915 153.53 105.908C153.749 105.907 153.965 105.95 154.167 106.034C154.369 106.118 154.551 106.242 154.704 106.398C154.857 106.554 154.977 106.739 155.056 106.941C155.136 107.144 155.174 107.361 155.168 107.579C155.173 107.799 155.133 108.017 155.051 108.222C154.969 108.426 154.848 108.612 154.693 108.768C154.538 108.925 154.353 109.049 154.15 109.134C153.946 109.218 153.727 109.261 153.507 109.26C153.072 109.244 152.661 109.06 152.36 108.747C152.06 108.434 151.892 108.017 151.894 107.584V107.579Z" fill="#00743F"/>
<path d="M157.831 121.679V120.924C159.172 120.756 159.271 120.608 159.271 119.05V108.019C159.271 106.558 159.222 106.484 157.93 106.289V105.634C159.389 105.458 160.834 105.182 162.254 104.806V119.055C162.254 120.686 162.375 120.783 163.719 120.929V121.679H157.831Z" fill="#00743F"/>
<path d="M174.098 119.444C172.78 121.44 171.021 121.977 170.019 121.977C166.942 121.977 165.207 119.541 165.207 116.795C165.185 115.146 165.797 113.551 166.917 112.338C167.846 111.365 169.115 110.634 170.46 110.634C172.658 110.634 174.221 112.582 174.197 114.554C174.197 115.09 174.098 115.358 173.536 115.455C173.201 115.528 170.312 115.747 168.065 115.844C168.139 118.45 169.531 119.839 171.144 119.839C172.15 119.839 172.877 119.521 173.659 118.836L174.098 119.444ZM168.188 114.719C169.14 114.719 169.97 114.696 170.87 114.647C171.261 114.647 171.384 114.525 171.384 114.086C171.384 112.869 170.896 111.554 170.042 111.554C169.189 111.554 168.31 112.869 168.188 114.719Z" fill="#00743F"/>
<path d="M175.688 121.679V120.924C176.957 120.778 177.08 120.681 177.08 119.025V114.011C177.08 112.506 176.957 112.451 175.809 112.209V111.55C177.247 111.345 178.668 111.036 180.061 110.626V119.027C180.061 120.658 180.207 120.78 181.501 120.925V121.679H175.688ZM176.786 107.579C176.783 107.142 176.953 106.72 177.259 106.407C177.566 106.094 177.984 105.915 178.423 105.908C178.641 105.907 178.858 105.95 179.059 106.034C179.261 106.118 179.444 106.242 179.596 106.398C179.749 106.554 179.869 106.739 179.949 106.941C180.029 107.144 180.067 107.361 180.061 107.579C180.065 107.799 180.025 108.017 179.944 108.222C179.862 108.426 179.74 108.612 179.585 108.768C179.43 108.925 179.246 109.049 179.042 109.134C178.838 109.218 178.62 109.261 178.399 109.26C177.965 109.244 177.554 109.06 177.253 108.747C176.952 108.434 176.785 108.017 176.786 107.584V107.579Z" fill="#00743F"/>
<path d="M187.365 113.136C188.146 111.652 188.976 110.629 189.928 110.629C190.124 110.629 190.319 110.668 190.499 110.744C190.68 110.821 190.844 110.932 190.981 111.072C191.118 111.213 191.225 111.379 191.296 111.561C191.367 111.743 191.401 111.938 191.395 112.133C191.388 112.507 191.274 112.871 191.066 113.181C190.858 113.492 190.565 113.737 190.222 113.887C189.905 114.009 189.685 113.96 189.514 113.813C189.147 113.497 188.879 113.327 188.508 113.327C188.094 113.327 187.703 113.472 187.313 114.398V119.219C187.313 120.705 187.433 120.801 189.071 120.923V121.679H182.94V120.923C184.185 120.801 184.331 120.656 184.331 119.219V113.87C184.331 112.58 184.185 112.458 183.134 112.199V111.542C184.556 111.382 185.957 111.072 187.313 110.616V113.148L187.365 113.136Z" fill="#00743F"/>
<path d="M200.31 121.977C199.805 121.99 199.314 121.806 198.942 121.465C198.692 121.234 198.499 120.948 198.38 120.63C197.624 121.166 196.549 121.967 195.962 121.967C195.144 121.974 194.355 121.658 193.769 121.088C193.183 120.518 192.847 119.739 192.835 118.923C192.835 117.681 193.374 116.974 194.571 116.511C195.694 116.073 197.673 115.416 198.234 114.905V113.902C198.234 112.49 197.599 111.759 196.915 111.759C196.549 111.759 196.305 111.881 196.036 112.222C195.768 112.563 195.595 113.075 195.426 113.854C195.278 114.439 194.985 114.634 194.546 114.634C193.91 114.634 193.006 114.146 193.006 113.464C193.006 113.075 193.275 112.734 193.813 112.344C194.765 111.687 196.279 110.84 197.721 110.616C198.586 110.604 199.426 110.9 200.091 111.452C200.929 112.157 201.142 113.123 201.142 114.276V118.636C201.142 119.707 201.477 120.048 201.898 120.048C202.158 120.047 202.415 119.997 202.656 119.901L202.876 120.656L200.31 121.977ZM198.234 115.888C197.795 116.132 197.379 116.399 196.94 116.668C196.256 117.081 195.914 117.472 195.914 118.3C195.914 119.493 196.752 120.126 197.379 120.126C197.537 120.131 197.694 120.104 197.841 120.047C197.988 119.989 198.122 119.903 198.234 119.792V115.888Z" fill="#00743F"/>
<path d="M220.903 121.051C220.219 121.148 218.143 121.44 216.408 121.977V120.686L215.211 121.522C214.649 121.911 214.258 121.985 213.916 121.985C211.938 121.985 209.349 120.255 209.349 116.677C209.349 113.364 211.963 110.638 215.481 110.638C215.793 110.653 216.103 110.693 216.408 110.758V107.973C216.408 106.636 216.336 106.511 214.943 106.341V105.634C216.452 105.486 218.338 105.147 219.389 104.806V118.759C219.389 120.001 219.535 120.123 220.268 120.22L220.903 120.292V121.051ZM216.408 112.892C216.073 112.017 215.504 111.627 214.919 111.627C214.381 111.627 212.671 112.212 212.696 115.986C212.696 118.933 214.235 120.175 215.31 120.175C215.701 120.196 216.089 120.084 216.408 119.857V112.892Z" fill="#00743F"/>
<path d="M231.237 119.444C229.917 121.44 228.158 121.977 227.157 121.977C224.079 121.977 222.345 119.541 222.345 116.795C222.323 115.146 222.935 113.551 224.056 112.338C224.983 111.365 226.254 110.634 227.597 110.634C229.795 110.634 231.359 112.582 231.334 114.554C231.334 115.09 231.237 115.358 230.675 115.455C230.34 115.528 227.451 115.747 225.202 115.844C225.276 118.45 226.67 119.839 228.281 119.839C229.287 119.839 230.015 119.521 230.796 118.836L231.237 119.444ZM225.325 114.719C226.277 114.719 227.109 114.696 228.008 114.647C228.398 114.647 228.521 114.525 228.521 114.086C228.521 112.869 228.031 111.554 227.179 111.554C226.328 111.554 225.447 112.869 225.325 114.719Z" fill="#00743F"/>
<path d="M246.235 121.679V120.875C247.529 120.708 247.651 120.412 247.261 119.219C247.041 118.488 246.748 117.516 246.454 116.712H242.283C242.088 117.32 241.818 118.124 241.55 119.073C241.184 120.364 241.282 120.656 242.918 120.875V121.679H237.856V120.875C239.25 120.73 239.615 120.462 240.276 118.61L244.868 105.996L246.015 105.729C247.457 109.942 248.777 114.106 250.265 118.294C251.023 120.467 251.317 120.73 252.66 120.875V121.679H246.235ZM244.427 110.185H244.355C243.72 111.987 243.23 113.716 242.645 115.47H246.064L244.427 110.185Z" fill="#00743F"/>
<path d="M260.502 121.679V120.924C261.479 120.802 261.602 120.73 261.602 119.17V114.719C261.602 113.039 260.941 112.48 260.093 112.48C259.483 112.48 259.018 112.699 258.433 113.185V119.249C258.433 120.71 258.579 120.807 259.483 120.92V121.679H253.961V120.924C255.329 120.778 255.452 120.73 255.452 119.17V113.915C255.452 112.455 255.378 112.358 254.278 112.139V111.505C255.688 111.336 257.078 111.034 258.431 110.604V112.309C258.919 111.975 259.335 111.627 259.798 111.306C260.433 110.892 260.898 110.624 261.656 110.624C263.56 110.624 264.586 112.109 264.586 114.35V119.197C264.586 120.731 264.732 120.78 265.857 120.925V121.679H260.502Z" fill="#00743F"/>
<path d="M274.987 121.977C274.482 121.99 273.992 121.807 273.62 121.465C273.37 121.234 273.177 120.948 273.057 120.629C272.301 121.166 271.226 121.967 270.639 121.967C269.82 121.974 269.032 121.658 268.446 121.088C267.86 120.518 267.524 119.739 267.512 118.923C267.512 117.681 268.05 116.974 269.248 116.511C270.371 116.073 272.349 115.416 272.911 114.905V113.902C272.911 112.49 272.276 111.759 271.592 111.759C271.226 111.759 270.981 111.881 270.713 112.222C270.445 112.563 270.274 113.075 270.103 113.854C269.955 114.439 269.662 114.634 269.222 114.634C268.587 114.634 267.683 114.146 267.683 113.464C267.683 113.075 267.953 112.734 268.49 112.344C269.442 111.687 270.958 110.84 272.398 110.616C273.263 110.603 274.103 110.9 274.767 111.452C275.606 112.157 275.819 113.123 275.819 114.276V118.635C275.819 119.707 276.154 120.048 276.575 120.048C276.834 120.047 277.092 119.997 277.333 119.901L277.552 120.656L274.987 121.977ZM272.911 115.888C272.472 116.132 272.056 116.399 271.617 116.668C270.933 117.081 270.591 117.472 270.591 118.299C270.591 119.493 271.429 120.126 272.056 120.126C272.214 120.131 272.371 120.104 272.518 120.047C272.665 119.989 272.799 119.903 272.911 119.792V115.888ZM271.177 109.478C271.543 108.381 272.276 106.135 272.447 105.634C272.765 105.466 274.425 105.267 274.962 105.366L275.084 105.608L272.006 109.774L271.177 109.478Z" fill="#00743F"/>
<path d="M278.359 121.679V120.924C279.7 120.756 279.801 120.608 279.801 119.05V108.019C279.801 106.558 279.75 106.484 278.459 106.289V105.634C279.918 105.458 281.363 105.182 282.783 104.806V119.055C282.783 120.686 282.906 120.783 284.249 120.929V121.679H278.359Z" fill="#00743F"/>
<path d="M285.639 121.679V120.924C286.908 120.778 287.031 120.681 287.031 119.025V114.011C287.031 112.506 286.908 112.451 285.76 112.209V111.55C287.197 111.345 288.617 111.036 290.01 110.626V119.027C290.01 120.658 290.158 120.78 291.452 120.925V121.679H285.639ZM286.737 107.579C286.734 107.142 286.904 106.72 287.21 106.407C287.517 106.094 287.935 105.915 288.374 105.908C288.592 105.907 288.809 105.95 289.01 106.034C289.212 106.118 289.394 106.242 289.547 106.398C289.699 106.554 289.819 106.739 289.899 106.942C289.978 107.145 290.016 107.361 290.01 107.579C290.015 107.799 289.975 108.017 289.893 108.222C289.812 108.426 289.69 108.612 289.536 108.768C289.381 108.925 289.196 109.049 288.993 109.134C288.789 109.218 288.571 109.261 288.35 109.26C287.916 109.244 287.505 109.06 287.204 108.747C286.903 108.434 286.736 108.017 286.737 107.584V107.579Z" fill="#00743F"/>
<path d="M299.244 113.991C298.585 112.359 297.877 111.507 296.896 111.507C296.187 111.507 295.651 112.189 295.651 112.894C295.651 113.675 296.187 114.231 297.287 114.769C299.123 115.662 300.464 116.546 300.464 118.421C300.464 120.832 298.285 121.977 296.336 121.977C295.042 121.977 293.845 121.514 293.38 121.141C293.233 120.68 293.045 118.998 293.013 118.097L293.722 117.952C294.284 119.486 295.31 121.069 296.678 121.069C297.435 121.069 297.948 120.436 297.948 119.68C297.948 118.925 297.534 118.268 296.237 117.586C295.042 116.929 293.283 116.003 293.283 114.056C293.283 112.205 294.675 110.623 297.215 110.623C297.979 110.605 298.738 110.754 299.438 111.061C299.634 111.62 299.903 113.349 299.951 113.715L299.244 113.991Z" fill="#00743F"/>
<path d="M311.385 119.444C310.067 121.44 308.308 121.977 307.305 121.977C304.228 121.977 302.493 119.541 302.493 116.795C302.471 115.146 303.083 113.551 304.203 112.338C305.132 111.365 306.401 110.634 307.744 110.634C309.944 110.634 311.507 112.582 311.482 114.554C311.482 115.09 311.385 115.358 310.823 115.455C310.488 115.528 307.599 115.747 305.352 115.844C305.424 118.45 306.817 119.839 308.429 119.839C309.435 119.839 310.164 119.521 310.944 118.836L311.385 119.444ZM305.474 114.719C306.427 114.719 307.257 114.696 308.157 114.647C308.548 114.647 308.67 114.525 308.67 114.086C308.67 112.869 308.182 111.554 307.329 111.554C306.45 111.554 305.595 112.869 305.474 114.719Z" fill="#00743F"/>
<path d="M319.543 113.991C318.884 112.359 318.175 111.507 317.196 111.507C316.487 111.507 315.95 112.189 315.95 112.894C315.95 113.675 316.487 114.231 317.587 114.769C319.418 115.67 320.762 116.548 320.762 118.423C320.762 120.833 318.583 121.978 316.634 121.978C315.338 121.978 314.141 121.515 313.678 121.143C313.531 120.681 313.343 119 313.311 118.099L314.02 117.953C314.582 119.488 315.608 121.071 316.976 121.071C317.733 121.071 318.246 120.437 318.246 119.682C318.246 118.926 317.83 118.269 316.535 117.587C315.338 116.931 313.579 116.005 313.579 114.057C313.579 112.207 314.973 110.624 317.513 110.624C318.277 110.607 319.036 110.756 319.736 111.062C319.931 111.622 320.201 113.35 320.249 113.716L319.543 113.991Z" fill="#00743F"/>
<path d="M341.114 117.811C340.821 118.883 340.333 120.588 339.966 121.417C339.355 121.584 337.548 122 336.032 122C330.316 122 328.118 117.91 328.118 114.111C328.118 109.167 331.441 105.734 336.644 105.734C338.183 105.734 339.672 106.1 340.333 106.245C340.501 107.582 340.625 108.68 340.747 109.996L339.909 110.163C339.151 107.532 337.759 106.705 336.146 106.705C333.386 106.705 331.653 109.993 331.653 113.621C331.653 117.979 333.631 120.999 336.269 120.999C338.004 120.999 339.225 119.683 340.276 117.517L341.114 117.811Z" fill="#00743F"/>
<path d="M342.408 121.679V120.924C343.75 120.756 343.85 120.608 343.85 119.05V108.019C343.85 106.558 343.8 106.484 342.509 106.289V105.634C343.968 105.458 345.413 105.182 346.833 104.806V119.055C346.833 120.686 346.956 120.783 348.299 120.929V121.679H342.408Z" fill="#00743F"/>
<path d="M349.664 121.679V120.9C350.935 120.753 351.106 120.583 351.106 118.951V114.062C351.106 112.602 351.08 112.503 349.786 112.236V111.554C351.239 111.346 352.675 111.037 354.085 110.629V118.956C354.085 120.613 354.207 120.758 355.527 120.905V121.679H349.664ZM351.617 109.478C351.984 108.381 352.717 106.135 352.888 105.634C353.205 105.466 354.866 105.267 355.403 105.366L355.525 105.608L352.442 109.777L351.617 109.478Z" fill="#00743F"/>
<path d="M363.393 121.679V120.924C364.368 120.802 364.491 120.73 364.491 119.17V114.719C364.491 113.039 363.832 112.48 362.982 112.48C362.371 112.48 361.907 112.699 361.32 113.185V119.249C361.32 120.71 361.468 120.807 362.371 120.92V121.679H356.85V120.924C358.218 120.778 358.341 120.73 358.341 119.17V113.915C358.341 112.455 358.267 112.358 357.167 112.139V111.505C358.576 111.335 359.966 111.034 361.318 110.604V112.309C361.808 111.975 362.222 111.627 362.687 111.306C363.322 110.892 363.787 110.624 364.543 110.624C366.449 110.624 367.475 112.109 367.475 114.35V119.197C367.475 120.731 367.621 120.78 368.745 120.925V121.679H363.393Z" fill="#00743F"/>
<path d="M370.329 121.679V120.924C371.6 120.778 371.722 120.681 371.722 119.025V114.011C371.722 112.506 371.6 112.451 370.451 112.209V111.55C371.889 111.345 373.309 111.036 374.702 110.626V119.027C374.702 120.658 374.849 120.78 376.144 120.925V121.679H370.329ZM371.429 107.579C371.425 107.142 371.595 106.72 371.902 106.407C372.208 106.094 372.626 105.915 373.065 105.908C373.284 105.907 373.5 105.95 373.702 106.034C373.903 106.118 374.086 106.242 374.238 106.398C374.391 106.554 374.511 106.739 374.59 106.942C374.67 107.145 374.708 107.361 374.702 107.579C374.706 107.799 374.666 108.017 374.585 108.222C374.503 108.426 374.382 108.612 374.227 108.768C374.072 108.925 373.888 109.049 373.684 109.134C373.481 109.218 373.262 109.261 373.042 109.26C372.607 109.244 372.196 109.06 371.895 108.747C371.594 108.434 371.427 108.017 371.429 107.584V107.579Z" fill="#00743F"/>
<path d="M386.429 119.468C385.402 120.929 384.009 121.975 382.518 121.975C379.393 121.975 377.634 119.468 377.634 116.794C377.634 115.04 378.489 113.31 380.052 112.094C381.372 111.091 382.763 110.633 383.764 110.633C384.571 110.633 385.304 110.9 385.694 111.216C386.085 111.532 386.184 111.801 386.159 112.094C386.159 112.872 385.475 113.457 385.132 113.457C384.987 113.457 384.841 113.384 384.619 113.165C383.741 112.287 383.082 111.849 382.421 111.849C381.372 111.849 380.565 113.165 380.565 115.552C380.565 118.863 382.519 119.837 383.545 119.837C384.499 119.837 385.132 119.568 385.964 118.886L386.429 119.468Z" fill="#00743F"/>
<path d="M395.491 121.977C394.986 121.99 394.495 121.807 394.123 121.465C393.872 121.235 393.679 120.949 393.561 120.63C392.803 121.166 391.729 121.967 391.142 121.967C390.323 121.974 389.535 121.658 388.949 121.088C388.363 120.518 388.028 119.739 388.016 118.923C388.016 117.681 388.553 116.974 389.75 116.511C390.873 116.073 392.852 115.416 393.414 114.905V113.902C393.414 112.49 392.78 111.759 392.096 111.759C391.729 111.759 391.484 111.881 391.216 112.222C390.947 112.563 390.776 113.075 390.605 113.854C390.458 114.439 390.166 114.634 389.725 114.634C389.091 114.634 388.187 114.146 388.187 113.464C388.187 113.075 388.456 112.734 388.992 112.344C389.945 111.687 391.46 110.84 392.901 110.616C393.766 110.604 394.606 110.9 395.271 111.452C396.101 112.157 396.321 113.123 396.321 114.276V118.636C396.321 119.707 396.656 120.048 397.079 120.048C397.338 120.047 397.595 119.997 397.835 119.901L398.055 120.656L395.491 121.977ZM393.414 115.888C392.974 116.132 392.559 116.399 392.119 116.668C391.435 117.081 391.093 117.472 391.093 118.3C391.093 119.493 391.931 120.126 392.559 120.126C392.716 120.131 392.874 120.104 393.021 120.047C393.168 119.989 393.301 119.903 393.414 119.792V115.888Z" fill="#00743F"/>
<path d="M405.555 113.991C404.896 112.359 404.187 111.507 403.207 111.507C402.498 111.507 401.962 112.189 401.962 112.894C401.962 113.675 402.498 114.231 403.598 114.769C405.429 115.67 406.774 116.548 406.774 118.423C406.774 120.833 404.594 121.978 402.644 121.978C401.35 121.978 400.152 121.515 399.69 121.143C399.542 120.681 399.354 119 399.323 118.099L400.032 117.953C400.593 119.488 401.62 121.071 402.986 121.071C403.744 121.071 404.257 120.437 404.257 119.682C404.257 118.926 403.841 118.269 402.547 117.587C401.35 116.931 399.591 116.005 399.591 114.057C399.591 112.207 400.984 110.624 403.524 110.624C404.289 110.607 405.047 110.756 405.748 111.062C405.942 111.622 406.212 113.35 406.261 113.716L405.555 113.991Z" fill="#00743F"/>
</g>
<defs>
<clipPath id="clip0_144:1143">
<rect width="407" height="122" fill="white"/>
</clipPath>
</defs>
</svg>
