<svg width="22" height="22" viewBox="0 0 22 22" fill="none" xmlns="http://www.w3.org/2000/svg">
<g clip-path="url(#clip0_144:983)">
<path d="M21.9619 6.28882C21.9269 5.38716 21.7431 4.49749 21.4179 3.65579C21.171 2.94845 20.761 2.30921 20.2211 1.78981C19.7008 1.23431 19.0582 0.807759 18.3442 0.544016C17.5035 0.222581 16.6113 0.056679 15.7112 0.0544016C14.5143 0 14.09 0 11.0326 0C7.87191 0 7.48566 0 6.3269 0.0380811C5.42556 0.0603967 4.53409 0.231339 3.68843 0.544016C2.9834 0.792414 2.34625 1.20228 1.82789 1.74085C1.26911 2.27023 0.847197 2.92737 0.598417 3.65579C0.27437 4.4958 0.108377 5.38847 0.108803 6.28882C0.0380811 7.48566 0 7.92087 0 11C0 14.0791 0.0380811 14.4436 0.070722 15.6731C0.105229 16.5748 0.289062 17.4646 0.614738 18.3061C0.87284 19.0163 1.27895 19.6635 1.80613 20.2048C2.34894 20.7313 2.99557 21.1389 3.70475 21.4016C4.54817 21.7274 5.43973 21.9112 6.34322 21.9456C7.39861 21.9782 7.83383 22.0054 9.85213 22.0109H10.9402V13.0183H8.07319V10.777H10.9075V7.80663C10.9075 5.41296 12.2948 3.99852 14.6177 3.99852C15.4228 3.99852 16.1518 4.04204 16.6251 4.08012V5.98417H15.4228C13.4807 5.98417 13.2468 7.20821 13.2468 8.12216V10.7661H16.4456L16.1573 13.0074H13.2577V21.9837H14.3457L15.7329 21.9402C16.6347 21.9057 17.5244 21.7218 18.366 21.3961C19.0732 21.1314 19.7155 20.7181 20.2494 20.1842C20.7834 19.6502 21.1967 19.0079 21.4614 18.3007C21.7834 17.4601 21.9494 16.5678 21.951 15.6677C22.0218 14.4382 22.0218 14.0356 22.0218 10.9946C22.0218 7.95351 22 7.5183 21.9619 6.28882ZM20.7705 15.635C20.7713 16.4057 20.6273 17.1697 20.3462 17.8872C20.1429 18.4387 19.8242 18.9405 19.4114 19.3589C18.9986 19.7773 18.5012 20.1028 17.9525 20.3136C17.2348 20.5936 16.4707 20.7357 15.7003 20.7324C15.1889 20.7651 14.8299 20.7814 14.3511 20.7923V14.0846H16.7502C16.8516 14.0841 16.9497 14.0486 17.028 13.9842C17.1063 13.9198 17.16 13.8303 17.18 13.731C17.1853 13.7004 17.1853 13.6691 17.18 13.6385L17.6207 10.2384C17.6233 10.2076 17.6233 10.1767 17.6207 10.1459C17.6197 10.0449 17.5849 9.94706 17.5217 9.86816C17.4586 9.78926 17.3709 9.73381 17.2725 9.71068H14.3239V8.16024C14.3239 7.42038 14.4273 7.07221 15.412 7.07221H17.686V3.49802C17.6857 3.3974 17.651 3.29989 17.5877 3.22171C17.5244 3.14352 17.4362 3.08937 17.3378 3.06825H17.2453C16.3762 2.97541 15.5026 2.93001 14.6286 2.93225C11.68 2.93225 9.85213 4.8091 9.85213 7.82839V9.73244H7.40405C7.29484 9.74191 7.19308 9.79175 7.11864 9.87223C7.0442 9.9527 7.00243 10.058 7.00148 10.1677V13.6602C7.00148 13.7786 7.04848 13.892 7.13214 13.9757C7.2158 14.0593 7.32926 14.1063 7.44758 14.1063H9.84125V20.7977C7.81207 20.7977 7.38229 20.7977 6.39219 20.7324C5.61302 20.7349 4.84016 20.5928 4.11276 20.3136C3.561 20.098 3.05791 19.7743 2.63304 19.3615C2.22718 18.9343 1.90598 18.4341 1.68645 17.8872C1.43782 17.1607 1.29492 16.4022 1.26212 15.635C1.22948 14.411 1.19683 14.0574 1.19683 11C1.19683 7.94263 1.22948 7.55638 1.26212 6.36499C1.29686 5.58559 1.43967 4.81479 1.68645 4.07468C1.90822 3.51993 2.24363 3.01774 2.67112 2.6004C3.08694 2.19037 3.57593 1.86192 4.11276 1.63205C4.8482 1.38621 5.61687 1.25412 6.39219 1.24036C7.6271 1.17507 8.02423 1.17507 11.0326 1.17507C14.041 1.17507 14.4436 1.17507 15.6731 1.24036C16.4492 1.24593 17.2191 1.37824 17.9525 1.63205C18.5129 1.84031 19.0175 2.17546 19.4268 2.61128C19.8356 3.02677 20.1493 3.52607 20.3462 4.07468C20.6255 4.80602 20.7693 5.58212 20.7705 6.36499C20.8412 7.58902 20.8412 7.99703 20.8412 11C20.8412 14.003 20.8412 14.3729 20.7705 15.635Z" fill="white"/>
</g>
<defs>
<clipPath id="clip0_144:983">
<rect width="22" height="22" fill="white"/>
</clipPath>
</defs>
</svg>
