<svg width="22" height="22" viewBox="0 0 22 22" fill="none" xmlns="http://www.w3.org/2000/svg">
<g clip-path="url(#clip0_144:977)">
<path d="M21.9673 6.29116C21.9328 5.38832 21.7487 4.49747 21.4226 3.65487C21.1761 2.94923 20.7675 2.31122 20.2298 1.79203C19.7094 1.23262 19.0634 0.805064 18.3451 0.544689C17.5042 0.219755 16.6103 0.0535396 15.7088 0.0544689C14.516 0 14.0911 0 11.0354 0C7.87076 0 7.48403 0 6.32384 0.0326814C5.42285 0.0567705 4.53206 0.229776 3.68755 0.544689C2.9816 0.790052 2.34469 1.20096 1.83016 1.74301C1.26954 2.26995 0.846845 2.92644 0.599158 3.65487C0.27476 4.49611 0.10678 5.38954 0.103491 6.29116C0.0326814 7.48403 0 7.90889 0 11.0027C0 14.0966 0.0326814 14.4452 0.0708096 15.6762C0.105359 16.579 0.28942 17.4699 0.615499 18.3125C0.870525 19.0198 1.27137 19.6656 1.79203 20.208C2.33292 20.7345 2.97883 21.141 3.68755 21.4008C4.52951 21.7291 5.42073 21.9132 6.32384 21.9455C7.55484 21.9837 7.95791 22.0163 11.0027 22.0163C14.0475 22.0163 14.4778 21.9837 15.7088 21.9455C16.612 21.9137 17.5033 21.7296 18.3451 21.4008C19.052 21.1379 19.6942 20.726 20.228 20.1932C20.7618 19.6603 21.1748 19.0189 21.439 18.3125C21.7634 17.4714 21.9296 16.5776 21.9292 15.6762C22 14.4452 22 14.0421 22 11.0027C22 7.96336 22 7.52216 21.9673 6.29116ZM20.769 15.638C20.7731 16.4077 20.6308 17.1711 20.3496 17.8876C20.1427 18.4416 19.8193 18.9448 19.4011 19.363C18.9829 19.7812 18.4798 20.1046 17.9257 20.3115C17.2096 20.5945 16.4462 20.7387 15.6762 20.7363C14.4778 20.8071 14.1292 20.8071 11.0354 20.8071C7.94157 20.8071 7.55484 20.8071 6.39465 20.7363C5.61412 20.7376 4.84018 20.5936 4.1124 20.3115C3.56023 20.1008 3.05764 19.7781 2.6363 19.3637C2.22758 18.9378 1.90568 18.4365 1.68854 17.8876C1.44004 17.1619 1.29696 16.4043 1.26368 15.638C1.231 14.407 1.19287 14.0584 1.19287 11.0027C1.19287 7.94702 1.231 7.55484 1.26368 6.36197C1.29889 5.58344 1.44187 4.81354 1.68854 4.07428C1.90536 3.51903 2.23983 3.01731 2.66898 2.60362C3.08406 2.19155 3.57397 1.86249 4.1124 1.63407C4.84967 1.39228 5.6189 1.26194 6.39465 1.24734C7.62565 1.17653 8.02872 1.17653 11.0354 1.17653C14.0421 1.17653 14.4452 1.17653 15.6762 1.24734C16.4417 1.25747 17.2008 1.38798 17.9257 1.63407C18.4872 1.84451 18.9924 2.18193 19.4018 2.61996C19.8175 3.02551 20.1408 3.51601 20.3496 4.05794C20.629 4.78818 20.7712 5.56375 20.769 6.34563C20.8398 7.57663 20.8398 7.9797 20.8398 10.9864C20.8398 13.9931 20.8398 14.3744 20.769 15.638Z" fill="white"/>
<path d="M11.0355 5.55039C9.95682 5.54392 8.90053 5.85786 8.0005 6.45243C7.10047 7.04699 6.39725 7.8954 5.97997 8.8901C5.56269 9.8848 5.45015 10.981 5.65662 12.0397C5.86308 13.0985 6.37925 14.0721 7.1397 14.8371C7.90014 15.6021 8.87061 16.1242 9.92809 16.337C10.9856 16.5498 12.0824 16.4439 13.0796 16.0326C14.0768 15.6213 14.9294 14.9232 15.5294 14.0268C16.1294 13.1304 16.4497 12.076 16.4497 10.9973C16.4497 9.55832 15.8803 8.17781 14.8659 7.15726C13.8515 6.1367 12.4744 5.55902 11.0355 5.55039ZM11.0355 15.2513C10.1939 15.2513 9.3712 15.0017 8.67151 14.534C7.97182 14.0663 7.42658 13.4016 7.10476 12.624C6.78295 11.8463 6.69902 10.9907 6.8636 10.1654C7.02819 9.34001 7.43389 8.58203 8.02937 7.98731C8.62485 7.39259 9.38335 6.98786 10.2089 6.82434C11.0345 6.66081 11.89 6.74583 12.6672 7.06864C13.4444 7.39146 14.1084 7.93755 14.5752 8.63784C15.042 9.33813 15.2906 10.1611 15.2895 11.0027C15.2838 12.1287 14.8336 13.2068 14.0369 14.0025C13.2402 14.7982 12.1615 15.247 11.0355 15.2513Z" fill="white"/>
<path d="M18.0619 4.90217C18.0587 5.08495 18.0017 5.26274 17.8981 5.41339C17.7946 5.56403 17.649 5.68086 17.4794 5.74932C17.3099 5.81778 17.124 5.83485 16.9449 5.79839C16.7657 5.76193 16.6013 5.67356 16.472 5.54429C16.3428 5.41503 16.2544 5.25057 16.2179 5.07143C16.1815 4.89229 16.1985 4.70638 16.267 4.53687C16.3355 4.36736 16.4523 4.22175 16.6029 4.11817C16.7536 4.0146 16.9314 3.95765 17.1142 3.95441C17.239 3.95295 17.3629 3.97647 17.4786 4.02358C17.5942 4.07069 17.6993 4.14045 17.7876 4.22875C17.8759 4.31705 17.9456 4.42211 17.9927 4.53776C18.0399 4.6534 18.0634 4.7773 18.0619 4.90217Z" fill="white"/>
</g>
<defs>
<clipPath id="clip0_144:977">
<rect width="22" height="22" fill="white"/>
</clipPath>
</defs>
</svg>
