<svg width="25" height="25" viewBox="0 0 25 25" fill="none" xmlns="http://www.w3.org/2000/svg">
<path fill-rule="evenodd" clip-rule="evenodd" d="M23.1299 7.42004C22.5205 5.96338 21.6341 4.63889 20.5199 3.52004C19.4019 2.40064 18.0736 1.51336 16.6114 0.909262C15.1492 0.305161 13.582 -0.00384066 11.9999 3.60295e-05C9.89279 -0.00131542 7.82249 0.552175 5.99719 1.60484C4.17188 2.65751 2.65594 4.17224 1.60181 5.9967C0.547675 7.82116 -0.00747486 9.89102 -0.00781235 11.9981C-0.00814983 14.1052 0.546337 16.1752 1.59988 18L1.67988 18.14L0.299884 23.24C0.276108 23.3275 0.275595 23.4196 0.298398 23.5073C0.321201 23.595 0.366527 23.6752 0.429884 23.74C0.492558 23.8034 0.571034 23.8489 0.657187 23.8717C0.743339 23.8946 0.834036 23.894 0.919884 23.87L6.11988 22.51L6.26988 22.58C8.45278 23.7851 10.9568 24.2802 13.4341 23.9966C15.9113 23.7131 18.2387 22.6649 20.0928 20.9977C21.9469 19.3305 23.2356 17.1272 23.7799 14.6939C24.3242 12.2607 24.097 9.71825 23.1299 7.42004ZM18.4999 20.57C16.632 21.9919 14.3474 22.7582 11.9999 22.75C10.9857 22.7429 9.97699 22.6017 8.99988 22.33C8.14115 22.0783 7.32039 21.7117 6.55988 21.24C6.47794 21.1926 6.38458 21.1683 6.28988 21.17H6.10988L2.27988 22.17C2.24116 22.18 2.20051 22.1797 2.16192 22.1692C2.12334 22.1587 2.08817 22.1383 2.05988 22.11C2.03326 22.0827 2.01384 22.0493 2.00337 22.0126C1.99289 21.976 1.9917 21.9373 1.99988 21.9L3.06988 18L2.91988 17.76C1.89259 16.1354 1.32012 14.2649 1.2622 12.3436C1.20429 10.4224 1.66305 8.52075 2.59063 6.83722C3.5182 5.15369 4.88059 3.74995 6.53564 2.77247C8.19069 1.79498 10.0777 1.27958 11.9999 1.28004C13.4114 1.27699 14.8094 1.55481 16.1124 2.09732C17.4155 2.63984 18.5976 3.4362 19.5899 4.44004C20.5942 5.42573 21.3911 6.60238 21.9338 7.90072C22.4765 9.19906 22.754 10.5928 22.7499 12C22.7581 13.6609 22.378 15.3006 21.6402 16.7885C20.9023 18.2764 19.8269 19.5714 18.4999 20.57Z" fill="white"/>
<path fill-rule="evenodd" clip-rule="evenodd" d="M17.6899 14.62C17.3699 14.46 15.8499 13.71 15.5599 13.62C15.2699 13.53 15.0699 13.47 14.8599 13.77C14.6499 14.07 14.0599 14.77 13.8599 14.99C13.6599 15.21 13.4999 15.23 13.1899 15.07C12.2721 14.7084 11.4257 14.187 10.6899 13.53C10.0271 12.8937 9.45808 12.1664 8.99989 11.37C8.81989 11.06 8.99989 10.91 9.13989 10.73C9.41701 10.3944 9.67093 10.0402 9.89989 9.67004C9.9422 9.58454 9.96421 9.49043 9.96421 9.39504C9.96421 9.29964 9.9422 9.20554 9.89989 9.12004C9.81989 8.98004 9.19989 7.45004 8.89989 6.83004C8.59989 6.21004 8.39989 6.30004 8.19989 6.29004H7.61989C7.46186 6.2928 7.3062 6.32898 7.16314 6.39619C7.02009 6.46341 6.89289 6.56015 6.78989 6.68004C6.4389 7.01074 6.1607 7.41096 5.97302 7.85518C5.78535 8.2994 5.69233 8.77786 5.69989 9.26004C5.80828 10.4346 6.26046 11.5511 6.99989 12.47C8.33851 14.4628 10.1671 16.0778 12.3099 17.16C12.8873 17.4095 13.4782 17.6265 14.0799 17.81C14.7113 18.0035 15.3795 18.0446 16.0299 17.93C16.4628 17.8441 16.873 17.6691 17.2346 17.416C17.5961 17.1629 17.901 16.8374 18.1299 16.46C18.3207 15.9983 18.3729 15.4909 18.2799 15C18.1999 14.86 17.9999 14.78 17.6899 14.62Z" fill="white"/>
</svg>
