<svg width="289" height="103" viewBox="0 0 289 103" fill="none" xmlns="http://www.w3.org/2000/svg">
<g clip-path="url(#clip0_129:371)">
<path d="M0.0999756 21.5667C1.95445 19.8934 4.36527 19.1498 6.59064 18.2202C7.51788 17.8483 8.53784 17.4765 9.46508 17.1976C9.83597 17.1046 10.1141 16.8258 10.2069 16.5469C13.7304 8.08749 20.0356 2.69579 28.9371 0.743625C37.2822 -1.11558 44.7928 0.836585 51.3762 6.32124C52.4889 7.25084 53.4161 8.27341 54.4361 9.29597C54.6215 9.48189 54.7143 9.66781 54.8997 9.85373C55.1779 10.3185 55.0852 10.9693 54.6215 11.2481C54.3434 11.4341 53.8798 11.4341 53.6016 11.2481C53.4161 11.1552 53.2307 11.0622 53.0452 10.8763C49.6145 8.18045 45.4419 6.4142 41.1766 5.9494C33.3878 4.92684 25.599 7.80861 20.4992 13.7581C20.3138 14.0369 20.0356 14.2229 19.8501 14.5017C19.8501 14.5947 19.7574 14.6877 19.7574 14.7806C20.4992 14.6877 21.1483 14.5947 21.7973 14.5017C24.1154 14.2229 26.3408 14.0369 28.6589 13.851C31.2552 13.6651 33.8514 13.6651 36.4477 13.851C43.1238 14.1299 49.6145 15.5243 55.7342 18.0342C58.0523 18.9638 60.2777 20.2653 62.2249 21.7526C63.523 22.7752 64.7284 23.9837 65.6557 25.3781C67.881 28.5387 67.9738 32.722 65.8411 35.9756C64.6357 37.9277 63.0594 39.601 61.2977 40.9025C58.4232 43.0406 55.1779 44.8068 51.7471 46.1082C50.6344 46.573 49.5217 46.9449 48.409 47.3167C48.1309 47.4097 47.8527 47.5026 47.5745 47.5026C47.1109 47.5956 46.74 47.3167 46.5546 46.8519C46.3691 46.4801 46.5546 46.0153 46.9255 45.7364C47.2964 45.4575 47.76 45.2716 48.1309 45.0857C49.8926 44.249 51.6544 43.3194 53.3234 42.2969C54.6215 41.4602 55.827 40.5306 56.8469 39.4151C57.5887 38.6714 58.1451 37.8348 58.7014 36.9052C59.7214 35.2319 59.8141 33.0938 58.8868 31.3276C58.3305 30.212 57.5887 29.0965 56.6615 28.2599C55.3633 27.0514 53.9725 26.0288 52.3962 25.2851C49.3363 23.7048 46.1837 22.4963 42.8456 21.7526C39.5076 20.916 36.1695 20.3582 32.8315 19.9864C28.9371 19.6146 25.1354 19.5216 21.241 19.6146C19.8501 19.6146 18.4593 19.8005 17.0684 19.8934C16.6975 19.8934 16.3266 20.0794 16.2339 20.4512C15.5848 22.0315 15.1212 23.7048 14.9358 25.4711C14.1013 30.8628 15.2139 36.3474 18.1811 40.9954C19.2011 42.5757 20.4065 44.0631 21.7046 45.3646C21.8901 45.5505 22.0755 45.6434 22.1682 45.8294C22.5391 46.1082 22.5391 46.666 22.3537 47.0378C22.1682 47.5026 21.7046 47.6886 21.241 47.5026C20.8701 47.4097 20.5919 47.2238 20.3138 47.0378C12.4322 41.925 7.88877 33.0008 8.63056 23.6119C8.72328 22.7752 8.81601 22.0315 8.90873 21.1949C8.63056 21.1949 8.44511 21.1949 8.16694 21.2878L2.41807 22.6823L1.95445 22.7752C1.39811 23.0541 0.656318 22.7752 0.285423 22.2174C0.285423 22.1245 0.192699 22.1245 0.0999756 22.0315L0.0999756 21.5667Z" fill="#00743F"/>
<path d="M141.967 102.907L141.04 102.721C137.609 102.256 134.828 99.5604 134.271 96.0279C133.715 93.611 133.808 91.101 134.642 88.777C135.662 85.5234 138.537 83.1994 141.967 82.9205C143.451 82.7346 144.842 82.7346 146.325 83.0135L147.16 83.1064V77.157C147.067 76.3203 147.531 75.5767 148.18 75.1119C148.829 74.6471 149.478 74.2752 150.22 73.9963C150.405 74.5541 150.405 100.769 150.22 101.699C149.385 101.884 148.458 102.163 147.531 102.349C146.882 102.535 146.233 102.535 145.491 102.628C145.305 102.628 145.12 102.721 144.935 102.814L141.967 102.907ZM147.067 85.8023C145.769 85.4305 144.471 85.3375 143.173 85.4305C140.762 85.4305 138.629 87.0108 137.888 89.2418C136.96 91.4729 136.96 93.9828 137.702 96.3998C138.258 98.5378 140.02 100.025 142.153 100.304C143.173 100.397 144.193 100.397 145.213 100.304C145.862 100.304 146.511 100.118 147.16 99.8393L147.067 85.8023Z" fill="#00743F"/>
<path d="M162.645 102.907L161.532 102.721C157.916 102.256 155.134 99.3746 154.578 95.8421C154.022 93.4251 154.207 91.0081 154.949 88.6841C155.32 87.4757 155.876 86.4531 156.711 85.5235C158.472 83.4784 161.161 82.4558 163.85 82.9206C167.466 83.3854 169.599 85.8953 170.248 89.2419C170.434 90.5433 170.526 91.8448 170.341 93.1462C170.341 93.2392 170.248 93.4251 170.248 93.5181H157.452C157.452 93.611 157.36 93.7969 157.36 93.8899C157.36 95.2843 157.823 96.5858 158.565 97.7942C159.492 99.2816 161.161 100.211 163.016 100.304C164.87 100.397 166.632 100.211 168.394 99.6534L169.228 99.4675C169.414 100.211 169.414 100.955 169.228 101.699C169.228 101.884 168.857 102.07 168.672 102.07C167.559 102.349 166.447 102.535 165.334 102.814L164.592 103L162.645 102.907ZM167.281 91.0081C167.374 89.8926 167.188 88.8701 166.725 87.8475C165.89 85.8953 163.758 84.7798 161.718 85.2446C160.419 85.5235 159.214 86.2672 158.472 87.3827C157.823 88.4053 157.36 89.7067 157.36 90.9152L167.281 91.0081Z" fill="#00743F"/>
<path d="M121.475 102.907L119.992 102.628C116.746 102.163 114.243 99.5605 113.965 96.3999C113.872 95.5632 113.779 94.7266 113.779 93.9829V83.1066C114.799 82.8277 115.912 82.8277 116.932 83.1066V93.704C116.932 94.3548 117.025 95.0984 117.117 95.7492C117.303 98.1661 119.343 100.118 121.754 100.211C123.423 100.397 125.092 100.211 126.761 99.7464V83.0136C127.781 82.7347 128.893 82.7347 129.913 83.0136V101.606C129.728 101.699 129.635 101.792 129.45 101.792C127.781 102.256 126.019 102.535 124.257 102.721C123.979 102.721 123.793 102.814 123.608 102.907H121.475Z" fill="#00743F"/>
<path d="M100.984 102.907L99.5927 102.628C98.7582 102.442 97.9236 102.163 97.0891 101.698C95.6055 100.769 94.6783 99.2815 94.6783 97.5152C94.5856 96.8645 94.6783 96.1208 94.771 95.4701C95.0492 93.8898 96.0692 92.4954 97.5527 91.8446C98.8509 91.1939 100.242 90.8221 101.633 90.8221C102.838 90.8221 104.043 90.915 105.249 90.915H105.991C106.64 88.591 105.342 86.267 103.116 85.5233L102.931 85.4304C101.633 85.2445 100.334 85.2445 99.0363 85.4304C98.1091 85.5233 97.1818 85.7093 96.1619 85.8952C95.9764 85.1515 95.9764 84.4078 96.1619 83.7571C96.2546 83.5712 96.3473 83.4782 96.5328 83.3852C99.0363 82.6416 101.633 82.5486 104.136 83.1064C106.825 83.7571 108.772 85.9881 109.05 88.684C109.143 89.3347 109.143 89.8925 109.143 90.5432V101.791C108.123 102.163 107.011 102.349 105.898 102.535L104.136 102.814L100.984 102.907ZM106.176 93.332C105.991 93.239 105.898 93.239 105.712 93.239C104.136 93.0531 102.56 93.0531 100.984 93.239C100.427 93.332 99.7781 93.5179 99.2218 93.7968C98.48 94.0757 97.9236 94.7264 97.7382 95.4701C97.0891 97.3293 98.0164 99.3744 99.8708 100.025C99.9636 100.118 100.149 100.118 100.242 100.118L100.891 100.304C102.282 100.49 103.673 100.49 104.971 100.211C105.342 100.118 105.712 100.025 106.083 100.025V93.332H106.176Z" fill="#00743F"/>
<path d="M83.7368 102.907C83.0877 102.814 82.4387 102.721 81.6969 102.628C80.8624 102.442 80.1206 102.163 79.2861 101.977C79.0079 101.884 78.7297 101.605 78.7297 101.327C78.637 100.676 78.637 99.9322 78.8225 99.2814L79.5642 99.5603C81.1405 100.118 82.9023 100.397 84.5713 100.304C85.3131 100.304 85.9622 100.118 86.6113 99.8392C88.0021 99.2814 88.6512 97.7011 88.0948 96.3997C87.9094 96.0278 87.7239 95.656 87.353 95.3771C86.704 94.9123 85.9622 94.4475 85.2204 94.0756C84.4786 93.7038 83.7368 93.4249 82.995 93.0531C82.1605 92.6812 81.4187 92.2164 80.6769 91.6587C78.637 89.9854 78.3588 87.0107 80.0279 84.9655C80.2133 84.6867 80.4915 84.5007 80.7697 84.2219C81.8823 83.3852 83.2732 82.8275 84.7568 82.7345C86.5185 82.6415 88.373 82.8275 90.1348 83.3852C90.5056 83.4782 90.7838 83.85 90.7838 84.2219C90.7838 84.7796 90.7838 85.4303 90.6911 85.9881L90.042 85.8951C88.5585 85.4303 87.0749 85.2444 85.4986 85.4303C84.8495 85.5233 84.2004 85.6163 83.6441 85.8951C82.6241 86.4529 82.1605 87.6614 82.6241 88.7769C82.7169 89.0558 82.995 89.3347 83.1805 89.5206C83.5514 89.7995 83.9223 90.0784 84.3859 90.2643C85.4058 90.7291 86.4258 91.1939 87.4458 91.7516C88.1876 92.1235 88.8366 92.4953 89.4857 92.9601C91.8038 94.6334 92.3601 97.98 90.6911 100.304C90.1348 101.048 89.4857 101.605 88.6512 101.977C87.9094 102.256 87.0749 102.535 86.3331 102.721L85.7767 102.907H83.7368Z" fill="#00743F"/>
<path d="M87.2603 22.4033V36.1614L87.9093 35.8826C90.042 35.1389 92.2674 34.86 94.4927 35.0459C95.6054 35.1389 96.8108 35.3248 97.8308 35.6966C100.891 36.7192 103.301 39.1362 104.414 42.2039C105.434 45.0856 105.805 48.1533 105.434 51.128C105.249 53.2661 104.6 55.4042 103.487 57.3564C101.632 60.517 98.4799 62.841 94.9564 63.6777C93.3801 64.0495 91.8037 64.3284 90.2274 64.3284C86.9821 64.4214 83.8295 64.0495 80.7696 63.1199C80.3987 63.027 80.0278 62.841 79.5642 62.7481V28.8176C79.4715 27.5161 80.1206 26.3077 81.1405 25.564C83.0877 24.2625 85.1276 23.147 87.2603 22.4033ZM87.2603 57.7282C87.4457 57.8212 87.5385 57.9141 87.7239 57.9141C89.3002 58.193 90.8765 58.193 92.3601 57.8212C94.7709 57.2634 96.6254 55.4042 97.1817 52.9873C97.8308 50.9421 97.9235 48.7111 97.5526 46.573C97.3672 45.6434 97.089 44.7138 96.6254 43.8771C95.9763 42.6687 94.8636 41.7391 93.4728 41.4602C91.6183 41.0883 89.7638 41.1813 88.0021 41.832C87.2603 42.1109 87.2603 42.1109 87.2603 42.9475V57.7282Z" fill="#00743F"/>
<path d="M174.05 35.4179V34.5812C174.05 32.722 174.143 30.7699 174.05 28.9107C173.957 27.6092 174.606 26.4007 175.719 25.657C177.481 24.4486 179.335 23.426 181.282 22.6823C181.375 22.6823 181.468 22.5894 181.653 22.5894V62.7482C180.819 63.0271 179.891 63.306 178.964 63.4919C175.441 64.3285 171.917 64.6074 168.301 64.3285C165.427 64.2355 162.738 63.213 160.512 61.4467C158.287 59.5875 156.711 57.0776 156.247 54.1958C155.412 50.5704 155.691 46.852 156.989 43.4125C158.658 39.1363 162.552 36.0686 167.096 35.4179C169.321 35.046 171.546 35.046 173.772 35.5108C173.772 35.4179 173.957 35.4179 174.05 35.4179ZM174.05 49.6408V42.3899C174.05 41.5532 174.05 41.4603 173.215 41.3673C172.195 41.1814 171.083 41.1814 170.063 41.1814C167.188 41.0884 164.685 43.0406 164.036 45.8294C163.665 47.1309 163.572 48.4323 163.572 49.7338C163.479 51.3141 163.758 52.8944 164.314 54.3818C164.963 56.148 166.539 57.4495 168.394 57.9143C169.97 58.2861 171.639 58.2861 173.308 57.9143C174.143 57.7283 174.143 57.7283 174.143 56.8917L174.05 49.6408Z" fill="#00743F"/>
<path d="M288.1 49.6408C288.193 51.9648 287.822 54.2889 286.987 56.4269C285.504 60.6101 281.702 63.5849 277.344 64.1426C275.211 64.5145 273.079 64.4215 270.946 63.9567C266.774 63.0271 263.343 59.9594 262.137 55.7762C261.303 53.0804 261.025 50.1986 261.396 47.3168C261.581 45.3647 262.045 43.5055 262.879 41.8322C264.548 38.2067 267.886 35.6968 271.781 35.139C274.006 34.7672 276.324 34.7672 278.549 35.325C282.537 36.2546 285.782 39.1363 287.08 43.0407C287.915 45.1787 288.193 47.4098 288.1 49.6408ZM268.999 49.6408C268.999 51.3141 269.184 52.9874 269.648 54.5677C270.204 56.7058 272.059 58.1932 274.284 58.1932C276.788 58.2861 278.642 57.3565 279.569 54.8466C279.755 54.4748 279.848 54.01 279.94 53.6381C280.404 51.3141 280.497 48.9901 280.126 46.6661C279.94 45.6435 279.662 44.621 279.199 43.6914C278.828 42.8547 278.179 42.204 277.344 41.7392C274.841 40.3448 271.595 41.1815 270.204 43.6914C270.112 43.8773 270.019 44.0632 269.926 44.2491C269.833 44.621 269.648 44.9928 269.555 45.3647C269.184 46.7591 268.999 48.1535 268.999 49.6408Z" fill="#00743F"/>
<path d="M211.139 51.8718H193.614C193.614 52.0577 193.614 52.2436 193.614 52.4295C193.8 53.2662 194.078 54.0099 194.449 54.8465C195.283 56.4268 196.767 57.5424 198.529 57.9142C200.198 58.286 201.867 58.379 203.536 58.1001C205.298 57.9142 207.152 57.5424 208.821 57.0776C209.007 57.0776 209.192 56.9846 209.47 56.9846C209.563 57.4494 209.656 58.0072 209.656 58.472C209.748 59.6804 209.748 60.8889 209.563 62.0974C209.563 62.5622 209.192 63.027 208.728 63.12C207.245 63.6777 205.761 64.0496 204.185 64.2355C202.423 64.4214 200.754 64.5144 198.992 64.4214C196.489 64.3285 193.985 63.5848 191.853 62.1904C189.535 60.796 187.865 58.5649 187.124 56.055C185.64 51.6859 185.733 46.9449 187.495 42.5757C188.978 38.5785 192.594 35.7896 196.86 35.2319C198.9 34.86 201.032 34.953 203.165 35.4178C206.967 36.3474 209.841 39.2292 210.861 43.0405C211.417 45.0857 211.696 47.3167 211.51 49.4548C211.325 50.1985 211.232 50.9422 211.139 51.8718ZM204.278 46.2942C204.37 45.5505 204.185 44.7138 203.907 43.9702C203.443 42.2969 202.052 40.9954 200.29 40.8095C199.456 40.7165 198.621 40.7165 197.787 40.9025C195.376 41.5532 193.614 43.7842 193.522 46.2942H204.278Z" fill="#00743F"/>
<path d="M144.1 46.2941C144.378 43.9701 143.265 41.5531 139.835 41.1813C137.238 40.9024 134.549 41.0883 132.046 41.6461C131.86 41.6461 131.675 41.739 131.397 41.739C131.304 41.739 131.211 41.739 131.119 41.739C131.026 41.3672 130.933 40.9024 130.84 40.5305C130.655 39.1361 130.748 37.8347 130.933 36.4403C130.933 36.0684 131.304 35.6966 131.675 35.6966C134.179 35.1388 136.775 34.86 139.371 34.9529C141.04 34.9529 142.709 35.2318 144.285 35.6966C147.994 36.7192 150.776 39.8798 151.147 43.6912C151.332 44.7137 151.425 45.8293 151.425 46.9448V62.748C150.498 63.0269 149.663 63.2128 148.736 63.4917C145.398 64.3284 141.967 64.6072 138.537 64.3284C136.868 64.2354 135.291 63.8636 133.715 63.3058C130.562 62.1903 128.43 59.3085 128.337 55.9619C128.244 54.8464 128.244 53.8239 128.522 52.7083C128.986 50.7562 130.191 49.0829 131.953 48.0603C133.437 47.2237 135.013 46.6659 136.682 46.387C138.815 46.0152 141.04 46.0152 143.265 46.2011C143.636 46.2941 143.822 46.2941 144.1 46.2941ZM144.1 51.4998C142.338 51.221 140.576 51.221 138.907 51.4069C138.258 51.4998 137.609 51.6858 137.053 51.8717C136.311 52.1506 135.755 52.7083 135.477 53.452C134.735 55.1253 135.569 57.0775 137.238 57.8211L137.424 57.9141C137.609 58.0071 137.887 58.1 138.073 58.1C139.371 58.3789 140.669 58.4719 141.967 58.2859C142.616 58.193 143.265 58.1 144.007 58.0071L144.1 51.4998Z" fill="#00743F"/>
<path d="M234.042 42.0181C232.837 41.7392 231.817 41.4603 230.611 41.2744C228.942 40.9026 227.18 40.8096 225.419 40.9955C225.048 41.0885 224.677 41.0885 224.306 41.2744C223.286 41.5533 222.822 42.5758 223.101 43.5984C223.193 43.9702 223.471 44.3421 223.842 44.528C224.399 44.8999 224.955 45.2717 225.604 45.5506C226.809 46.1083 228.108 46.5731 229.313 47.1309C230.333 47.5957 231.353 48.1535 232.28 48.8042C234.042 50.0127 235.247 51.9648 235.34 54.1959C235.525 55.4973 235.433 56.7058 235.155 58.0073C234.598 59.9594 233.3 61.6327 231.538 62.6553C230.055 63.5849 228.386 64.1426 226.624 64.2356C223.657 64.5145 220.69 64.3286 217.723 63.5849C216.981 63.3989 216.239 63.0271 215.497 62.8412C215.219 62.7482 215.034 62.5623 215.034 62.2834C214.663 60.5172 214.663 58.7509 215.034 56.9847C215.034 56.8917 215.126 56.7988 215.126 56.7058L215.775 56.8917C217.63 57.6354 219.67 58.0072 221.617 58.2861C222.822 58.3791 223.935 58.3791 225.14 58.1932C225.419 58.1932 225.604 58.1002 225.882 58.0073C227.18 57.6354 227.922 56.241 227.551 54.9396C227.366 54.2888 226.995 53.824 226.439 53.4522C225.882 53.1733 225.233 52.8944 224.677 52.6156C223.379 52.0578 221.988 51.5 220.69 50.9423C219.948 50.5704 219.113 50.1056 218.464 49.6408C216.517 48.3394 215.312 46.2013 215.219 43.8773C214.941 40.8096 216.61 37.9278 219.299 36.6264C220.69 35.8827 222.173 35.4179 223.75 35.232C226.531 34.9531 229.406 35.139 232.187 35.8827C232.651 35.9757 233.115 36.1616 233.578 36.3475C233.764 36.4405 233.949 36.6264 234.042 36.8123C234.413 38.4856 234.413 40.2518 234.042 42.0181Z" fill="#00743F"/>
<path d="M257.965 57.2636C258.614 59.1228 259.634 60.889 260.839 62.4694C260.376 62.7482 259.912 62.9342 259.448 63.1201C257.038 64.0497 254.349 64.4215 251.752 64.3286C250.176 64.3286 248.692 64.0497 247.209 63.4919C243.778 62.3764 241.089 59.6806 239.884 56.241C238.215 51.8719 238.307 47.038 239.976 42.6688C241.46 38.4856 245.169 35.6038 249.527 35.0461C253.05 34.3954 256.667 34.8602 259.912 36.3475C260.19 36.4405 260.376 36.5334 260.654 36.7194C259.448 38.2997 258.614 40.0659 257.965 42.0181C257.038 41.7392 256.203 41.5533 255.368 41.3674C254.163 41.0885 252.958 41.0885 251.845 41.2744C249.991 41.5533 248.414 42.6688 247.58 44.3421C247.116 45.2717 246.838 46.2943 246.652 47.3168C246.374 49.362 246.467 51.4071 247.023 53.3593C247.209 53.917 247.394 54.3818 247.672 54.8466C248.692 56.7988 250.64 58.1002 252.865 58.1002C254.349 58.1932 255.832 57.9143 257.223 57.4495L257.594 57.3565L257.965 57.2636Z" fill="#00743F"/>
<path d="M110.441 35.5108C110.998 35.4178 111.647 35.3249 112.203 35.3249C113.408 35.3249 114.707 35.4178 115.912 35.4178C116.376 35.4178 116.747 35.6967 116.747 36.1615C116.932 36.9981 117.117 37.8348 117.303 38.6714C117.303 38.8574 117.396 38.9503 117.396 39.1362C117.581 38.9503 117.674 38.8574 117.766 38.7644L118.045 38.3926C120.363 35.6967 123.33 34.8601 126.761 35.3249C127.039 35.3249 127.224 35.5108 127.317 35.7897C127.595 37.6489 127.502 39.5081 127.132 41.3673L127.039 41.4602H124.535C123.794 41.4602 122.959 41.5532 122.31 41.8321C120.734 42.3898 119.436 43.6913 118.786 45.1787C118.137 46.759 117.766 48.4323 117.859 50.1985V63.4918C116.747 64.0496 111.461 64.0496 110.256 63.4918L110.441 35.5108Z" fill="#00743F"/>
<path d="M34.0369 63.8636V45.5504C34.0369 45.0856 34.2223 44.6208 34.6859 44.4349C36.1695 43.5982 37.7458 42.7616 39.2294 41.832L39.693 41.5531C40.0639 41.2742 40.6203 41.3672 40.8057 41.832C40.8057 41.832 40.8057 41.832 40.8057 41.925C40.8984 42.0179 40.8984 42.2038 40.8984 42.3898V62.5621C40.8984 62.7481 40.8984 63.0269 40.8984 63.2129C40.8984 63.7706 40.5275 64.1425 39.9712 64.1425H34.2223C34.2223 63.9565 34.1296 63.9565 34.0369 63.8636Z" fill="#00743F"/>
<path d="M32.3678 45.8293V64.0496H28.5662C28.288 64.0496 28.0098 63.8636 28.0098 63.4918V63.3988C28.0098 63.2129 28.0098 63.027 28.0098 62.934V49.4548C27.9171 48.7111 28.288 48.0604 28.9371 47.7815C30.0497 47.1308 31.1624 46.4801 32.3678 45.8293Z" fill="#00743F"/>
<path d="M127.224 75.4837C127.039 75.5767 126.853 75.6697 126.668 75.8556C125.277 77.157 123.886 78.3655 122.588 79.667C122.31 79.9458 121.939 80.1318 121.568 80.1318C120.826 80.2247 120.177 80.2247 119.436 80.0388C119.528 79.8529 119.621 79.7599 119.806 79.574C121.012 78.2726 122.217 76.9711 123.423 75.6697C123.701 75.3908 123.979 75.2049 124.35 75.2049C125.184 75.1119 126.112 75.1119 127.039 75.2978L127.224 75.4837Z" fill="#00743F"/>
</g>
<defs>
<clipPath id="clip0_129:371">
<rect width="288" height="103" fill="white" transform="translate(0.0999756)"/>
</clipPath>
</defs>
</svg>
