<svg width="174" height="113" viewBox="0 0 174 113" fill="none" xmlns="http://www.w3.org/2000/svg">
<path d="M86.5618 0.0034068C81.7136 -0.0625764 76.9006 0.830513 72.4022 2.6308C67.9039 4.43109 63.8099 7.1027 60.358 10.4905C56.9061 13.8782 54.1652 17.9146 52.2944 22.3651C50.4236 26.8157 49.4602 31.5917 49.4602 36.4158C49.4602 41.24 50.4236 46.016 52.2944 50.4665C54.1652 54.9171 56.9061 58.9535 60.358 62.3412C63.8099 65.729 67.9039 68.4006 72.4022 70.2009C76.9006 72.0012 81.7136 72.8943 86.5618 72.8283V48.0628C80.1932 48.061 74.086 45.5431 69.5827 41.0626C65.0794 36.5821 62.5487 30.5057 62.5469 24.1694C62.5469 10.9793 73.2704 0.0034068 86.5618 0.0034068Z" fill="#00743F"/>
<path d="M86.5618 72.8283C91.4099 72.8943 96.223 72.0012 100.721 70.2009C105.22 68.4006 109.314 65.729 112.766 62.3412C116.217 58.9535 118.958 54.9171 120.829 50.4665C122.7 46.016 123.663 41.24 123.663 36.4158C123.663 31.5917 122.7 26.8157 120.829 22.3651C118.958 17.9146 116.217 13.8782 112.766 10.4905C109.314 7.1027 105.22 4.43109 100.721 2.6308C96.223 0.830513 91.4099 -0.0625764 86.5618 0.0034068V24.7689C92.9304 24.7707 99.0376 27.2886 103.541 31.7691C108.044 36.2496 110.575 42.326 110.577 48.6623C110.577 61.8524 99.8258 72.8283 86.5618 72.8283Z" fill="#00743F"/>
<path d="M19.5502 103.63C17.3931 104.51 15.0735 104.925 12.7436 104.85C5.47816 104.85 0 100.278 0 91.8639C0 83.8041 5.47816 78.3877 13.4694 78.3877C15.5709 78.3014 17.6646 78.6929 19.5913 79.5323L18.7901 82.2575C17.1551 81.5266 15.378 81.1637 13.5858 81.1947C7.53932 81.1947 3.51972 85.0372 3.51972 91.7754C3.51972 98.057 7.15584 102.097 13.4283 102.097C15.2959 102.123 17.1482 101.758 18.8654 101.028L19.5502 103.63Z" fill="#00743F"/>
<path d="M33.5948 104.468L33.3277 102.145H33.2113C32.5534 103.013 31.6973 103.713 30.7138 104.187C29.7303 104.66 28.6476 104.895 27.5551 104.87C23.8026 104.87 21.8921 102.247 21.8921 99.5763C21.8921 95.1273 25.8706 92.6883 33.0264 92.7632V92.3817C33.0264 90.8556 32.6019 88.1167 28.8151 88.1167C27.1218 88.1239 25.4632 88.5953 24.0217 89.4793L23.2548 87.2719C25.0919 86.1747 27.1999 85.6085 29.3424 85.6367C35.0054 85.6367 36.3818 89.4793 36.3818 93.172V100.067C36.3579 101.544 36.4587 103.021 36.6831 104.482L33.5948 104.468ZM33.1018 95.066C29.4246 94.9843 25.2543 95.6315 25.2543 99.2152C25.2197 99.6406 25.2779 100.068 25.4249 100.469C25.5718 100.87 25.8041 101.235 26.1058 101.538C26.4075 101.842 26.7715 102.077 27.1729 102.227C27.5744 102.378 28.0037 102.44 28.4316 102.411C29.4109 102.436 30.373 102.151 31.1783 101.596C31.9836 101.041 32.5902 100.245 32.91 99.3242C33.0303 98.9823 33.0951 98.6235 33.1018 98.2614V95.066Z" fill="#00743F"/>
<path d="M41.771 92.0548C41.771 89.6975 41.6889 87.7899 41.6135 86.0389H44.6402L44.7909 89.2002H44.8662C45.5336 88.066 46.4987 87.1339 47.658 86.5038C48.8172 85.8737 50.127 85.5693 51.4468 85.6233C55.9252 85.6233 59.2943 89.3909 59.2943 94.9845C59.2943 101.614 55.2336 104.884 50.8716 104.884C49.7555 104.929 48.6467 104.687 47.6522 104.181C46.6577 103.675 45.8114 102.922 45.1949 101.995H45.1195V112.004H41.771V92.0548ZM45.099 96.9671C45.1078 97.4249 45.1582 97.8809 45.2497 98.3297C45.5298 99.4517 46.1799 100.448 47.0959 101.159C48.012 101.871 49.1412 102.256 50.3033 102.254C53.8572 102.254 55.9252 99.3585 55.9252 95.1344C55.9252 91.4417 53.9736 88.2804 50.4471 88.2804C49.0383 88.4001 47.7217 89.0264 46.7437 90.0422C45.7656 91.058 45.1931 92.3936 45.1332 93.799L45.099 96.9671Z" fill="#00743F"/>
<path d="M65.4367 95.8633C65.512 100.394 68.4223 102.261 71.7913 102.261C73.5479 102.315 75.2954 101.989 76.9134 101.307L77.4886 103.705C75.5383 104.514 73.4381 104.904 71.3257 104.85C65.6216 104.85 62.2183 101.116 62.2183 95.5567C62.2183 89.9973 65.5052 85.6233 70.9011 85.6233C76.9477 85.6233 78.5569 90.9102 78.5569 94.3031C78.5521 94.8252 78.5132 95.3463 78.4405 95.8633H65.4367ZM75.3248 93.4651C75.3248 91.3326 74.4414 88.0147 70.6546 88.0147C67.2308 88.0147 65.7585 91.1351 65.4915 93.4651H75.3248Z" fill="#00743F"/>
<path d="M82.2751 101.041C83.6086 101.87 85.1407 102.329 86.7124 102.37C89.1639 102.37 90.3074 101.157 90.3074 99.6445C90.3074 98.132 89.3556 97.1714 86.8836 96.238C83.5488 95.0593 81.9807 93.2266 81.9807 91.0192C81.9807 88.0487 84.391 85.6164 88.3696 85.6164C89.9604 85.601 91.5285 85.9928 92.9233 86.7542L92.081 89.1933C90.9426 88.4956 89.6313 88.1275 88.2942 88.1304C86.3084 88.1304 85.1991 89.2682 85.1991 90.6376C85.1991 92.1638 86.3084 92.8451 88.7188 93.7648C91.9303 94.9776 93.5738 96.5786 93.5738 99.3175C93.5738 102.554 91.0538 104.843 86.6508 104.843C84.8359 104.875 83.0433 104.441 81.4465 103.582L82.2751 101.041Z" fill="#00743F"/>
<path d="M108.146 104.468L107.879 102.145H107.762C107.102 103.013 106.245 103.712 105.26 104.186C104.276 104.66 103.192 104.894 102.099 104.87C98.3465 104.87 96.436 102.247 96.436 99.5763C96.436 95.1273 100.415 92.6883 107.57 92.7632V92.3817C107.57 90.8556 107.146 88.1167 103.359 88.1167C101.666 88.1249 100.008 88.5963 98.5657 89.4793L97.7987 87.2719C99.6358 86.1747 101.744 85.6085 103.886 85.6367C109.549 85.6367 110.926 89.4793 110.926 93.172V100.067C110.9 101.545 111.004 103.022 111.234 104.482L108.146 104.468ZM107.646 95.066C103.975 94.9843 99.8051 95.6315 99.8051 99.2152C99.7706 99.64 99.8287 100.067 99.9752 100.468C100.122 100.868 100.353 101.232 100.654 101.536C100.955 101.839 101.318 102.074 101.719 102.225C102.12 102.376 102.548 102.439 102.976 102.411C103.955 102.436 104.917 102.151 105.722 101.596C106.527 101.041 107.134 100.245 107.454 99.3242C107.574 98.9823 107.639 98.6235 107.646 98.2614V95.066Z" fill="#00743F"/>
<path d="M131.832 99.4742C131.832 101.382 131.832 103.051 131.983 104.502H128.997L128.805 101.491H128.737C128.111 102.547 127.215 103.419 126.139 104.018C125.063 104.616 123.847 104.92 122.615 104.897C119.705 104.897 116.226 103.296 116.226 96.8307V86.0388H119.595V96.2584C119.595 99.7603 120.663 102.118 123.704 102.118C124.331 102.118 124.952 101.994 125.531 101.754C126.11 101.514 126.635 101.161 127.076 100.718C127.518 100.274 127.866 99.7483 128.102 99.17C128.337 98.5916 128.456 97.9725 128.449 97.3485V86.0388H131.818L131.832 99.4742ZM129.531 78.1152L124.868 83.5657H122.457L125.82 78.1152H129.531Z" fill="#00743F"/>
<path d="M153.388 77.4338V99.7057C153.388 101.348 153.423 103.208 153.539 104.475H150.519L150.362 101.273H150.286C149.683 102.406 148.77 103.346 147.653 103.986C146.536 104.626 145.261 104.94 143.973 104.89C139.494 104.89 136.05 101.123 136.05 95.5293C136.016 89.3976 139.844 85.63 144.356 85.63C147.184 85.63 149.102 86.9926 149.944 88.4437H150.019V77.4338H153.388ZM150.019 93.5399C150.023 93.0657 149.973 92.5925 149.869 92.1296C149.627 91.0265 149.013 90.0391 148.128 89.3323C147.243 88.6256 146.142 88.2422 145.007 88.2462C141.521 88.2462 139.46 91.2916 139.46 95.3658C139.46 99.0994 141.295 102.179 144.938 102.179C146.096 102.175 147.217 101.776 148.115 101.05C149.013 100.323 149.635 99.3129 149.876 98.1864C149.984 97.7105 150.035 97.2232 150.026 96.7352L150.019 93.5399Z" fill="#00743F"/>
<path d="M160.88 95.8633C160.955 100.394 163.859 102.261 167.228 102.261C168.986 102.315 170.736 101.989 172.357 101.307L172.932 103.705C170.981 104.512 168.881 104.902 166.769 104.85C161.072 104.85 157.661 101.116 157.661 95.5567C157.661 89.9973 160.955 85.6233 166.351 85.6233C172.398 85.6233 174 90.9102 174 94.3031C173.995 94.8252 173.956 95.3463 173.884 95.8633H160.88ZM170.747 93.4651C170.788 91.3326 169.871 88.0147 166.084 88.0147C162.66 88.0147 161.181 91.1351 160.914 93.4651H170.747Z" fill="#00743F"/>
</svg>
