<svg width="289" height="87" viewBox="0 0 289 87" fill="none" xmlns="http://www.w3.org/2000/svg">
<g clip-path="url(#clip0_129:393)">
<path fill-rule="evenodd" clip-rule="evenodd" d="M219.021 18.0863C219.114 17.2516 219.392 16.3241 219.299 15.8603C219.299 15.1183 219.114 14.3763 218.743 14.0053C218.001 13.3561 216.981 12.7996 215.405 12.7996C211.881 12.7996 209.749 13.0778 209.749 13.0778L208.914 16.8806L208.358 19.3848C208.358 19.3848 209.934 19.8486 213.457 19.8486C216.796 19.8486 218.65 19.3848 218.65 19.3848L219.021 18.0863Z" fill="#00743F"/>
<path fill-rule="evenodd" clip-rule="evenodd" d="M212.994 21.1472C209.47 21.1472 207.708 21.611 207.708 21.611L203.35 40.5321L200.383 53.8882C201.496 54.6302 202.887 55.0939 204.278 55.1867H204.649C207.338 55.1867 209.656 53.7027 210.861 51.5694C211.139 51.1056 211.417 50.5491 211.51 49.9926C211.603 49.7144 211.603 49.6216 211.603 49.6216L218.001 21.7965C218.094 21.7037 216.332 21.1472 212.994 21.1472Z" fill="#00743F"/>
<path fill-rule="evenodd" clip-rule="evenodd" d="M133.159 21.611C129.913 21.611 128.059 22.353 128.059 22.353L127.595 24.208C125.926 21.7965 123.793 21.1472 119.899 21.1472C112.11 21.1472 106.454 24.6717 103.487 37.2858C100.52 49.8999 104.6 55.0939 112.11 55.0939C115.448 55.0939 118.045 54.1664 120.177 52.6824C120.734 52.3114 120.734 52.2186 121.197 51.9404L120.734 53.7954C120.919 53.8882 122.124 54.5374 122.495 54.6302C123.237 54.9084 124.072 55.0939 124.906 55.0939C125.37 55.0939 125.833 55.0012 126.204 55.0012C128.337 54.6302 130.099 53.3316 131.211 51.4766C131.582 50.9201 131.768 50.2709 131.953 49.6216C131.953 49.5289 132.046 49.4361 132.046 49.4361L138.351 22.2602C138.444 22.353 136.404 21.611 133.159 21.611ZM117.766 47.6739C117.581 47.6739 117.488 47.6739 117.303 47.6739C113.687 47.6739 112.296 45.9116 114.058 38.3061C115.819 30.4223 118.045 28.5673 121.661 28.5673C124.628 28.5673 125.926 30.7005 125.277 33.6685L123.793 39.9756L123.237 42.3871C122.681 45.2624 120.641 47.3956 117.766 47.6739Z" fill="#00743F"/>
<path fill-rule="evenodd" clip-rule="evenodd" d="M160.976 21.2397C156.989 21.2397 153.836 22.3528 151.518 24.3933L151.981 22.3528C151.981 22.3528 150.127 21.6107 146.882 21.6107C143.544 21.6107 141.596 22.3528 141.596 22.3528L138.815 34.5958C138.815 34.5958 138.815 34.7813 138.722 34.9668C138.537 35.7088 138.258 37.0073 138.258 37.0073L137.702 39.5116L132.324 63.0702L131.953 64.647C132.139 64.7397 133.344 65.389 133.715 65.4818C134.457 65.76 135.291 65.9455 136.126 65.9455C136.589 65.9455 137.053 65.9455 137.424 65.8528C139.556 65.4818 141.318 64.1832 142.431 62.3282C142.802 61.7717 142.987 61.1225 143.173 60.4732C143.173 60.3805 143.173 60.2877 143.173 60.2877L143.636 58.1545L143.822 57.4125L145.027 52.0329C146.418 54.0734 148.922 55.1864 152.909 55.1864C160.327 55.1864 166.354 51.3837 169.228 38.7696C172.288 25.8773 168.208 21.2397 160.976 21.2397ZM158.565 38.2131C156.71 46.2824 154.3 47.7664 150.962 47.7664C148.087 47.7664 146.974 45.7259 147.253 43.0361C147.253 42.6651 147.345 42.2941 147.438 41.9231L149.014 34.9668L149.2 34.1321C150.034 30.8858 152.445 28.6598 155.412 28.6598C158.936 28.6598 160.327 30.4221 158.565 38.2131Z" fill="#00743F"/>
<path fill-rule="evenodd" clip-rule="evenodd" d="M194.635 21.7037L184.62 46.6536C184.62 46.7464 184.528 46.7464 184.528 46.7464C184.435 46.7464 184.342 46.6536 184.342 46.5609L183.879 37.2858L182.673 22.353C182.673 22.353 181.004 21.611 177.666 21.611C174.421 21.611 172.381 22.353 172.381 22.353L176.461 54.5374C178.964 55.0012 182.302 55.1867 184.991 55.1867C185.455 55.1867 185.826 55.1867 186.289 55.0939C188.051 54.8157 189.72 53.9809 190.833 52.6824C190.926 52.5896 191.018 52.4969 191.111 52.4041C192.502 50.7346 193.429 48.7869 193.429 48.7869L204.834 21.7037C204.834 21.7037 203.258 21.1472 200.105 21.1472C196.953 21.1472 194.635 21.7037 194.635 21.7037Z" fill="#00743F"/>
<path fill-rule="evenodd" clip-rule="evenodd" d="M93.5655 21.611C90.042 21.611 86.6112 22.8167 83.9223 24.7645L85.4986 17.9009L85.7767 16.8807C85.7767 16.6952 85.8695 16.6024 85.8695 16.4169C85.9622 16.1387 85.9622 15.9532 85.9622 15.6749C85.9622 15.1184 85.8695 14.6547 85.684 14.1909C85.0349 12.4287 83.4586 11.2229 81.5114 11.2229H81.1405C78.1734 11.3157 76.6898 11.6867 76.6898 11.6867L76.0407 14.5619L74.279 21.982L66.8611 54.0736C67.1393 54.1664 68.2519 54.8156 68.6228 54.9084C69.1792 55.0939 69.7355 55.2794 70.3846 55.2794H70.4773H70.7555C70.8482 55.2794 70.8482 55.2794 70.9409 55.2794H71.2191H71.3118C71.6827 55.2794 71.9609 55.1867 72.3318 55.1867C74.4644 54.8157 76.2262 53.5171 77.3389 51.6621C77.3389 51.5694 77.4316 51.5694 77.4316 51.4766C77.4316 51.4766 77.4316 51.3839 77.5243 51.3839C77.7098 50.9201 77.9879 50.3636 78.0807 50.0854C78.0807 49.9926 78.0807 49.9926 78.1734 49.8999C78.1734 49.8071 78.1734 49.8071 78.1734 49.8071L81.2333 36.5438L82.2532 31.999L82.4387 31.257C84.015 30.144 85.7767 29.4948 87.4458 29.4948C90.5056 29.4948 91.4329 30.886 90.8765 33.2048L86.0549 54.0736C86.2403 54.1664 87.4458 54.8156 87.8166 54.9084C88.373 55.0939 89.0221 55.2794 89.5784 55.2794C89.8566 55.2794 90.2275 55.2794 90.5056 55.2794C90.8765 55.2794 91.2474 55.1867 91.5256 55.1867C93.6582 54.8157 95.42 53.5171 96.5327 51.6621C96.5327 51.5694 96.6254 51.5694 96.6254 51.4766C96.9036 50.9201 97.089 50.4564 97.2745 49.8071C97.2745 49.7144 97.2745 49.7144 97.2745 49.7144L101.354 32.0918C102.745 26.1557 100.427 21.611 93.5655 21.611Z" fill="#00743F"/>
<path fill-rule="evenodd" clip-rule="evenodd" d="M253.978 14.0054C253.792 13.4489 253.421 12.8924 253.05 12.4286C252.309 11.6866 251.381 11.1301 250.269 11.0374C250.176 11.0374 249.991 11.0374 249.805 11.0374H249.527H249.342C247.394 11.1301 246.003 11.3156 245.354 11.4084C245.076 11.5011 244.891 11.5011 244.891 11.5011L244.242 14.3764L241.831 24.3934C240.44 22.3529 237.936 21.2399 233.949 21.2399C226.531 21.2399 220.504 25.0427 217.63 37.6568C214.663 50.4563 218.743 55.1866 225.975 55.1866C229.22 55.1866 231.909 54.4446 234.042 53.0533C234.506 52.7751 234.969 52.4041 235.433 52.0331L234.969 53.8881C235.155 53.9808 235.34 54.0736 235.433 54.2591C236.546 54.9084 237.751 55.2794 239.142 55.2794C241.089 55.2794 242.944 54.4446 244.242 53.2388C244.334 53.2388 244.334 53.1461 244.427 53.0533C244.52 52.9606 244.52 52.9606 244.613 52.8678C244.984 52.4968 245.262 52.0331 245.54 51.5693C245.818 51.0128 246.096 50.4563 246.282 49.8998V49.8071L246.374 49.5288V49.3433L251.011 28.9382L251.196 28.1035L252.216 23.7442L253.329 19.2922C253.329 19.2922 253.421 18.9211 253.514 18.2719L253.885 16.7879C253.885 16.6024 253.978 16.5096 253.978 16.3241C253.978 16.0459 254.07 15.7676 254.07 15.5821C254.256 15.0256 254.163 14.4691 253.978 14.0054ZM239.698 34.4105L238.307 40.6248L237.937 42.2015C237.844 42.387 237.844 42.5725 237.751 42.8508C236.824 45.6333 234.691 47.4883 232.188 47.6738C232.095 47.6738 231.909 47.6738 231.817 47.6738C228.293 47.6738 226.81 45.9116 228.664 38.2133C230.519 30.144 232.929 28.66 236.267 28.66C239.235 28.66 240.347 30.886 239.976 33.5757C239.791 33.854 239.698 34.1322 239.698 34.4105Z" fill="#00743F"/>
<path fill-rule="evenodd" clip-rule="evenodd" d="M282.258 21.611C279.013 21.611 277.159 22.353 277.159 22.353L276.695 24.208C275.026 21.7965 272.893 21.1472 268.999 21.1472C261.21 21.1472 255.554 24.6717 252.587 37.2858C249.62 49.8999 253.7 55.0939 261.21 55.0939C264.641 55.0939 267.144 54.1664 269.277 52.6824C269.833 52.3114 269.833 52.2186 270.297 51.9404L269.833 53.7954C270.019 53.8882 271.224 54.5374 271.595 54.6302C272.337 54.9084 273.172 55.0939 274.006 55.0939C274.47 55.0939 274.933 55.0012 275.304 55.0012C277.437 54.6302 279.199 53.3316 280.311 51.4766C280.682 50.9201 280.868 50.2709 281.053 49.6216C281.053 49.5289 281.053 49.4361 281.053 49.4361L287.358 22.2602C287.636 22.353 285.597 21.611 282.258 21.611ZM266.959 47.6739C266.774 47.6739 266.681 47.6739 266.495 47.6739C262.879 47.6739 261.488 45.9116 263.25 38.3061C265.012 30.4223 267.237 28.5673 270.853 28.5673C273.821 28.5673 275.119 30.7005 274.47 33.6685L272.986 39.9756L272.43 42.3871C271.873 45.2624 269.741 47.3956 266.959 47.6739Z" fill="#00743F"/>
<path fill-rule="evenodd" clip-rule="evenodd" d="M25.97 60.1951C25.97 56.8561 29.0299 46.5608 32.9243 46.5608C36.7259 46.5608 39.8785 56.8561 39.8785 60.1951C39.8785 63.6269 36.8187 66.3167 32.9243 66.3167C29.1226 66.3167 25.97 63.5341 25.97 60.1951Z" fill="#00743F"/>
<path fill-rule="evenodd" clip-rule="evenodd" d="M32.9243 0C27.3608 0 22.8174 4.45203 22.8174 9.92431C22.8174 15.3966 27.3608 33.2047 32.9243 33.2047C38.4877 33.2047 43.0312 15.3966 43.0312 9.92431C43.0312 4.45203 38.4877 0 32.9243 0Z" fill="#00743F"/>
<path fill-rule="evenodd" clip-rule="evenodd" d="M5.29258 34.5032C9.65059 36.9147 24.8573 40.6248 27.2681 36.2655C29.6789 31.9062 18.3666 21.1471 14.0086 18.7356C9.55787 16.3241 4.08717 17.9009 1.67635 22.2602C-0.641743 26.6194 0.934561 32.0917 5.29258 34.5032Z" fill="#00743F"/>
<path fill-rule="evenodd" clip-rule="evenodd" d="M64.1721 22.6312C61.7613 18.272 56.2906 16.6952 51.9326 19.1067C47.5746 21.4255 36.2623 32.1845 38.6731 36.5438C41.0839 40.9031 56.2906 37.1931 60.6486 34.7816C64.9139 32.4628 66.583 26.9905 64.1721 22.6312Z" fill="#00743F"/>
<path fill-rule="evenodd" clip-rule="evenodd" d="M11.0415 50.9201C12.3396 53.7026 15.6777 54.9083 18.3667 53.5171C21.1484 52.2186 28.4736 46.0043 27.0827 43.2218C25.7846 40.4393 16.3268 42.2015 13.545 43.5C10.9488 44.8913 9.74337 48.1376 11.0415 50.9201Z" fill="#00743F"/>
<path fill-rule="evenodd" clip-rule="evenodd" d="M52.1181 43.5928C49.3364 42.2943 39.8786 40.532 38.5805 43.3146C37.2823 46.0043 44.6075 52.3114 47.3892 53.6099C50.1709 54.9084 53.4163 53.7954 54.8071 51.0129C56.1053 48.1376 54.8998 44.8913 52.1181 43.5928Z" fill="#00743F"/>
<path fill-rule="evenodd" clip-rule="evenodd" d="M145.584 83.0118C145.584 83.0118 145.398 83.1045 144.935 83.1045C144.564 83.1045 144.378 83.0118 144.378 83.0118L146.882 71.3252H153.28C153.28 71.4179 153.28 71.6034 153.28 71.7889C153.187 72.0672 153.187 72.16 153.094 72.2527H147.902L146.974 76.7047H151.518C151.518 76.7975 151.518 76.983 151.518 77.1685C151.425 77.354 151.425 77.5395 151.332 77.725H146.789L145.584 83.0118Z" fill="#00743F"/>
<path fill-rule="evenodd" clip-rule="evenodd" d="M160.883 74.4787C161.254 74.4787 161.439 74.5715 161.439 74.5715L159.678 83.0118C159.678 83.0118 159.492 83.1045 159.214 83.1045C158.936 83.1045 158.75 83.0118 158.75 83.0118L158.843 81.9915C158.194 82.8263 157.36 83.29 156.061 83.29C154.021 83.29 153.094 81.8988 153.836 78.5598C154.578 75.2207 155.969 74.386 157.823 74.386C159.029 74.386 159.77 74.9425 160.141 75.6845L160.419 74.5715C160.419 74.5715 160.512 74.4787 160.883 74.4787ZM157.916 75.3135C156.34 75.3135 155.505 76.241 154.949 78.7453C154.392 81.3423 154.856 82.177 156.432 82.177C157.823 82.177 158.936 80.9713 159.121 79.7655L159.585 77.6323C159.77 76.5192 159.307 75.3135 157.916 75.3135Z" fill="#00743F"/>
<path fill-rule="evenodd" clip-rule="evenodd" d="M168.394 82.0843C168.394 82.0843 168.486 82.2698 168.394 82.5481C168.301 82.8263 168.208 83.0118 168.208 83.0118H162.274C162.274 82.9191 162.274 82.7336 162.274 82.4553C162.367 82.2698 162.367 82.0843 162.459 81.9916L168.486 75.4063H164.221C164.221 75.4063 164.221 75.2208 164.221 74.9425C164.314 74.5715 164.407 74.4788 164.407 74.4788H169.97C169.97 74.5715 169.97 74.757 169.97 74.9425C169.877 75.2208 169.785 75.3135 169.785 75.499L163.758 82.0843H168.394Z" fill="#00743F"/>
<path fill-rule="evenodd" clip-rule="evenodd" d="M178.408 75.4988C179.15 74.6641 179.892 74.2931 181.19 74.2931C183.044 74.2931 184.064 75.5916 183.322 78.9306C182.581 82.2696 181.19 83.1971 179.242 83.1971C178.037 83.1971 177.295 82.7334 177.017 81.8986L176.739 82.9189C176.553 83.0116 176.553 83.0116 176.183 83.0116C175.812 83.0116 175.626 82.9189 175.626 82.9189L178.222 70.8613C178.222 70.8613 178.408 70.7686 178.872 70.7686C179.242 70.7686 179.428 70.8613 179.428 70.8613L178.408 75.4988ZM180.633 75.3133C179.242 75.3133 178.315 76.5191 178.037 77.7248L177.573 79.8581C177.295 81.0639 177.852 82.2696 179.15 82.2696C180.726 82.2696 181.653 81.3421 182.21 78.8378C182.673 76.2408 182.117 75.3133 180.633 75.3133Z" fill="#00743F"/>
<path fill-rule="evenodd" clip-rule="evenodd" d="M187.031 79.1163C186.66 81.3423 187.309 82.177 188.886 82.177C190.091 82.177 191.018 81.6205 191.018 81.6205C191.204 81.806 191.389 82.177 191.297 82.548C191.297 82.548 190.184 83.29 188.422 83.29C186.104 83.29 185.269 81.5278 185.919 78.5598C186.568 75.499 188.329 74.386 190.277 74.386C192.038 74.386 193.058 75.5917 192.687 77.5395C192.502 78.5598 192.131 79.209 192.131 79.209H187.031V79.1163ZM190.091 75.3135C188.793 75.3135 187.68 76.1483 187.124 78.2815H191.297C191.389 78.1888 191.482 77.8178 191.575 77.354C191.853 76.241 191.482 75.3135 190.091 75.3135Z" fill="#00743F"/>
<path fill-rule="evenodd" clip-rule="evenodd" d="M204.741 74.2932C206.225 74.2932 207.059 75.4062 206.689 76.8902L205.39 82.919C205.39 82.919 205.205 83.0117 204.834 83.0117C204.463 83.0117 204.278 82.919 204.278 82.919L205.576 76.8902C205.854 75.7772 205.39 75.2207 204.278 75.2207C203.443 75.2207 202.516 75.6844 201.774 76.7047L200.476 82.919C200.476 82.919 200.291 83.0117 199.92 83.0117C199.549 83.0117 199.363 82.919 199.363 82.919L200.661 76.8902C200.94 75.7772 200.476 75.2207 199.363 75.2207C198.529 75.2207 197.602 75.7772 196.953 76.7047L195.654 82.919C195.654 82.919 195.469 83.0117 195.005 83.0117C194.634 83.0117 194.449 82.919 194.449 82.919L196.211 74.4787C196.211 74.4787 196.396 74.3859 196.767 74.3859C197.138 74.3859 197.323 74.4787 197.323 74.4787L197.138 75.4989C197.88 74.7569 198.714 74.2004 199.827 74.2004C200.847 74.2004 201.681 74.6642 201.867 75.5917C202.609 74.8497 203.536 74.2932 204.741 74.2932Z" fill="#00743F"/>
<path fill-rule="evenodd" clip-rule="evenodd" d="M218.743 74.2932C220.69 74.2932 221.71 75.5917 220.968 78.9307C220.226 82.2698 218.743 83.1973 216.888 83.1973C215.776 83.1973 215.034 82.6408 214.663 81.8988L213.643 86.8145C213.643 86.8145 213.458 86.9073 213.087 86.9073C212.716 86.9073 212.53 86.8145 212.53 86.8145L215.127 74.4787C215.127 74.4787 215.312 74.386 215.776 74.386C216.147 74.386 216.239 74.4787 216.239 74.4787L216.054 75.499C216.703 74.757 217.63 74.2932 218.743 74.2932ZM218.186 75.3135C216.796 75.3135 215.868 76.5192 215.59 77.725L215.127 79.8582C214.941 80.8785 215.497 82.2698 216.703 82.2698C218.279 82.2698 219.206 81.3423 219.763 78.838C220.319 76.241 219.855 75.3135 218.186 75.3135Z" fill="#00743F"/>
<path fill-rule="evenodd" clip-rule="evenodd" d="M228.293 74.2932C229.035 74.2932 229.406 74.5715 229.591 74.6642C229.406 75.0352 229.221 75.3135 228.85 75.5917C228.571 75.4062 228.201 75.3135 227.737 75.3135C226.995 75.3135 226.161 75.9627 225.419 76.983L224.121 82.919C224.121 82.919 223.935 83.0118 223.472 83.0118C223.101 83.0118 222.915 82.919 222.915 82.919L224.677 74.4787C224.677 74.4787 224.862 74.386 225.233 74.386C225.604 74.386 225.79 74.4787 225.79 74.4787L225.512 75.6845C226.717 74.4787 227.551 74.2932 228.293 74.2932Z" fill="#00743F"/>
<path fill-rule="evenodd" clip-rule="evenodd" d="M237.658 74.4787C238.029 74.4787 238.215 74.5715 238.215 74.5715L236.453 83.0118C236.453 83.0118 236.268 83.1045 235.989 83.1045C235.711 83.1045 235.526 83.0118 235.526 83.0118L235.618 81.9915C234.969 82.8263 234.135 83.29 232.837 83.29C230.797 83.29 229.87 81.8988 230.611 78.5598C231.353 75.2207 232.744 74.386 234.599 74.386C235.804 74.386 236.546 74.9425 236.917 75.6845L237.195 74.5715C237.102 74.5715 237.195 74.4787 237.658 74.4787ZM234.599 75.3135C233.022 75.3135 232.188 76.241 231.631 78.7453C231.075 81.3423 231.539 82.177 233.115 82.177C234.506 82.177 235.618 80.9713 235.804 79.7655L236.268 77.6323C236.546 76.5192 235.989 75.3135 234.599 75.3135Z" fill="#00743F"/>
<path fill-rule="evenodd" clip-rule="evenodd" d="M246.745 80.1365C246.838 81.0641 246.838 81.8061 246.838 81.8061H246.931C246.931 81.8061 247.302 81.0641 247.765 80.1365L251.011 74.5715C251.011 74.5715 251.289 74.4788 251.66 74.4788C252.031 74.4788 252.216 74.5715 252.216 74.5715L247.394 83.0118C247.394 83.0118 247.116 83.1046 246.745 83.1046C246.374 83.1046 246.096 83.0118 246.096 83.0118L244.798 74.5715C244.798 74.5715 244.984 74.4788 245.447 74.4788C245.911 74.4788 246.004 74.5715 246.004 74.5715L246.745 80.1365Z" fill="#00743F"/>
<path fill-rule="evenodd" clip-rule="evenodd" d="M257.594 74.2932C259.819 74.2932 260.746 75.7772 260.097 79.0235C259.448 82.2698 257.872 83.29 255.647 83.29C253.421 83.29 252.494 81.806 253.143 78.5597C253.885 75.2207 255.369 74.2932 257.594 74.2932ZM257.316 75.2207C255.925 75.2207 254.812 76.0555 254.349 78.7452C253.792 81.435 254.534 82.2698 255.925 82.2698C257.316 82.2698 258.336 81.435 258.892 78.7452C259.448 76.0555 258.799 75.2207 257.316 75.2207Z" fill="#00743F"/>
<path fill-rule="evenodd" clip-rule="evenodd" d="M263.806 78.7452C263.343 81.064 263.899 82.177 265.661 82.177C266.403 82.177 266.959 81.9915 267.33 81.8988C267.515 82.0843 267.701 82.4553 267.608 82.7335C267.145 82.919 266.588 83.1973 265.29 83.1973C262.972 83.1973 262.045 81.435 262.694 78.467C263.343 75.5917 264.826 74.2932 267.052 74.2932C268.443 74.2932 268.999 74.6642 268.999 74.6642C268.906 75.0352 268.721 75.3135 268.443 75.5917C268.443 75.5917 267.886 75.3135 266.959 75.3135C265.29 75.3135 264.27 76.4265 263.806 78.7452Z" fill="#00743F"/>
<path fill-rule="evenodd" clip-rule="evenodd" d="M271.41 79.1162C271.039 81.3422 271.688 82.1769 273.264 82.1769C274.47 82.1769 275.397 81.6204 275.397 81.6204C275.582 81.8059 275.768 82.1769 275.675 82.5479C275.675 82.5479 274.562 83.29 272.893 83.29C270.575 83.29 269.741 81.5277 270.39 78.5597C271.039 75.4989 272.801 74.3859 274.748 74.3859C276.51 74.3859 277.529 75.5917 277.159 77.5394C276.88 78.5597 276.602 79.2089 276.602 79.2089H271.41V79.1162ZM274.562 75.3134C273.264 75.3134 272.151 76.1482 271.595 78.2814H275.768C275.768 78.1887 275.953 77.8177 276.046 77.3539C276.231 76.2409 275.953 75.3134 274.562 75.3134ZM277.344 72.7164C277.159 72.9946 276.973 73.1801 276.695 73.2729L275.211 72.0671L273.171 73.2729C272.893 73.1801 272.801 72.9946 272.708 72.7164L275.119 71.0469H275.49L277.344 72.7164Z" fill="#00743F"/>
</g>
<defs>
<clipPath id="clip0_129:393">
<rect width="288" height="87" fill="white" transform="translate(0.100098)"/>
</clipPath>
</defs>
</svg>
