<svg width="284" height="131" viewBox="0 0 284 131" fill="none" xmlns="http://www.w3.org/2000/svg">
<path d="M153.2 48.1001C153.3 48.1001 153.3 48.2001 153.4 48.2001C153.3 48.2001 153.2 48.2001 153.2 48.1001ZM162.8 50.4001C162.8 50.4001 162.8 50.5001 162.8 50.6001C162.8 50.5001 162.8 50.4001 162.8 50.4001ZM162.8 50.6001C162.8 50.8001 162.9 51.0001 162.9 51.1001C162.9 50.9001 162.8 50.8001 162.8 50.6001Z" fill="#00743F"/>
<path d="M180.5 55.3C180.5 55.4 180.5 55.4 180.5 55.3V55.3ZM179.9 50.3C179.9 50.4 179.9 50.4 180 50.4C179.9 50.4 179.9 50.3 179.9 50.3ZM179.8 57.3C179.7 57.4 179.7 57.5 179.6 57.5C179.7 57.4 179.7 57.4 179.8 57.3ZM179.6 45.5C179.6 45.5 179.6 45.4 179.6 45.5C179.5 45.4 179.5 45.4 179.4 45.3L179.3 45.2C179.5 45.4 179.6 45.5 179.6 45.5C179.7 45.6 179.6 45.5 179.6 45.5ZM179.3 45.2C179.3 45.1 179.3 45.1 179.3 45.2C179.2 45.1 179.1 45 179.1 45C179.2 45.1 179.3 45.1 179.3 45.2C179.4 45.2 179.3 45.2 179.3 45.2ZM178.9 44.8C178.9 44.8 178.8 44.7 178.7 44.7C178.8 44.8 178.9 44.9 179 45C179 44.9 179 44.9 178.9 44.8ZM178.7 44.6C178.6 44.5 178.6 44.5 178.6 44.5C178.6 44.6 178.7 44.6 178.7 44.6C178.7 44.7 178.7 44.7 178.7 44.6ZM178.1 63.9C178.1 63.9 178.2 63.9 178.1 63.9C178.2 63.9 178.2 63.9 178.1 63.9C178.2 63.8 178.3 63.8 178.3 63.8C178.2 63.8 178.1 63.9 178.1 63.9ZM171 43.6C171.1 43.6 171.2 43.5 171.3 43.5C171.2 43.5 171.1 43.6 171 43.6Z" fill="#00743F"/>
<path d="M180.5 53.9001C180.5 54.3001 180.5 54.6 180.5 55C180.5 55.1 180.5 55.3001 180.5 55.4001C180.5 55.5001 180.5 55.6 180.4 55.8C180.4 55.8 180.4 55.8001 180.4 55.9001C180.4 56.1001 180.3 56.3 180.2 56.5C180.1 56.7 180.1 56.9 180 57C180 57 180 57.1 179.9 57.1C179.9 57.1 179.8 57.2 179.8 57.3C179.7 57.4 179.7 57.5 179.6 57.5C179.4 57.7 179.2 57.9 178.9 58H178.8C178.7 58 178.6 58.1 178.5 58.1C178.4 58.1 178.2 58.1 178.1 58.1C175.9 58.1 175.6 55.8 175.6 53.6C175.6 51.4 175.8 49.3 178.1 49.3C178.2 49.3 178.3 49.3 178.4 49.3H178.5C178.6 49.3 178.7 49.3001 178.8 49.4001C178.8 49.4001 178.8 49.4001 178.9 49.4001H179C179.1 49.4001 179.1 49.5 179.2 49.5C179.3 49.6 179.4 49.7001 179.5 49.7001C179.6 49.7001 179.6 49.8001 179.7 49.9001C179.7 50.0001 179.8 50 179.8 50.1C180.4 51.3 180.5 52.5001 180.5 53.9001Z" fill="#00743F"/>
<path d="M146.7 81.7C146.9 81.3 147.1 80.9001 147.1 80.4001C147.1 79.8001 146.8 79.2001 146.4 78.8001C145.7 78.3001 144.9 78.1 144.1 78.2H139.7V82.8001H143.6C144.3 82.8001 145 82.7001 145.6 82.5001C146 82.4001 146.4 82.1 146.7 81.7Z" fill="#00743F"/>
<path d="M185.9 81.7C185.2 81.7 184.4 82 183.9 82.5C183.3 83.1 183 83.8 183 84.6H188.6C188.6 83.9 188.4 83.2 188 82.7C187.5 82.1 186.7 81.7 185.9 81.7Z" fill="#00743F"/>
<path d="M262.7 0H20.4C9.1 0 0 9.1 0 20.4V109.7C0 121 9.1 130.1 20.4 130.1H283.1V20.4C283.1 9.1 274 0 262.7 0ZM165.2 52.6C165.2 52.3 165.2 52 165.3 51.7C165.3 51.4 165.4 51.2 165.4 50.9C165.4 50.6 165.5 50.4 165.6 50.1C165.6 49.9 165.7 49.6 165.8 49.4C166 48.7 166.3 47.9 166.6 47.3C166.7 47.2 166.7 47.1 166.8 47C166.9 46.9 167 46.7 167 46.6C167 46.5 167.1 46.4 167.2 46.4C167.3 46.3 167.4 46.1 167.5 46C167.6 45.9 167.7 45.7 167.9 45.6C168 45.5 168 45.5 168.1 45.4C168.1 45.4 168.1 45.4 168.1 45.3C168.2 45.2 168.4 45.1 168.5 45C168.7 44.8 168.9 44.7 169.2 44.5C169.3 44.4 169.5 44.3 169.6 44.3C169.7 44.3 169.7 44.2 169.8 44.2H169.9C169.9 44.2 170 44.2 170 44.1H170.1C170.2 44 170.3 44 170.4 44C170.4 44 170.4 44 170.5 44H170.6H170.7H170.8H170.9C171 44 171.1 43.9 171.3 43.9C171.5 43.9 171.6 43.8 171.8 43.8C172.1 43.7 172.5 43.7 172.8 43.6C173.2 43.6 173.5 43.5 173.9 43.5C174 43.5 174.2 43.5 174.3 43.5C174.5 43.5 174.7 43.5 175 43.5C175.2 43.5 175.4 43.5 175.6 43.6C175.9 43.7 176.2 43.7 176.4 43.8C176.7 43.9 176.9 44 177.2 44.1C177.5 44.2 177.7 44.4 178 44.5C178.1 44.5 178.2 44.6 178.3 44.7C178.3 44.7 178.3 44.7 178.4 44.7C178.4 44.7 178.5 44.8 178.6 44.8C178.7 44.8 178.7 44.9 178.8 45C178.8 45 178.8 45 178.9 45C178.9 45 179 45 179 45.1C179 45.1 179.1 45.1 179.1 45.2C179.1 45.2 179.1 45.2 179.1 45.3L179.2 45.4C179.2 45.4 179.3 45.4 179.3 45.5C179.3 45.5 179.4 45.5 179.4 45.6C179.4 45.6 179.4 45.7 179.5 45.7C179.5 45.7 179.5 45.7 179.5 45.8C179.5 45.8 179.5 45.8 179.5 45.9C179.5 45.9 179.5 46 179.6 46C179.6 46.1 179.7 46.1 179.7 46.2H179.8V34.5H189.8V64.2H181V60.4H180.9C180.8 60.6 180.7 60.8 180.6 60.9C180.5 61.1 180.4 61.3 180.3 61.5C180.2 61.6 180.1 61.8 180 61.9C179.7 62.3 179.4 62.7 179.1 63C179 63.1 178.9 63.2 178.8 63.3C178.8 63.3 178.7 63.3 178.7 63.4C178.5 63.5 178.4 63.6 178.2 63.7C178.2 63.7 178.2 63.7 178.1 63.7C178.1 63.7 178 63.7 178 63.8C178 63.8 178 63.8 177.9 63.8H177.8H177.7C177.7 63.8 177.7 63.8 177.6 63.8C177.6 63.8 177.6 63.8 177.5 63.8H177.4H177.3C177.2 63.8 177.2 63.9 177.1 63.9C177 63.9 176.9 63.9 176.9 64C176.8 64 176.7 64 176.6 64.1C176.6 64.1 176.6 64.1 176.5 64.1C176.4 64.1 176.3 64.1 176.2 64.1C176.1 64.1 176.1 64.1 176 64.1C176 64.1 175.9 64.1 175.8 64.1C175.7 64.1 175.6 64.1 175.6 64.1C175.5 64.1 175.5 64.1 175.4 64.1C175.3 64.1 175.2 64.1 175.1 64.1C175.1 64.1 175 64.1 174.9 64.1C174.8 64.1 174.7 64.1 174.6 64.1C174.5 64.1 174.4 64.1 174.3 64.1H174.2C168.6 64.1 166 60.4 165.3 55.7C165.3 55.5 165.2 55.3 165.2 55.1C165.2 54.9 165.2 54.7 165.2 54.5V54.4C165.2 54.3 165.2 54.3 165.2 54.2V54.1V53.7C165.2 53.6 165.2 53.5 165.2 53.4C165.2 53.3 165.2 53.1 165.2 53C165.2 53.3 165.2 53 165.2 52.6ZM139.7 53.6C139.7 46.6 144.1 43.2 152.5 43.2C158 43.2 161.1 45.6 162.4 49.3C162.5 49.5 162.5 49.7 162.6 49.9C162.6 50 162.7 50.1 162.7 50.2C162.7 50.3 162.7 50.3 162.7 50.4V50.5C162.7 50.7 162.8 50.9 162.8 51C162.8 51.1 162.8 51.2 162.8 51.3C162.8 51.4 162.8 51.5 162.9 51.6C162.9 51.7 162.9 51.8 162.9 51.9V52C162.9 52 162.9 52 162.9 52.1C162.9 52.2 162.9 52.2 162.9 52.3C162.9 52.4 162.9 52.5 162.9 52.6V52.7C162.9 52.8 162.9 53 162.9 53.1C162.9 53.1 162.9 53.2 162.9 53.3V53.4C162.9 53.5 162.9 53.5 162.9 53.6C162.9 53.7 162.9 53.8 162.9 53.9V54.1C162.9 54.2 162.9 54.3 162.9 54.4V54.5C162.9 54.6 162.9 54.8 162.9 54.9V56.1H149C149.2 58.7 151.6 59.3 154.6 59.3C156.9 59.4 159.2 58.9 161.3 58V63.4C158.3 64.3 155.1 64.7 152 64.6C148.8 64.6 146.3 64 144.2 62.9C140.9 61.1 139.2 57.9 139.1 53.6C139.7 53.8 139.7 53.7 139.7 53.6ZM100.6 62L100.7 43.6H110.1V47.2H110.2V47.1C110.2 47.1 110.2 47 110.3 47C110.3 46.9 110.4 46.9 110.4 46.8C110.4 46.7 110.5 46.7 110.5 46.6C110.6 46.4 110.8 46.2 111 45.9C111.1 45.8 111.1 45.7 111.2 45.6C111.3 45.5 111.4 45.4 111.5 45.3C111.7 45.1 111.9 45 112.1 44.8C113.5 43.8 115.3 43.4 117.2 43.4C120 43.4 122.9 44.5 123.7 46.9H123.8C123.8 46.8 123.9 46.8 123.9 46.7C124 46.5 124.1 46.3 124.2 46.2C125.3 44.3 128.3 43.5 130.5 43.5C137.8 43.5 137.8 48.2 137.8 52.3V64.6H127.8V52.4C127.8 52.3 127.8 52.1 127.8 52C127.8 51.9 127.8 51.7 127.8 51.6C127.8 51.6 127.8 51.5 127.8 51.4C127.8 51.4 127.8 51.4 127.8 51.3C127.8 51.2 127.8 51.1 127.8 51C127.8 50.9 127.7 50.8 127.7 50.6C127.7 50.5 127.7 50.5 127.6 50.4C127.6 50.3 127.5 50.3 127.5 50.2C127.5 50.2 127.5 50.1 127.4 50.1C127.4 50.1 127.4 50 127.3 50C127.3 50 127.3 50 127.3 49.9C127.3 49.9 127.2 49.8 127.1 49.8C127 49.8 127 49.7 126.9 49.7C126.8 49.7 126.7 49.6 126.6 49.6C126.5 49.6 126.5 49.6 126.4 49.6C126.3 49.6 126.2 49.6 126.1 49.6C124.3 49.6 124.3 51.2 124.3 52.4V64.3H114.3V52.4C114.3 52.3 114.3 52.1 114.3 52C114.3 51.9 114.3 51.7 114.3 51.6C114.3 51.5 114.3 51.5 114.3 51.4C114.3 51.4 114.3 51.4 114.3 51.3C114.3 51.2 114.3 51.1 114.3 51C114.3 50.9 114.2 50.8 114.2 50.6C114.2 50.5 114.2 50.5 114.2 50.5C114.2 50.4 114.2 50.4 114.1 50.3C114.1 50.3 114 50.2 114 50.1C114 50 113.9 50 113.8 49.9C113.7 49.8 113.7 49.8 113.6 49.7C113.5 49.7 113.5 49.6 113.4 49.6C113.4 49.6 113.3 49.6 113.3 49.5H113.2C113.1 49.5 113 49.5 112.9 49.4C112.8 49.4 112.7 49.4 112.6 49.4C110.8 49.4 110.8 51 110.8 52.2V64.1H100.8L100.6 62ZM87.3 34.5H97.3V41.4H87.3V34.5ZM87.3 43.6H97.3V64.3H87.3V43.6ZM60 43.6H69.4V47.2H69.5C69.6 46.9 69.8 46.6 69.9 46.4C69.9 46.3 70 46.3 70 46.2C71.4 44 73.8 43.2 76.2 43.2C81.5 43.2 83.5 46 83.5 50V64.3H73.5V52.4C73.5 52.3 73.5 52.1 73.5 52C73.5 51.9 73.5 51.7 73.5 51.6C73.5 51.5 73.5 51.5 73.5 51.4C73.5 51.3 73.5 51.2 73.5 51.1C73.5 51 73.5 50.9 73.4 50.8C73.4 50.7 73.4 50.7 73.3 50.6C73.3 50.5 73.3 50.5 73.2 50.4C73.2 50.3 73.1 50.3 73.1 50.2C73.1 50.2 73 50.1 73 50C73 50 73 49.9 72.9 49.9C72.9 49.9 72.8 49.9 72.8 49.8L72.7 49.7H72.6H72.5H72.4C72.3 49.7 72.2 49.7 72.1 49.7C72 49.7 71.9 49.7 71.8 49.7C71.4 49.7 71 49.8 70.8 50C70 50.4 70 51.5 70 52.4V64.3H60V43.6ZM29.3 36.6H40V53C40 55.6 40.8 57.6 43.3 57.6C43.8 57.6 44.3 57.5 44.6 57.4C44.9 57.3 45.1 57.2 45.3 57C45.4 56.9 45.4 56.9 45.5 56.8C46.4 56 46.6 54.7 46.6 53V36.6H57V52.9C57 61.9 51.5 64.8 43.1 64.8C41.4 64.8 39.8 64.7 38.3 64.3C38 64.2 37.6 64.1 37.3 64.1C36.7 63.9 36.1 63.7 35.6 63.5C35.5 63.4 35.4 63.4 35.3 63.3C35.3 63.3 35.2 63.3 35.2 63.2C35.2 63.2 35.1 63.2 35.1 63.1H35C34.9 63.1 34.8 63 34.8 63C34.8 63 34.7 63 34.7 62.9C34.6 62.9 34.6 62.8 34.5 62.8C34.5 62.8 34.5 62.8 34.4 62.8C34.4 62.8 34.4 62.8 34.3 62.8L34.2 62.7C34.1 62.7 34.1 62.6 34 62.6C33.9 62.5 33.7 62.4 33.6 62.3C33.5 62.2 33.5 62.2 33.4 62.1C33.3 62 33.1 61.9 33 61.8C32.9 61.7 32.8 61.6 32.7 61.5C32.6 61.4 32.5 61.3 32.4 61.2C32.3 61.1 32.3 61.1 32.2 61C32.1 60.9 32.1 60.8 32 60.8C31.8 60.6 31.7 60.4 31.6 60.2L31.5 60.1C31.3 59.9 31.2 59.7 31.1 59.4C31 59.1 30.8 58.9 30.7 58.6C30.7 58.5 30.6 58.4 30.6 58.2C30.6 58 30.5 57.9 30.5 57.8C30.4 57.5 30.3 57.3 30.3 57C30.3 56.9 30.3 56.8 30.2 56.7C30.2 56.6 30.2 56.6 30.2 56.5C30.2 56.4 30.2 56.4 30.2 56.3C30.2 56.2 30.2 56 30.1 55.9V55.8C30.1 55.6 30 55.4 30 55.2C30 55.1 30 55 30 54.9C30 54.6 30 54.2 30 53.8L29.3 36.6ZM147.7 90.6L145.9 87.7C145.4 86.9 144.9 86.2 144.6 85.8C144.3 85.4 144 85.1 143.7 84.9C143.4 84.7 143.2 84.6 142.9 84.5C142.6 84.4 142.2 84.4 141.9 84.4H139.8V90.6H138V76.7H144.2C145.2 76.7 146.1 76.8 147 77.1C147.6 77.4 148.2 77.8 148.5 78.4C148.9 79 149.1 79.7 149.1 80.5C149.1 81.4 148.8 82.3 148.2 83C147.4 83.8 146.3 84.2 145.2 84.3C145.6 84.5 146 84.7 146.3 85C146.9 85.5 147.4 86.2 147.8 86.8L150.2 90.6H147.7ZM160.3 86H152.8C152.8 86.9 153.1 87.8 153.7 88.5C154.2 89.1 155 89.4 155.8 89.4C156.4 89.4 156.9 89.2 157.4 88.9C157.9 88.5 158.3 87.9 158.5 87.3L160.3 87.5C160.1 88.5 159.5 89.3 158.8 89.9C158 90.5 157 90.8 155.9 90.7C154.6 90.8 153.3 90.3 152.4 89.3C151.5 88.3 151 86.9 151.1 85.5C151 84.1 151.5 82.7 152.4 81.6C153.3 80.7 154.5 80.1 155.8 80.2C157.1 80.2 158.3 80.7 159.1 81.6C160 82.7 160.5 84.1 160.4 85.5C160.3 85.7 160.3 85.9 160.3 86ZM169.2 89.8C168.4 90.5 167.4 90.8 166.4 90.8C165.1 90.8 163.9 90.4 163.1 89.5C162.2 88.4 161.8 87 161.8 85.6C161.8 84.6 162 83.6 162.3 82.7C162.6 81.9 163.2 81.3 163.9 80.9C164.6 80.5 165.5 80.3 166.3 80.3C167.3 80.3 168.2 80.6 169 81.1C169.7 81.7 170.2 82.5 170.3 83.5L168.7 83.8C168.6 83.2 168.3 82.7 167.9 82.3C167.5 82 167 81.8 166.4 81.8C165.6 81.8 164.8 82.1 164.3 82.7C163.7 83.6 163.4 84.6 163.5 85.6C163.4 86.7 163.7 87.7 164.3 88.6C164.8 89.2 165.5 89.5 166.3 89.5C166.9 89.5 167.5 89.3 168 88.9C168.5 88.4 168.8 87.7 168.8 87L170.5 87.2C170.4 88.2 170 89.1 169.2 89.8ZM173.8 90.6H172.1V80.5H173.8V90.6ZM173.8 78.7H172.1V76.7H173.8V78.7ZM180.9 78.1C180.6 78 180.2 78 179.9 78C179.5 78 179.1 78.1 178.8 78.3C178.5 78.7 178.4 79.1 178.5 79.5V80.4H180.5V81.7H178.5V90.4H176.8V81.7H175.3V80.4H176.8V79.3C176.8 78.8 176.9 78.3 177 77.8C177.2 77.4 177.5 77 177.9 76.7C178.4 76.4 179 76.3 179.6 76.3C180.1 76.3 180.7 76.4 181.2 76.5L180.9 78.1ZM190.5 86H183C183 86.9 183.3 87.8 183.9 88.5C184.4 89.1 185.2 89.4 186 89.4C186.6 89.4 187.1 89.2 187.6 88.9C188.1 88.5 188.5 87.9 188.6 87.3L190.4 87.5C190.2 88.5 189.6 89.3 188.9 89.9C188.1 90.5 187.1 90.8 186 90.7C184.7 90.8 183.4 90.3 182.5 89.3C181.6 88.3 181.1 86.9 181.2 85.5C181.1 84.1 181.6 82.7 182.5 81.6C183.4 80.7 184.6 80.1 185.9 80.2C187.2 80.2 188.4 80.7 189.2 81.6C190.1 82.7 190.6 84.1 190.5 85.5C190.5 85.7 190.5 85.8 190.5 86ZM199 71.3V100.7H197.3V71.3H29.3V69.6H197.2V29.4H198.9V69.6H253.6V71.3H199ZM243.9 54.4L251.3 64.3H238.9L231.5 54.4H236.5L229.1 44.5L221.7 54.4H226.7L219.3 64.3H207L214.4 54.4H204.5L219.3 34.6H239.1L253.9 54.4H243.9Z" fill="#00743F"/>
<path d="M123.8 46.5C123.9 46.3 123.9 46.1 124 46C123.9 46.1 123.9 46.3 123.8 46.5Z" fill="#00743F"/>
<path d="M236.4 44.5001H221.6L229 34.6001L236.4 44.5001Z" fill="#00743F"/>
<path d="M155.7 81.7C155 81.7 154.2 82 153.7 82.5C153.1 83.1 152.8 83.8 152.8 84.6H158.4C158.4 83.9 158.2 83.2 157.8 82.7C157.3 82.1 156.5 81.7 155.7 81.7Z" fill="#00743F"/>
<path d="M154.6 51.9999H149.4C149.4 51.8999 149.4 51.7999 149.4 51.6999C149.4 51.3999 149.4 50.9999 149.5 50.6999C149.5 50.5999 149.5 50.4999 149.6 50.3999C149.6 50.2999 149.6 50.1999 149.7 50.0999C149.7 49.9999 149.8 49.8999 149.8 49.7999C149.9 49.5999 150 49.3999 150.1 49.1999C150.2 49.0999 150.2 48.9999 150.3 48.8999C150.5 48.5999 150.8 48.2999 151.2 48.0999C151.3 48.0999 151.4 47.9999 151.5 47.9999C151.7 47.8999 152 47.8999 152.2 47.8999C152.5 47.8999 152.7 47.8999 153 47.9999C153.1 47.9999 153.2 48.0999 153.3 48.0999C153.4 48.0999 153.4 48.1999 153.5 48.1999C153.6 48.2999 153.7 48.2999 153.7 48.3999C153.8 48.4999 153.9 48.5999 154 48.6999C154 48.7999 154.1 48.8999 154.1 48.8999C154.2 49.1999 154.3 49.3999 154.4 49.6999C154.4 49.7999 154.4 49.8999 154.5 49.9999C154.5 50.1999 154.6 50.2999 154.6 50.4999C154.6 50.5999 154.6 50.6999 154.6 50.7999C154.6 50.8999 154.6 50.8999 154.6 50.9999C154.6 51.0999 154.6 51.2999 154.6 51.3999C154.6 51.6999 154.6 51.8999 154.6 51.9999Z" fill="#00743F"/>
</svg>
