<svg width="109" height="107" viewBox="0 0 109 107" fill="none" xmlns="http://www.w3.org/2000/svg">
<path d="M105.029 52.5693C103.74 52.3167 102.431 52.5808 101.341 53.3131C100.438 53.9198 99.7754 54.7878 99.4309 55.8002L93.8294 53.3541C93.8409 52.9708 93.8466 52.593 93.8466 52.225C93.8466 48.9316 93.4343 45.6614 92.6207 42.4934L95.1334 40.789C96.726 42.1839 99.0407 42.6009 101.067 41.7206C103.794 40.5356 105.1 37.38 104.04 34.5364L102.858 31.3621C101.785 28.4838 98.7005 26.9673 95.8354 27.9076C94.3855 28.3837 93.2186 29.3995 92.5501 30.7677C92.1698 31.5459 91.978 32.3806 91.9776 33.2194L89.127 33.6175C88.7364 32.9016 88.3098 32.1761 87.8541 31.4534C87.3829 30.7059 86.3946 30.4821 85.6476 30.9531C84.8999 31.4243 84.6759 32.4122 85.1471 33.1597C85.6849 34.0127 86.1777 34.8675 86.6118 35.7007C87.0476 36.5361 87.9665 37.0099 88.8966 36.8802L94.0371 36.1626C94.5141 36.096 94.9359 35.8181 95.185 35.4059C95.4342 34.9938 95.4845 34.4912 95.322 34.0379C95.1012 33.4227 95.1379 32.7604 95.4248 32.1729C95.711 31.5871 96.2113 31.1522 96.8335 30.9478C98.0405 30.5519 99.397 31.239 99.8592 32.4796L101.042 35.654C101.5 36.8825 100.939 38.2876 99.7918 38.7864C98.6937 39.2634 97.4005 38.8544 96.7825 37.8354C96.5554 37.4606 96.184 37.1955 95.7558 37.102C95.3277 37.0084 94.8795 37.0952 94.5167 37.3412L90.2531 40.2331C89.4621 40.7694 89.102 41.75 89.3572 42.6733C90.213 45.7721 90.6469 48.986 90.6469 52.2252C90.6469 52.7559 90.6334 53.3106 90.6074 53.8739C90.565 54.7916 91.101 55.6547 91.9411 56.0214L99.9345 59.5122C100.379 59.7065 100.888 59.6884 101.317 59.4633C101.747 59.2383 102.051 58.8304 102.145 58.3543L102.398 57.0637C102.486 56.6138 102.745 56.2251 103.125 55.9694C103.506 55.7136 103.963 55.6212 104.413 55.7098C105.342 55.8919 105.95 56.796 105.768 57.7248L104.457 64.4053C104.365 64.8703 104.095 65.2668 103.695 65.522C103.296 65.7769 102.821 65.8541 102.358 65.7411C101.484 65.5262 100.922 64.5896 101.105 63.6527L101.14 63.4741C101.235 62.9922 101.103 62.4937 100.782 62.1219C100.461 61.7497 99.9842 61.544 99.4974 61.5681L90.8508 61.9625C89.9355 62.0041 89.1259 62.6181 88.8367 63.491C88.0357 65.9096 86.9725 68.2465 85.6764 70.4364C85.1936 71.2517 85.2783 72.2854 85.8869 73.0086L89.7121 77.5529C89.9963 77.8906 90.4073 78.0956 90.8476 78.1201C91.2881 78.144 91.7194 77.9857 92.0388 77.6817C92.8963 76.8662 94.1997 76.7965 95.1383 77.5147C95.6464 77.9034 95.9724 78.4665 96.0568 79.1005C96.1413 79.7345 95.9734 80.3634 95.585 80.8713L94.4766 82.3199C93.6803 83.3603 92.193 83.6278 91.1612 82.9168C90.2842 82.3125 89.9092 81.1861 90.2493 80.1778C90.5142 79.3926 90.1356 78.535 89.3766 78.2018L83.8661 75.7815C82.9898 75.396 81.967 75.6138 81.3202 76.3236C78.8632 79.0216 76.0258 81.3203 72.8869 83.1559C72.094 83.6188 71.6611 84.5374 71.8092 85.4412L73.2199 94.043C73.2984 94.5217 73.5898 94.939 74.0123 95.1775C74.4349 95.416 74.9424 95.4497 75.3931 95.2696L76.6137 94.7811C77.0538 94.6051 77.5338 94.6166 77.9651 94.8138C78.3962 95.0104 78.7192 95.3669 78.8753 95.8174C79.1702 96.6683 78.6887 97.6494 77.8021 98.0039L71.5686 100.498C71.1285 100.674 70.6487 100.662 70.2172 100.465C69.7863 100.269 69.4631 99.9121 69.307 99.4618C69.0122 98.6108 69.4934 97.6298 70.3793 97.2752L70.548 97.2078C71.0041 97.0254 71.351 96.6438 71.4892 96.1726C71.6272 95.7014 71.5415 95.1928 71.256 94.7931L66.2271 87.7467C65.6951 87.0008 64.7396 86.6545 63.8514 86.8849C60.9193 87.645 57.8883 88.0305 54.8421 88.0305C52.4301 88.0305 50.0121 87.7868 47.6558 87.3065C46.7563 87.1232 45.8215 87.5185 45.3281 88.2909L40.2944 96.1856C40.0335 96.5945 39.9725 97.0999 40.1285 97.5594C40.284 98.0189 40.6398 98.3828 41.0956 98.549L41.2738 98.614C41.8849 98.8367 42.3728 99.2843 42.6473 99.8741C42.9219 100.464 42.9502 101.125 42.7275 101.736C42.6633 101.912 42.6307 102.098 42.6307 102.284C42.6307 102.89 42.4521 103.348 42.1279 103.575C41.8039 103.802 41.3124 103.813 40.7435 103.605L34.5598 101.35C33.3215 100.899 32.6623 99.5181 33.09 98.2723C33.2942 97.6784 33.7336 97.1955 34.3275 96.9122C34.9549 96.6129 35.6842 96.5758 36.3278 96.8104L36.4694 96.862C36.9304 97.0306 37.4436 96.9774 37.8609 96.7185C38.2783 96.4595 38.5535 96.0233 38.6075 95.5352L39.6323 86.283C39.7332 85.3725 39.2528 84.4781 38.4371 84.057C34.6965 82.1252 31.3498 79.57 28.4907 76.4635C27.8614 75.7792 26.8622 75.5558 26.0042 75.908L18.4581 79.0026C18.0394 79.1743 17.713 79.5152 17.5598 79.941C17.4065 80.3668 17.4408 80.8376 17.6539 81.2367C18.1328 82.1326 17.8523 83.2302 17.0016 83.7895C16.1246 84.3665 14.8968 84.0967 14.2653 83.1879L12.3325 80.4056C11.7126 79.5133 11.8602 78.3155 12.6684 77.6786C13.0863 77.3492 13.6049 77.205 14.1275 77.2722C14.6542 77.34 15.1201 77.6101 15.4399 78.0329C15.7291 78.4156 16.175 78.6483 16.6545 78.6669C17.1323 78.6852 17.5963 78.4877 17.9142 78.1282L23.2292 72.1208C23.8529 71.4157 23.9647 70.3875 23.5071 69.5612C22.9357 68.5304 22.4041 67.445 21.9275 66.3349C21.5785 65.5233 20.638 65.1476 19.8259 65.4964C19.014 65.8451 18.6386 66.7859 18.9871 67.5978C19.4144 68.5921 19.8822 69.569 20.3818 70.51L16.5749 74.8133C15.9627 74.4378 15.272 74.1929 14.5363 74.0982C13.1525 73.9205 11.7868 74.2994 10.688 75.165C8.5529 76.8477 8.12115 79.9515 9.70503 82.231L11.6379 85.0131C13.2508 87.3348 16.4455 87.9848 18.7602 86.4626C20.4912 85.3241 21.3255 83.3383 21.0344 81.4039L26.5977 79.1223C29.4549 82.1224 32.74 84.63 36.3792 86.5884L35.6181 93.4609C34.7046 93.4349 33.7857 93.6247 32.9499 94.0234C31.5744 94.6796 30.5494 95.8189 30.0639 97.2321C29.0737 100.116 30.5989 103.311 33.4638 104.356L39.6474 106.611C40.268 106.837 40.8915 106.949 41.492 106.949C42.3965 106.949 43.2491 106.695 43.9626 106.196C45.0821 105.412 45.7515 104.099 45.8241 102.564C46.239 101.226 46.1438 99.8016 45.5482 98.5227C45.1666 97.7027 44.6066 97.0018 43.9138 96.4608L47.6705 90.5685C53.0653 91.5722 58.6908 91.4246 64.0071 90.1434L67.6578 95.2585C66.2209 96.5589 65.624 98.6053 66.2834 100.509C66.7288 101.794 67.6537 102.812 68.888 103.375C70.1052 103.931 71.5148 103.965 72.757 103.468L78.9907 100.975C81.4815 99.9782 82.759 97.2526 81.8989 94.7698C81.4537 93.485 80.5288 92.4668 79.2945 91.903C78.2819 91.4406 77.1351 91.3392 76.063 91.605L75.0742 85.5769C78.0688 83.7566 80.8016 81.5445 83.2123 78.9892L86.9351 80.6243C86.831 82.5367 87.7178 84.4299 89.3456 85.5517C91.8009 87.2435 95.1709 86.6778 97.0178 84.2645L98.1262 82.8159C99.0343 81.6292 99.426 80.1599 99.2289 78.6786C99.0318 77.1973 98.2698 75.8813 97.0829 74.9732C95.3514 73.6483 93.0911 73.47 91.2299 74.3871L88.775 71.4706C89.9224 69.4504 90.8901 67.3226 91.6591 65.1286L97.9342 64.8423C98.2455 66.7552 99.6393 68.3679 101.596 68.8482C102.916 69.1727 104.274 68.9487 105.417 68.2187C106.545 67.4988 107.339 66.3334 107.597 65.0209L108.908 58.3404C109.429 55.6801 107.69 53.0913 105.029 52.5693Z" fill="#219653"/>
<path d="M10.308 56.8909L16.3048 58.276C16.4353 59.1098 16.5968 59.9565 16.7866 60.801C16.9537 61.5451 17.6141 62.0509 18.3462 62.0506C18.4623 62.0506 18.5802 62.0378 18.6982 62.0114C19.5602 61.8177 20.1022 60.9621 19.9086 60.0998C19.6882 59.1177 19.5092 58.1341 19.377 57.1763C19.2509 56.2648 18.5653 55.5135 17.6713 55.3072L9.17801 53.3458C8.70594 53.2368 8.20848 53.3479 7.8277 53.648C7.44672 53.9484 7.22252 54.4053 7.21826 54.8904L7.20951 55.8847C7.19948 56.9978 6.28584 57.9035 5.17253 57.9035C4.64244 57.9035 4.14477 57.6962 3.77167 57.3197C3.39837 56.943 3.1955 56.4438 3.2002 55.9137L3.25566 49.7437C3.26056 49.178 3.50097 48.6244 3.91502 48.2251C4.30412 47.8496 4.79581 47.6483 5.31524 47.6636C6.39591 47.6922 7.27052 48.5958 7.26455 49.678C7.26177 50.168 7.48384 50.6324 7.86717 50.9378C8.2505 51.2435 8.75308 51.3566 9.22963 51.2444L17.6632 49.2669C18.5565 49.0574 19.2392 48.3042 19.3622 47.3925C19.9845 42.7778 21.4818 38.3909 23.8123 34.3532C24.2824 33.5379 24.1898 32.5093 23.5808 31.7934L19.5591 27.0701C19.2447 26.7011 18.7824 26.4937 18.2948 26.508C17.8099 26.5221 17.3575 26.7552 17.0648 27.142L16.7162 27.6028C16.4558 27.9471 16.0761 28.1636 15.6469 28.2128C15.2192 28.2619 14.7987 28.1361 14.4653 27.8583C13.8352 27.3333 13.7503 26.3406 14.2761 25.6453L16.9549 22.1034C17.475 21.4159 18.4576 21.2794 19.1451 21.7997C19.7889 22.2864 19.9538 23.2009 19.5207 23.8816C19.2694 24.2769 19.204 24.7622 19.3415 25.21C19.4791 25.6577 19.8059 26.0227 20.2356 26.2085L25.8593 28.6408C26.7311 29.0181 27.7488 28.7993 28.3918 28.0953C30.952 25.2908 33.9197 22.9221 37.2133 21.0552C38.0111 20.6025 38.4559 19.6904 38.3202 18.7846L37.0248 10.1649C36.9527 9.6851 36.6666 9.26401 36.2474 9.01998C35.8278 8.77573 35.3201 8.7352 34.8681 8.90927L33.6409 9.38134C33.1985 9.55114 32.7189 9.53343 32.2904 9.33078C31.862 9.12834 31.5438 8.76762 31.3938 8.31517C31.1103 7.4602 31.6046 6.48597 32.496 6.14317L38.7625 3.73289C39.2049 3.56266 39.6844 3.58079 40.113 3.78344C40.5413 3.98588 40.8598 4.3466 41.0098 4.79905C41.293 5.65403 40.7988 6.62825 39.9073 6.97127L39.738 7.03655C39.2798 7.21296 38.9278 7.58989 38.7834 8.05919C38.6392 8.52849 38.7181 9.03811 38.9982 9.44149L43.9314 16.5531C44.4531 17.3053 45.4026 17.6643 46.2941 17.446C49.0745 16.7651 51.9504 16.4198 54.8456 16.4198H54.8464C55.7904 16.4198 56.6366 15.8248 56.9521 14.9402L58.5855 10.3696C58.732 9.95964 58.7051 9.50741 58.5108 9.11789C58.3167 8.72816 57.9722 8.43421 57.5564 8.3043C56.367 7.93227 55.6103 6.76414 55.7571 5.52689C55.8354 4.86859 56.1812 4.26938 56.7307 3.83955C57.3077 3.38817 58.046 3.18061 58.7574 3.27041L61.0007 3.55285C62.4546 3.73588 63.5138 5.02197 63.3617 6.41963C63.2441 7.49859 62.4888 8.37362 61.4373 8.6488C60.6672 8.85039 60.1623 9.58762 60.253 10.3786L60.8206 15.3314C60.9288 16.2766 61.6272 17.0493 62.5592 17.2543C66.1327 18.0393 69.5571 19.3697 72.7361 21.2081C73.5325 21.6689 74.5457 21.5895 75.258 21.0114L82.0264 15.5174C82.4031 15.2117 82.6204 14.7516 82.6179 14.2665C82.6151 13.7817 82.3926 13.3239 82.0129 13.0223L80.9832 12.2046C80.6121 11.91 80.3838 11.4876 80.3407 11.0151C80.2978 10.5435 80.4467 10.0861 80.7605 9.72713C81.3529 9.04856 82.4432 8.97987 83.1915 9.57354L88.4498 13.7484C88.821 14.043 89.0492 14.4653 89.0923 14.9376C89.1352 15.4093 88.9863 15.8666 88.6725 16.2259C88.0799 16.904 86.989 16.9727 86.2419 16.3797L86.1001 16.267C85.7153 15.9613 85.2114 15.8496 84.7342 15.9635C84.2564 16.0774 83.8575 16.4044 83.6521 16.8505L80.0267 24.7202C79.6434 25.5526 79.8172 26.5534 80.4587 27.2107C80.6861 27.4436 80.9107 27.6847 81.178 27.975C81.7763 28.6252 82.7885 28.667 83.4387 28.0684C84.0887 27.4699 84.1305 26.4579 83.5322 25.8077C83.4191 25.6846 83.3127 25.5694 83.2094 25.4591L85.8424 19.7435C87.6844 20.3459 89.757 19.8486 91.0823 18.3313C91.977 17.3072 92.4019 15.9989 92.2786 14.6475C92.1573 13.3151 91.4868 12.0743 90.4392 11.2428L85.1809 7.06812C83.0799 5.40018 80.0798 5.64315 78.3507 7.62253C77.456 8.64667 77.0311 9.95495 77.1544 11.3063C77.2555 12.4151 77.7365 13.4608 78.4994 14.2597L73.7581 18.109C70.6608 16.3878 67.3577 15.1034 63.9225 14.284L63.5709 11.215C65.1971 10.3157 66.3377 8.65947 66.5439 6.76627C66.8838 3.64372 64.5767 0.77822 61.4015 0.378248L59.1582 0.095815C57.6083 -0.0991577 56.0047 0.346677 54.7609 1.31919C53.5347 2.27806 52.7604 3.63839 52.581 5.14975C52.3199 7.34692 53.3336 9.4464 55.0941 10.6337L54.1676 13.2258C51.4717 13.2718 48.7922 13.5937 46.1836 14.1848L42.6032 9.02339C44.057 7.74263 44.6814 5.70437 44.0476 3.79219C43.6195 2.5014 42.7082 1.47108 41.4816 0.890852C40.2721 0.318946 38.8629 0.266256 37.6144 0.746435L31.3482 3.1565C28.844 4.11942 27.5302 6.82771 28.3572 9.32204C28.7851 10.6128 29.6962 11.6431 30.923 12.2234C31.9295 12.6993 33.0739 12.816 34.1503 12.5645L35.0582 18.6052C31.8992 20.4677 29.0253 22.76 26.5001 25.4312L22.888 23.8691C23.1815 22.1589 22.5281 20.3459 21.0758 19.2473C20.0611 18.4798 18.8087 18.1528 17.548 18.3283C16.2877 18.503 15.171 19.1583 14.4037 20.1731L11.7246 23.715C10.1569 25.7872 10.4613 28.6871 12.4175 30.3166C13.4297 31.1598 14.7059 31.5419 16.0123 31.3917C16.8359 31.2972 17.6184 30.986 18.2801 30.5032L20.7036 33.35C18.4642 37.3896 16.9801 41.7413 16.286 46.3033L10.0953 47.7549C9.34376 45.8794 7.52543 44.521 5.39993 44.4649C4.01614 44.4301 2.70487 44.9462 1.69289 45.9225C0.66555 46.914 0.0686861 48.2961 0.0556737 49.7147L0.000210956 55.8851C-0.0121615 57.2753 0.520067 58.5849 1.49856 59.5723C2.47705 60.5598 3.78191 61.1035 5.17232 61.1035C7.70014 61.1037 9.82799 59.2873 10.308 56.8909Z" fill="#219653"/>
<path d="M46.9219 48.1574C47.7024 47.7438 48 46.7754 47.5862 45.9946C47.1725 45.2143 46.2045 44.9161 45.4231 45.3303C41.5998 47.3569 37.2419 46.8212 35.0625 44.0558C33.8395 42.5045 33.4189 40.4488 33.8779 38.2676C34.3592 35.9804 35.7355 33.8449 37.7533 32.2546C39.7706 30.6641 42.1687 29.8257 44.5048 29.8906C46.7329 29.9535 48.6333 30.8426 49.8565 32.3941C51.6927 34.7237 51.6695 38.201 49.797 41.253C49.3349 42.0062 49.5707 42.9913 50.3241 43.4534C51.0771 43.9154 52.0622 43.6795 52.5243 42.9265C55.1058 38.719 55.0448 33.8073 52.3692 30.4132C50.5489 28.1038 47.788 26.7823 44.5952 26.6923C41.5098 26.6027 38.3774 27.6881 35.7724 29.7417C33.1669 31.7953 31.3823 34.5893 30.7466 37.6087C30.0887 40.7342 30.7291 43.7275 32.5494 46.0366C34.466 48.468 37.4672 49.7471 40.696 49.7469C42.753 49.7469 44.9022 49.2281 46.9219 48.1574Z" fill="#219653"/>
<path d="M77.9657 33.8095C77.9657 30.4926 74.8789 27.7941 71.0849 27.7941C67.2908 27.7941 64.2039 30.4926 64.2039 33.8095C64.2039 37.1263 67.2908 39.8248 71.0849 39.8248C74.8789 39.8248 77.9657 37.1263 77.9657 33.8095ZM67.4038 33.8095C67.4038 32.2569 69.0551 30.9939 71.0851 30.9939C73.1148 30.9939 74.7661 32.2569 74.7661 33.8095C74.7661 35.362 73.1148 36.625 71.0851 36.625C69.0551 36.625 67.4038 35.362 67.4038 33.8095Z" fill="#219653"/>
<path d="M59.3996 61.3064C59.3996 57.2414 56.0925 53.9343 52.0275 53.9343C47.9623 53.9343 44.6553 57.2414 44.6553 61.3064C44.6553 65.3714 47.9623 68.6784 52.0275 68.6784C56.0925 68.6784 59.3996 65.3714 59.3996 61.3064ZM47.8553 61.3064C47.8553 59.0057 49.7269 57.1341 52.0278 57.1341C54.3282 57.1341 56.2 59.0057 56.2 61.3064C56.2 63.607 54.3284 65.4787 52.0278 65.4787C49.7269 65.4787 47.8553 63.607 47.8553 61.3064Z" fill="#219653"/>
<path d="M80.2564 58.2992C80.2564 55.1381 77.6846 52.5663 74.5235 52.5663C71.3625 52.5663 68.7908 55.1381 68.7908 58.2992C68.7908 61.4604 71.3625 64.0322 74.5235 64.0322C77.6846 64.0319 80.2564 61.4604 80.2564 58.2992ZM71.9903 58.2992C71.9903 56.9024 73.1267 55.7661 74.5233 55.7661C75.9201 55.7661 77.0564 56.9024 77.0564 58.2992C77.0564 59.696 75.9201 60.8324 74.5233 60.8324C73.1269 60.8322 71.9903 59.696 71.9903 58.2992Z" fill="#219653"/>
<path d="M59.2602 84.086C62.3578 84.086 64.8782 81.5658 64.8782 78.468C64.8782 75.3704 62.358 72.8501 59.2602 72.8501C56.1624 72.8501 53.6421 75.3702 53.6421 78.468C53.6421 81.5658 56.1622 84.086 59.2602 84.086ZM59.2602 76.0498C60.5937 76.0498 61.6784 77.1346 61.6784 78.468C61.6784 79.8015 60.5937 80.8862 59.2602 80.8862C57.9268 80.8862 56.8419 79.8015 56.8419 78.468C56.8419 77.1346 57.9268 76.0498 59.2602 76.0498Z" fill="#219653"/>
<path d="M34.1181 74.6422C37.3083 74.6422 39.9038 72.0467 39.9038 68.8566C39.9038 65.6664 37.3083 63.0709 34.1181 63.0709C30.928 63.0709 28.3325 65.6664 28.3325 68.8566C28.3325 72.0467 30.928 74.6422 34.1181 74.6422ZM34.1181 66.2707C35.5442 66.2707 36.704 67.4307 36.704 68.8566C36.704 70.2824 35.544 71.4424 34.1181 71.4424C32.6923 71.4424 31.5323 70.2824 31.5323 68.8566C31.5323 67.4307 32.6923 66.2707 34.1181 66.2707Z" fill="#219653"/>
<path d="M66.6966 48.8339C66.6966 47.9503 65.9805 47.234 65.0967 47.234H63.6824C62.7986 47.234 62.0825 47.9503 62.0825 48.8339C62.0825 49.7174 62.7986 50.4338 63.6824 50.4338H65.0967C65.9805 50.4338 66.6966 49.7174 66.6966 48.8339Z" fill="#219653"/>
<path d="M44.802 78.3998H46.2552C47.1389 78.3998 47.855 77.6835 47.855 76.7999C47.855 75.9163 47.1389 75.2 46.2552 75.2H44.802C43.9183 75.2 43.2021 75.9163 43.2021 76.7999C43.2021 77.6835 43.9185 78.3998 44.802 78.3998Z" fill="#219653"/>
<path d="M31.3322 55.1007C32.216 55.1007 32.9321 54.3844 32.9321 53.5009C32.9321 52.6173 32.216 51.901 31.3322 51.901H29.9324C29.0486 51.901 28.3325 52.6173 28.3325 53.5009C28.3325 54.3844 29.0486 55.1007 29.9324 55.1007H31.3322Z" fill="#219653"/>
<path d="M59.7476 27.1098C60.6314 27.1098 61.3475 26.3935 61.3475 25.5099C61.3475 24.6263 60.6314 23.91 59.7476 23.91H57.7996C56.9158 23.91 56.1997 24.6263 56.1997 25.5099C56.1997 26.3935 56.9158 27.1098 57.7996 27.1098H59.7476Z" fill="#219653"/>
<path d="M70.3904 69.9916C69.5066 69.9916 68.7905 70.7079 68.7905 71.5915C68.7905 72.4751 69.5066 73.1914 70.3904 73.1914H72.5415C73.4253 73.1914 74.1414 72.4751 74.1414 71.5915C74.1414 70.7079 73.4253 69.9916 72.5415 69.9916H70.3904Z" fill="#219653"/>
</svg>
