<svg width="111" height="111" viewBox="0 0 111 111" fill="none" xmlns="http://www.w3.org/2000/svg">
<path d="M42.5499 37H38.8499V40.7H42.5499V37Z" fill="#219653"/>
<path d="M42.5499 44.4H38.8499V48.1H42.5499V44.4Z" fill="#219653"/>
<path d="M42.5499 51.8H38.8499V55.5H42.5499V51.8Z" fill="#219653"/>
<path d="M42.5499 59.2H38.8499V62.9H42.5499V59.2Z" fill="#219653"/>
<path d="M49.95 37H46.25V40.7H49.95V37Z" fill="#219653"/>
<path d="M49.95 44.4H46.25V48.1H49.95V44.4Z" fill="#219653"/>
<path d="M49.95 51.8H46.25V55.5H49.95V51.8Z" fill="#219653"/>
<path d="M49.95 59.2H46.25V62.9H49.95V59.2Z" fill="#219653"/>
<path d="M57.3499 37H53.6499V40.7H57.3499V37Z" fill="#219653"/>
<path d="M57.3499 44.4H53.6499V48.1H57.3499V44.4Z" fill="#219653"/>
<path d="M57.3499 51.8H53.6499V55.5H57.3499V51.8Z" fill="#219653"/>
<path d="M57.3499 59.2H53.6499V62.9H57.3499V59.2Z" fill="#219653"/>
<path d="M64.75 37H61.05V40.7H64.75V37Z" fill="#219653"/>
<path d="M49.95 29.6H46.25V33.3H49.95V29.6Z" fill="#219653"/>
<path d="M57.3499 29.6H53.6499V33.3H57.3499V29.6Z" fill="#219653"/>
<path d="M64.75 29.6H61.05V33.3H64.75V29.6Z" fill="#219653"/>
<path d="M64.75 44.4H61.05V48.1H64.75V44.4Z" fill="#219653"/>
<path d="M64.75 51.8H61.05V55.5H64.75V51.8Z" fill="#219653"/>
<path d="M64.75 59.2H61.05V62.9H64.75V59.2Z" fill="#219653"/>
<path d="M72.15 37H68.45V40.7H72.15V37Z" fill="#219653"/>
<path d="M72.15 44.4H68.45V48.1H72.15V44.4Z" fill="#219653"/>
<path d="M72.15 51.8H68.45V55.5H72.15V51.8Z" fill="#219653"/>
<path d="M72.15 59.2H68.45V62.9H72.15V59.2Z" fill="#219653"/>
<path d="M109.152 27.75C109.151 27.75 109.151 27.75 109.15 27.75H81.4V1.85C81.4007 0.828799 80.5733 0.000692279 79.5521 -1.47141e-06C79.5514 -1.47141e-06 79.5507 -1.47141e-06 79.55 -1.47141e-06H31.45C30.4288 -0.000695221 29.6007 0.826717 29.6 1.84792C29.6 1.84861 29.6 1.8493 29.6 1.85V27.75H1.85C0.8288 27.7493 0.000694186 28.5767 4.35941e-07 29.5979C4.35941e-07 29.5986 4.35941e-07 29.5993 4.35941e-07 29.6V96.2C-0.000693314 97.2212 0.826719 98.0493 1.84792 98.05C1.84861 98.05 1.84931 98.05 1.85 98.05H5.71719C5.60989 98.661 5.55393 99.2798 5.55 99.9V109.15C5.54931 110.171 6.37672 110.999 7.39792 111C7.39861 111 7.39931 111 7.4 111H103.6C104.621 111.001 105.449 110.173 105.45 109.152C105.45 109.151 105.45 109.151 105.45 109.15V99.9C105.446 99.2798 105.39 98.661 105.283 98.05H109.15C110.171 98.0507 110.999 97.2233 111 96.2021C111 96.2014 111 96.2007 111 96.2V29.6C111.001 28.5788 110.173 27.7507 109.152 27.75ZM79.55 79.55C79.55 81.5936 77.8936 83.25 75.85 83.25C73.8064 83.25 72.15 81.5936 72.15 79.55C72.15 77.5064 73.8064 75.85 75.85 75.85C77.8924 75.8525 79.5475 77.5076 79.55 79.55ZM35.15 75.85C37.1936 75.85 38.85 77.5064 38.85 79.55C38.85 81.5936 37.1936 83.25 35.15 83.25C33.1064 83.25 31.45 81.5936 31.45 79.55C31.4525 77.5076 33.1076 75.8525 35.15 75.85ZM24.05 107.3H9.25V99.9C9.25 95.8131 12.5631 92.5 16.65 92.5C20.7369 92.5 24.05 95.8131 24.05 99.9V107.3ZM12.95 85.1C12.95 83.0564 14.6064 81.4 16.65 81.4C18.6936 81.4 20.35 83.0564 20.35 85.1C20.35 87.1436 18.6936 88.8 16.65 88.8C14.6076 88.7975 12.9525 87.1424 12.95 85.1ZM24.3303 91.9045C23.6326 91.2316 22.8503 90.6525 22.003 90.182C24.8247 87.2257 24.7158 82.5414 21.7595 79.7195C18.8032 76.8976 14.119 77.0067 11.297 79.963C8.56758 82.8224 8.56758 87.3223 11.297 90.1817C9.5312 91.1618 8.06415 92.6022 7.05174 94.3498H3.7V31.45H29.6V74.7067C27.0595 77.5573 27.1453 81.8845 29.797 84.6319C27.022 86.1668 25.0335 88.8123 24.3303 91.9045ZM42.55 107.3H27.75V94.35C27.75 90.2631 31.0631 86.95 35.15 86.95C39.2369 86.95 42.55 90.2631 42.55 94.35V107.3ZM64.75 107.3H46.25V94.35C46.25 89.2415 50.3915 85.1 55.5 85.1C60.6085 85.1 64.75 89.2415 64.75 94.35V107.3ZM49.95 75.85C49.95 72.7848 52.4348 70.3 55.5 70.3C58.5652 70.3 61.05 72.7848 61.05 75.85C61.05 78.9152 58.5652 81.4 55.5 81.4C52.4362 81.3968 49.9532 78.9138 49.95 75.85ZM66.767 87.9895C65.5282 85.8055 63.6851 84.0261 61.4591 82.865C65.3665 79.5738 65.866 73.7382 62.5751 69.8308C59.2839 65.9234 53.4484 65.4239 49.5409 68.7148C45.6335 72.0059 45.134 77.8415 48.4249 81.749C48.7644 82.152 49.1376 82.5253 49.5409 82.865C47.3149 84.0261 45.4718 85.8055 44.233 87.9895C43.2604 86.602 41.9848 85.4538 40.503 84.6319C43.3393 81.7305 43.2865 77.0789 40.3848 74.2426C38.5165 72.4162 35.819 71.7196 33.3 72.4127V3.7H77.7V72.4127C77.0971 72.2464 76.4753 72.1581 75.85 72.15C71.774 72.1391 68.4609 75.4347 68.45 79.5109C68.4449 81.4183 69.1787 83.2537 70.497 84.6319C69.0152 85.4538 67.7396 86.602 66.767 87.9895ZM83.25 99.9V107.3H68.45V94.35C68.45 90.2631 71.7631 86.95 75.85 86.95C79.9369 86.95 83.25 90.2631 83.25 94.35V99.9ZM101.75 107.3H86.95V99.9C86.95 95.8131 90.2631 92.5 94.35 92.5C98.4369 92.5 101.75 95.8131 101.75 99.9V107.3ZM90.65 85.1C90.65 83.0564 92.3064 81.4 94.35 81.4C96.3936 81.4 98.05 83.0564 98.05 85.1C98.05 87.1436 96.3936 88.8 94.35 88.8C92.3076 88.7975 90.6525 87.1424 90.65 85.1ZM107.3 94.35H103.948C102.936 92.6024 101.469 91.162 99.703 90.182C102.525 87.2257 102.416 82.5414 99.4595 79.7195C96.5032 76.8978 91.819 77.0067 88.997 79.963C86.2676 82.8224 86.2676 87.3223 88.997 90.1817C88.1497 90.6523 87.3672 91.2314 86.6697 91.9043C85.9667 88.812 83.978 86.1665 81.203 84.6317C83.8547 81.8842 83.9408 77.5571 81.4002 74.7065V31.45H107.3V94.35H107.3Z" fill="#219653"/>
<path d="M90.65 42.55H86.95V72.15H90.65V42.55Z" fill="#219653"/>
<path d="M101.75 42.55H98.05V72.15H101.75V42.55Z" fill="#219653"/>
<path d="M12.95 42.55H9.25V72.15H12.95V42.55Z" fill="#219653"/>
<path d="M24.0501 42.55H20.3501V72.15H24.0501V42.55Z" fill="#219653"/>
<path d="M66.6021 7.4C66.6014 7.4 66.6007 7.4 66.6 7.4H44.4C43.3788 7.39931 42.5507 8.22672 42.55 9.24792C42.55 9.24861 42.55 9.24931 42.55 9.25V24.05C42.5494 25.0712 43.3768 25.8993 44.398 25.9C44.3987 25.9 44.3994 25.9 44.4 25.9H66.6C67.6212 25.9007 68.4493 25.0733 68.45 24.0521C68.45 24.0514 68.45 24.0507 68.45 24.05V9.25C68.4507 8.2288 67.6233 7.40069 66.6021 7.4ZM64.75 22.2H46.25V11.1H64.75V22.2Z" fill="#219653"/>
</svg>
