<svg width="110" height="103" viewBox="0 0 110 103" fill="none" xmlns="http://www.w3.org/2000/svg">
<path d="M106.223 51.7853C107.222 51.7766 108.178 51.3745 108.884 50.6656C109.591 49.9567 109.991 48.9978 110 47.9954V45.4464C109.991 44.447 109.589 43.4916 108.882 42.7881C108.175 42.0846 107.219 41.6899 106.223 41.6899H100.909V35.9882C101.335 35.4678 101.57 34.8169 101.577 34.1435V20.7277C101.568 19.9774 101.265 19.2609 100.733 18.7335C100.201 18.2061 99.4837 17.9103 98.736 17.9104H85.3662C84.6184 17.9103 83.9008 18.2061 83.3689 18.7335C82.8371 19.2609 82.5339 19.9774 82.5251 20.7277V34.1435C82.5173 34.8195 82.7549 35.4751 83.1936 35.9882V41.6899H76.2078V35.9882C76.6339 35.4678 76.8698 34.8169 76.8763 34.1435V20.7277C76.8675 19.9774 76.5643 19.2609 76.0325 18.7335C75.5006 18.2061 74.783 17.9103 74.0352 17.9104H60.6655C59.9177 17.9103 59.2001 18.2061 58.6682 18.7335C58.1364 19.2609 57.8332 19.9774 57.8244 20.7277V34.1435C57.8166 34.8195 58.0542 35.4751 58.4929 35.9882V41.6899H51.5071V26.4965C51.5071 26.0517 51.3311 25.6252 51.0177 25.3107C50.7042 24.9962 50.2792 24.8195 49.8359 24.8195C49.3927 24.8195 48.9676 24.9962 48.6542 25.3107C48.3408 25.6252 48.1647 26.0517 48.1647 26.4965V41.6899H37.0009V26.9996H48.265V29.6828C48.265 30.1275 48.441 30.5541 48.7545 30.8686C49.0679 31.1831 49.493 31.3597 49.9362 31.3597C50.3794 31.3597 50.8045 31.1831 51.1179 30.8686C51.4313 30.5541 51.6074 30.1275 51.6074 29.6828V18.0781C52.0385 17.5737 52.2756 16.9313 52.2759 16.2669V2.8511C52.2761 2.4681 52.1995 2.08898 52.0505 1.73637C51.9015 1.38377 51.6832 1.0649 51.4086 0.798814C51.1341 0.532729 50.809 0.324879 50.4526 0.187674C50.0962 0.0504695 49.716 -0.0132768 49.3345 0.000240883H35.9648C35.2113 0.000240883 34.4886 0.300599 33.9558 0.835239C33.423 1.36988 33.1237 2.09501 33.1237 2.8511V16.2669C33.124 16.9313 33.3611 17.5737 33.7922 18.0781V41.5558H26.7396V35.854C27.1656 35.3337 27.4015 34.6828 27.4081 34.0094V20.5935C27.3993 19.8433 27.0961 19.1267 26.5642 18.5993C26.0324 18.0719 25.3147 17.7762 24.567 17.7762H21.2246C20.799 17.7762 20.391 17.9458 20.0901 18.2477C19.7892 18.5497 19.6202 18.9591 19.6202 19.3861C19.6287 19.8104 19.8005 20.2149 20.0995 20.515C20.3986 20.8151 20.8017 20.9874 21.2246 20.996H23.9988V33.6404H11.6651V21.1302H21.9599C22.3885 21.1303 22.8001 20.9617 23.1063 20.6607C23.4125 20.3597 23.5889 19.9503 23.5977 19.5203C23.5977 19.306 23.5552 19.0939 23.4724 18.8963C23.3897 18.6988 23.2686 18.5198 23.116 18.3699C22.9635 18.2199 22.7827 18.1021 22.5841 18.0232C22.3856 17.9443 22.1734 17.9059 21.9599 17.9104H11.2641C10.5163 17.9103 9.79869 18.2061 9.26683 18.7335C8.73498 19.2609 8.43177 19.9774 8.42297 20.7277V34.1435C8.42955 34.8169 8.66543 35.4678 9.09146 35.9882V41.6899H3.74354C2.75069 41.6899 1.79851 42.0857 1.09646 42.7902C0.394408 43.4946 2.89983e-09 44.4501 2.89982e-09 45.4464L2.89983e-09 47.9954C-3.89966e-05 48.9947 0.393299 49.9537 1.0944 50.6635C1.79551 51.3733 2.74763 51.7765 3.74354 51.7853H9.09146V64.9664H3.74354C2.75069 64.9664 1.79851 65.3622 1.09646 66.0666C0.394408 66.7711 2.89983e-09 67.7265 2.89982e-09 68.7228L2.89983e-09 71.2718C-3.89966e-05 72.2712 0.393299 73.2301 1.0944 73.9399C1.79551 74.6497 2.74763 75.0529 3.74354 75.0618H9.09146V94.1458C9.09146 96.503 10.0247 98.7637 11.6858 100.431C13.3469 102.097 15.5998 103.034 17.949 103.034C20.2981 103.034 22.551 102.097 24.2121 100.431C25.8732 98.7637 26.8064 96.503 26.8064 94.1458V75.0618H33.7922V76.2357C33.7922 78.5929 34.7254 80.8536 36.3865 82.5204C38.0476 84.1873 40.3005 85.1237 42.6497 85.1237C44.9988 85.1237 47.2517 84.1873 48.9128 82.5204C50.5739 80.8536 51.5071 78.5929 51.5071 76.2357V75.0618H58.4929V94.1458C58.4929 96.503 59.4261 98.7637 61.0872 100.431C62.7483 102.097 65.0012 103.034 67.3503 103.034C69.6995 103.034 71.9524 102.097 73.6135 100.431C75.2746 98.7637 76.2078 96.503 76.2078 94.1458V75.0618H83.1936V94.1458C83.1936 96.503 84.1268 98.7637 85.7879 100.431C87.449 102.097 89.7019 103.034 92.0511 103.034C94.4002 103.034 96.6531 102.097 98.3142 100.431C99.9753 98.7637 100.909 96.503 100.909 94.1458V75.0618H106.223C107.222 75.053 108.178 74.6509 108.884 73.9421C109.591 73.2332 109.991 72.2743 110 71.2718V68.7228C109.991 67.7235 109.589 66.7681 108.882 66.0646C108.175 65.361 107.219 64.9663 106.223 64.9664H100.909V51.7853H106.223ZM37.0009 23.7798V19.1178H48.265V23.7798H37.0009ZM36.3324 3.3542H48.9335V15.8645H36.3324V3.3542ZM85.7338 21.1302H98.3349V33.7746H85.7338V21.1302ZM86.4023 36.9944H97.6664V41.6899H86.4023V36.9944ZM61.0331 21.1302H73.5339V33.7746H61.0331V21.1302ZM61.7016 36.9944H72.9657V41.6899H61.7016V36.9944ZM12.3002 36.8938H23.5977V41.5893H12.3002V36.8938ZM3.34245 47.9954V45.4464C3.34245 45.304 3.39879 45.1675 3.49909 45.0669C3.59938 44.9663 3.73541 44.9097 3.87724 44.9097H106.223C106.365 44.9097 106.501 44.9663 106.601 45.0669C106.701 45.1675 106.758 45.304 106.758 45.4464V47.9954C106.758 48.1377 106.701 48.2742 106.601 48.3748C106.501 48.4755 106.365 48.532 106.223 48.532H3.74354C3.62588 48.5016 3.52204 48.4319 3.44914 48.3343C3.37624 48.2368 3.33861 48.1172 3.34245 47.9954ZM76.2078 64.9664V51.7853H83.1936V64.9664H76.2078ZM33.7922 51.7853V64.9664H26.7396V51.7853H33.7922ZM37.1346 51.7853H72.9657V64.9664H37.0009L37.1346 51.7853ZM12.4339 51.7853H23.5977V64.9664H12.3002L12.4339 51.7853ZM23.5977 94.1458C23.5977 95.6491 23.0026 97.0908 21.9432 98.1538C20.8839 99.2168 19.4471 99.814 17.949 99.814C16.4508 99.814 15.014 99.2168 13.9547 98.1538C12.8953 97.0908 12.3002 95.6491 12.3002 94.1458V75.0618H23.5977V94.1458ZM48.265 76.2357C48.3248 77.0144 48.2236 77.7972 47.9677 78.5349C47.7118 79.2725 47.3067 79.9491 46.7779 80.5223C46.249 81.0954 45.6079 81.5527 44.8946 81.8654C44.1813 82.1781 43.4113 82.3396 42.6329 82.3396C41.8545 82.3396 41.0846 82.1781 40.3713 81.8654C39.658 81.5527 39.0168 81.0954 38.488 80.5223C37.9592 79.9491 37.5541 79.2725 37.2982 78.5349C37.0423 77.7972 36.9411 77.0144 37.0009 76.2357V75.0618H48.265V76.2357ZM72.9657 94.1458C72.8563 95.5695 72.2155 96.8992 71.1713 97.8693C70.1272 98.8394 68.7566 99.3783 67.3336 99.3783C65.9107 99.3783 64.5401 98.8394 63.496 97.8693C62.4518 96.8992 61.811 95.5695 61.7016 94.1458V75.0618H72.9657V94.1458ZM97.6664 94.1458C97.557 95.5695 96.9162 96.8992 95.872 97.8693C94.8279 98.8394 93.4573 99.3783 92.0343 99.3783C90.6114 99.3783 89.2408 98.8394 88.1967 97.8693C87.1525 96.8992 86.5117 95.5695 86.4023 94.1458V75.0618H97.6664V94.1458ZM97.6664 64.9664H96.0954C95.6726 64.975 95.2695 65.1473 94.9704 65.4474C94.6714 65.7475 94.4996 66.152 94.491 66.5763C94.491 67.0033 94.6601 67.4127 94.961 67.7147C95.2618 68.0166 95.6699 68.1862 96.0954 68.1862H106.123C106.265 68.1862 106.401 68.2427 106.501 68.3434C106.601 68.444 106.658 68.5805 106.658 68.7228V71.2718C106.658 71.4141 106.601 71.5506 106.501 71.6513C106.401 71.7519 106.265 71.8085 106.123 71.8085H3.74354C3.62588 71.778 3.52204 71.7083 3.44914 71.6108C3.37624 71.5132 3.33861 71.3937 3.34245 71.2718V68.7228C3.35042 68.5831 3.40933 68.4512 3.50795 68.3522C3.60656 68.2533 3.738 68.1942 3.87724 68.1862H99.137C99.3505 68.1906 99.5628 68.1523 99.7613 68.0734C99.9598 67.9945 100.141 67.8766 100.293 67.7267C100.446 67.5767 100.567 67.3978 100.65 67.2002C100.732 67.0027 100.775 66.7905 100.775 66.5763C100.766 66.1463 100.59 65.7368 100.283 65.4358C99.9773 65.1348 99.5657 64.9663 99.137 64.9664H86.4023V51.7853H97.6664V64.9664Z" fill="#219653"/>
<path d="M51.4736 49.0013H48.2649V66.8108H51.4736V49.0013Z" fill="#219653"/>
<path d="M61.7017 49.0013H58.4929V66.8108H61.7017V49.0013Z" fill="#219653"/>
</svg>
