<svg width="40" height="40" viewBox="0 0 40 40" fill="none" xmlns="http://www.w3.org/2000/svg">
<path d="M7.965e-06 34.8883C-0.00182713 36.2073 0.517315 37.4737 1.44438 38.4115L1.59045 38.5414C2.5247 39.4754 3.79139 40 5.11213 40C6.43286 40 7.69956 39.4754 8.63381 38.5414L18.29 28.881C21.5188 30.4227 25.1883 30.7734 28.6505 29.8713C32.1126 28.9691 35.1448 26.8722 37.2117 23.9506C39.2785 21.0291 40.2471 17.4709 39.9463 13.9043C39.6454 10.3378 38.0947 6.99224 35.5677 4.45847C33.0408 1.92471 29.7002 0.365694 26.1359 0.0566986C22.5716 -0.252297 19.0127 0.708606 16.0878 2.76974C13.1629 4.83087 11.06 7.85966 10.1504 11.3213C9.24085 14.7829 9.58314 18.4548 11.1168 21.6884L1.37947 31.43C0.491819 32.3622 -0.00228789 33.6009 7.965e-06 34.8883ZM24.8141 28.2478C21.3514 28.2478 18.0305 26.8716 15.582 24.422C13.1334 21.9725 11.7579 18.6501 11.7579 15.1859C11.7579 11.7217 13.1334 8.39935 15.582 5.94977C18.0305 3.50019 21.3514 2.12404 24.8141 2.12404C26.5343 2.11411 28.2394 2.44629 29.8302 3.10129C31.421 3.75629 32.8659 4.72105 34.0808 5.9395C35.9461 7.75062 37.225 10.0802 37.752 12.6266C38.279 15.1731 38.0299 17.8191 37.0369 20.2223C36.0438 22.6255 34.3526 24.6752 32.1821 26.106C30.0117 27.5369 27.4618 28.283 24.8628 28.2478H24.8141ZM2.09354 34.8883C2.09026 34.5082 2.16326 34.1313 2.30822 33.7799C2.45318 33.4285 2.66714 33.1097 2.93745 32.8426L12.188 23.588C12.7473 24.4144 13.383 25.1863 14.0867 25.8936C14.7914 26.6114 15.5692 27.2536 16.4075 27.8094L7.14075 37.0639C6.59949 37.6023 5.86726 37.9045 5.10401 37.9045C4.34077 37.9045 3.60854 37.6023 3.06728 37.0639L2.93745 36.9178C2.66762 36.6537 2.45381 36.3378 2.30881 35.9891C2.16381 35.6404 2.0906 35.266 2.09354 34.8883Z" fill="#219653"/>
</svg>
