<?xml version="1.0" encoding="utf-8"?>
<!-- Generator: Adobe Illustrator 24.0.1, SVG Export Plug-In . SVG Version: 6.00 Build 0)  -->
<svg version="1.1" id="Camada_1" xmlns="http://www.w3.org/2000/svg" xmlns:xlink="http://www.w3.org/1999/xlink" x="0px" y="0px"
	 viewBox="0 0 40 40" style="enable-background:new 0 0 40 40;" xml:space="preserve">
<style type="text/css">
	.st0{fill:#FFFFFF;}
</style>
<path class="st0" d="M0,34.9c0,1.3,0.5,2.6,1.4,3.5l0.1,0.1C2.5,39.5,3.8,40,5.1,40c1.3,0,2.6-0.5,3.5-1.5l9.7-9.7
	c3.2,1.5,6.9,1.9,10.4,1c3.5-0.9,6.5-3,8.6-5.9c2.1-2.9,3-6.5,2.7-10c-0.3-3.6-1.9-6.9-4.4-9.4c-2.5-2.5-5.9-4.1-9.4-4.4
	s-7.1,0.7-10,2.7c-2.9,2.1-5,5.1-5.9,8.6c-0.9,3.5-0.6,7.1,1,10.4l-9.7,9.7C0.5,32.4,0,33.6,0,34.9z M24.8,28.2
	c-3.5,0-6.8-1.4-9.2-3.8c-2.4-2.4-3.8-5.8-3.8-9.2s1.4-6.8,3.8-9.2c2.4-2.4,5.8-3.8,9.2-3.8c1.7,0,3.4,0.3,5,1s3,1.6,4.3,2.8
	c1.9,1.8,3.1,4.1,3.7,6.7c0.5,2.5,0.3,5.2-0.7,7.6c-1,2.4-2.7,4.5-4.9,5.9C30,27.5,27.5,28.3,24.8,28.2L24.8,28.2z M2.1,34.9
	c0-0.4,0.1-0.8,0.2-1.1c0.1-0.4,0.4-0.7,0.6-0.9l9.3-9.3c0.6,0.8,1.2,1.6,1.9,2.3c0.7,0.7,1.5,1.4,2.3,1.9l-9.3,9.3
	c-0.5,0.5-1.3,0.8-2,0.8c-0.8,0-1.5-0.3-2-0.8l-0.1-0.1c-0.3-0.3-0.5-0.6-0.6-0.9C2.2,35.6,2.1,35.3,2.1,34.9z"/>
</svg>
